/* XPM */
static char *_cal7_94cxe[] = {
/* columns rows colors chars-per-pixel */
"189 52 59 1 ",
"  c #101935",
". c #111936",
"X c #131D3E",
"o c #141F42",
"O c #151F42",
"+ c #152043",
"@ c #152044",
"# c #162248",
"$ c #172249",
"% c #17234A",
"& c #17234B",
"* c #17244B",
"= c #18244D",
"- c #18254E",
"; c #19254F",
": c #192650",
"> c #192651",
", c #1A2753",
"< c #1A2754",
"1 c #1A2854",
"2 c #1A2855",
"3 c #1B2856",
"4 c #1B2956",
"5 c #1B2957",
"6 c #202E5B",
"7 c #283661",
"8 c #2A3762",
"9 c #334069",
"0 c #39466D",
"q c #414C73",
"w c #495479",
"e c #535E81",
"r c #586284",
"t c #636D8C",
"y c #67708F",
"u c #717A96",
"i c #747C98",
"p c #767F9A",
"a c #8189A2",
"s c #858DA5",
"d c #949AB0",
"f c #959BB1",
"g c #A1A7BA",
"h c #A4A9BC",
"j c #AFB3C4",
"k c #B1B6C6",
"l c #B3B8C7",
"z c #BFC3D0",
"x c #C2C6D2",
"c c #D1D4DD",
"v c #D7D9E1",
"b c #E1E2E9",
"n c #E1E3E9",
"m c #F0F1F4",
"M c #F2F2F5",
"N c #F4F5F7",
"B c #F7F7F9",
"V c white",
"C c None",
/* pixels */
"CCCCCCCCCCCCCCCCCCCCCCCCCCCCCCCCCCCCCCCCCCCCCCCCCCCCCCCCCCCCCCCCCCCCCCCCCCCCCCCCCCCCCCCCCCCCCCCCCCCCCCCCCCCCCCCCCCCCCCCCCCCCCCCCCCCCCCCCCCCCCCCCCCCCCCCCCCCCCCCCCCCCCCCCCCCCCCCCCCCCCCCCCCCCC",
"CCCCCCCCCCCCCCCCCCCCCCCCCCCCCCCCCCCCCCCCCCCCCCCCCCCCCCCCCCCCCCCCCCCCCCCCCCCCCCCCCCCCCCCCCCCCCCCCCCCCCCCCCCCCCCCCCCCCCCCCCCCCCCCCCCCCCCCCCCCCCCCCCCCCCCCCCCCCCCCCCCCCCCCCCCCCCCCCCCCCCCCCCCCCC",
"CCCCCCCCCCCCCCC-<,555555555555555555555555555555555555555555555555555555555555555555555555555555555555555555555555555555555555555555555555555555555555555555555555555555555,<-CCCCCCCCCCCCCCC",
"CCCCCCCCCCCC&3555555555555555555555555555555555555555555555555555555555555555555555555555555555555555555555555555555555555555555555555555555555555555555555555555555555555555553&CCCCCCCCCCCC",
"CCCCCCCCCCC25555555555555555555555555555555555555555555555555555555555555555555555555555555555555555555555555555555555555555555555555555555555555555555555555555555555555555555552CCCCCCCCCCC",
"CCCCCCCCC=5555555555555555555555555555555555555555555555555555555555555555555555555555555555555555555555555555555555555555555555555555555555555555555555555555555555555555555555555=CCCCCCCCC",
"CCCCCCCC:555555555555555555555555555555555555555555555555555555555555555555555555555555555555555555555555555555555555555555555555555555555555555555555555555555555555555555555555555:CCCCCCCC",
"CCCCCCC&55555555555555555555555555555555555555555555555555555555555555555555555555555555555555555555555555555555555555555555555555555555555555555555555555555555555555555555555555555&CCCCCCC",
"CCCCCCC5555555555555555555555555555555555555555555555555555555555555555555555555555555555555555555555555555555555555555555555555555555555555555555555555555555555555555555555555555555CCCCCCC",
"CCCCCC255555555555555555555555555555555555555555555555555555555555555555555555555555555555555555555555555555555555555555555555555555555555555555555555555555555555555555555555555555552CCCCCC",
"CCCCC#555555555555555555555555555555555555555555555555555555555555555555555555555555555555555555555555555555555555555555555555555555555555555555555555555555555555555555555555555555555#CCCCC",
"CCCCC25555555555555555555555555555555555555555555555555555555555555555555555555555555555555555555555555555555555555555555555555555555555555555555555555555555555555555555555555555555552CCCCC",
"CCCCC55555555555555555555555555555555555555555555555555555555555555555555555555555555555555555555555555555555555555555555555555555555555555555555555555555555555555555555555555555555555CCCCC",
"CCCC*55555555555555555555555555555555555555555555555555555555555555555555555555555555555555555555555555555555555555555555555555555555555555555555555555555555555555555555555555555555555*CCCC",
"CCCC>55555555555555555555555555555555555555555555555555555555555555555555555555555555555555555555555555555555555555555555555555555555555555555555555555555555555555555555555555555555555>CCCC",
"CCCC2555555555555555555555555555555555555555555555555555555555555555555555555555555555555555555555555555555555555555555555555555555555555555555555555555555555555555555555555555555555552CCCC",
"CCCC4555555555555555555555555555555555555555555555555555555555555555555555555555555555555555555555555555555555555555555555555555555555555555555555555555555555555555555555555555555555554CCCC",
"CCCC555555555555555555555555555555555555557j555555555555555555555555555555555555555555555555555555555555555555555555555555555555555555555555555555555555555555555555555555555555555555555CCCC",
"CCCC5555555555555555555555555555555555555enV5555555555555555558slxxfr55555558slxxs055555555555pssssssy855555555rss0555555558plxxfw5555ssp5555wsss8555555555555555555555555555555555555555CCCC",
"CCCC555555555555555555555555555555555556dVVV55555555555555555smVVVVVVx05555pmVVVVVVf8555555555xVVVVVVVmw5555555cVVf5555555ymVVVVVVx855VVx555wmVVw5555555555555555555555555555555555555555CCCC",
"CCCC5555555555555555555555555555555555qvVVVV5555555555555555sVVVbxcVVm0555sVVVbxcVVVx555555555xVVVVVVVVm555555rVVVm855555rVVVmxcVVVp55VVx550mVVp55555555555555555555555555555555555555555CCCC",
"CCCC555555555555555555555555555555555aBVVVVV5555555555555550VVmy555wcw5550VVmy555rbVVp55555555xVV5558xVVr55555hVmVVp55555bVVs555wcp555VVx58cVVp555555555555555555555555555555555555555555CCCC",
"CCCC55555555555555555555555555555559zVVVVVVV555555555555555hVVs5555555555hVVs55555wVVb55555555xVV5555fVV055550VVfbVb5555pVVh5555585555VVx8cVVp5555555555555555555555555555555555555555555CCCC",
"CCCC555555555555555555555555555555tMVVVVVVVV555555555555555bVm5550rrrrr55bVm5555555lVV05555555xVVssshVVh55555sVV0sVVr555hVVw5555555555VVccVVp55555555555555555555555555555555555555555555CCCC",
"CCCC55555555555555555555555555555gVVVVVVVVVN555555555555555VVx555sVVVVV55VVx5555555sVVr5555555xVVVVVVVmr55555mVl58VVl555xVV55555555555VVVVVVf55555555555555555555555555555555555555555555CCCC",
"CCCC555555555555555555555555555559zVVVVVVVVM555555555555555VVc555sVVVVV55VVc5555555fVVr5555555xVVxxxxmVVy555pVVsrrxVV055xVV85555555555VVVVmVVy5555555555555555555555555555555555555555555CCCC",
"CCCC5555555555555555555555555555555iMVVVVVVM555555555555555xVV0550rrcVV55xVV0555555bVV55555555xVV55558bVb555cVVVVVVVVf55sVVp5555555555VVVpwVVm0555555555555555555555555555555555555555555CCCC",
"CCCC555555555555555555555555555555559zVVVVVM555555555555555sVVl55555xVV55pVVx85555sVVh55555555xVV55555cVV55rVVVVVVVVVm85wVVb85555pw555VVx55sVVc555555555555555555555555555555555555555555CCCC",
"CCCC5555555555555555555555555555555555iMVVVM5555555555555558bVVcprrfVVV555cVVbprylVVm055555555xVVssssxVVb55hVVyrrrrsVVp55lVVbsrylVmw55VVx555xVVf55555555555555555555555555555555555555555CCCC",
"CCCC555555555555555555555555555555555559zVVM5555555555555555wmVVVVVVVVh555wbVVVVVVVmr555555555xVVVVVVVVVy50VVh555558mVb558cVVVVVVVmy55VVx5558mVVy5555555555555555555555555555555555555555CCCC",
"CCCC5555555555555555555555555555555555555uMM555555555555555558hmVVVVlr555558smVVVVh05555555555xVVVVVVblr55sVVr555555hVVr558sbVVVVl0555VVx5555rVVmw555555555555555555555555555555555555555CCCC",
"CCCC555555555555555555555555555555555555559k55555555555555555555rrr55555555555wrr55555555555555555555555555555555555555555555wrr555555555555555555555555555555555555555555555555555555555CCCC",
"CCCC4555555555555555555555555555555555555555555555555555555555555555555555555555555555555555555555555555555555555555555555555555555555555555555555555555555555555555555555555555555555554CCCC",
"CCCC2555555555555555555555555555555555555555555555555555555555555555555555555555555555555555555555555555555555555555555555555555555555555555555555555555555555555555555555555555555555552CCCC",
"CCCC:55555555555555555555555555555555555555555555555555555555555555555555555555555555555555555555555555555555555555555555555555555555555555555555555555555555555555555555555555555555555:CCCC",
"CCCC$55555555555555555555555555555555555555555555555555555555555555555555555555555555555555555555555555555555555555555555555555555555555555555555555555555555555555555555555555555555555$CCCC",
"CCCCC55555555555555555555555555555555555555555555555555555555555555555555555555555555555555555555555555555555555555555555555555555555555555555555555555555555555555555555555555555555555CCCCC",
"CCCCC25555555555555555555555555555555555555555555555555555555555555555555555555555555555555555555555555555555555555555555555555555555555555555555555555555555555555555555555555555555552CCCCC",
"CCCCCo555555555555555555555555555555555555555555555555555555555555555555555555555555555555555555555555555555555555555555555555555555555555555555555555555555555555555555555555555555555oCCCCC",
"CCCCCC<5555555555555555555555555555555555555555555555555555555555555555555555555555555555555555555555555555555555555555555555555555555555555555555555555555555555555555555555555555555<CCCCCC",
"CCCCCC.5555555555555555555555555555555555555555555555555555555555555555555555555555555555555555555555555555555555555555555555555555555555555555555555555555555555555555555555555555555.CCCCCC",
"CCCCCCC+55555555555555555555555555555555555555555555555555555555555555555555555555555555555555555555555555555555555555555555555555555555555555555555555555555555555555555555555555555@CCCCCCC",
"CCCCCCCC%555555555555555555555555555555555555555555555555555555555555555555555555555555555555555555555555555555555555555555555555555555555555555555555555555555555555555555555555555%CCCCCCCC",
"CCCCCCCCC+5555555555555555555555555555555555555555555555555555555555555555555555555555555555555555555555555555555555555555555555555555555555555555555555555555555555555555555555555+CCCCCCCCC",
"CCCCCCCCCC ,555555555555555555555555555555555555555555555555555555555555555555555555555555555555555555555555555555555555555555555555555555555555555555555555555555555555555555555,.CCCCCCCCCC",
"CCCCCCCCCCCCX1555555555555555555555555555555555555555555555555555555555555555555555555555555555555555555555555555555555555555555555555555555555555555555555555555555555555555551XCCCCCCCCCCCC",
"CCCCCCCCCCCCCCCO;;555555555555555555555555555555555555555555555555555555555555555555555555555555555555555555555555555555555555555555555555555555555555555555555555555555555;;OCCCCCCCCCCCCCCC",
"CCCCCCCCCCCCCCCCCCCCCCCCCCCCCCCCCCCCCCCCCCCCCCCCCCCCCCCCCCCCCCCCCCCCCCCCCCCCCCCCCCCCCCCCCCCCCCCCCCCCCCCCCCCCCCCCCCCCCCCCCCCCCCCCCCCCCCCCCCCCCCCCCCCCCCCCCCCCCCCCCCCCCCCCCCCCCCCCCCCCCCCCCCCCC",
"CCCCCCCCCCCCCCCCCCCCCCCCCCCCCCCCCCCCCCCCCCCCCCCCCCCCCCCCCCCCCCCCCCCCCCCCCCCCCCCCCCCCCCCCCCCCCCCCCCCCCCCCCCCCCCCCCCCCCCCCCCCCCCCCCCCCCCCCCCCCCCCCCCCCCCCCCCCCCCCCCCCCCCCCCCCCCCCCCCCCCCCCCCCCC",
"CCCCCCCCCCCCCCCCCCCCCCCCCCCCCCCCCCCCCCCCCCCCCCCCCCCCCCCCCCCCCCCCCCCCCCCCCCCCCCCCCCCCCCCCCCCCCCCCCCCCCCCCCCCCCCCCCCCCCCCCCCCCCCCCCCCCCCCCCCCCCCCCCCCCCCCCCCCCCCCCCCCCCCCCCCCCCCCCCCCCCCCCCCCCC",
"CCCCCCCCCCCCCCCCCCCCCCCCCCCCCCCCCCCCCCCCCCCCCCCCCCCCCCCCCCCCCCCCCCCCCCCCCCCCCCCCCCCCCCCCCCCCCCCCCCCCCCCCCCCCCCCCCCCCCCCCCCCCCCCCCCCCCCCCCCCCCCCCCCCCCCCCCCCCCCCCCCCCCCCCCCCCCCCCCCCCCCCCCCCCC",
"CCCCCCCCCCCCCCCCCCCCCCCCCCCCCCCCCCCCCCCCCCCCCCCCCCCCCCCCCCCCCCCCCCCCCCCCCCCCCCCCCCCCCCCCCCCCCCCCCCCCCCCCCCCCCCCCCCCCCCCCCCCCCCCCCCCCCCCCCCCCCCCCCCCCCCCCCCCCCCCCCCCCCCCCCCCCCCCCCCCCCCCCCCCCC"
};
