/* XPM */
static char *mb327_zgyue[] = {
/* columns rows colors chars-per-pixel */
"72 86 252 2 ",
"   c #020303",
".  c #03030B",
"X  c #050A0B",
"o  c #0B0B0C",
"O  c #060707",
"+  c #0D110D",
"@  c #031708",
"#  c #12120E",
"$  c #040312",
"%  c #0B0B14",
"&  c #0D0D1C",
"*  c #060914",
"=  c #100F1F",
"-  c #110E14",
";  c #0E1313",
":  c #0E111E",
">  c #0D1918",
",  c #121414",
"<  c #141A15",
"1  c #1A1C16",
"2  c #14131B",
"3  c #151B1A",
"4  c #1A1C1C",
"5  c #1A161B",
"6  c #110E0E",
"7  c #251B19",
"8  c #072718",
"9  c #16211C",
"0  c #1B221D",
"q  c #16281A",
"w  c #07260B",
"e  c #23241D",
"r  c #35201B",
"t  c #0E0E21",
"y  c #100F21",
"u  c #180F20",
"i  c #0F1022",
"p  c #0F1C24",
"a  c #121122",
"s  c #1D1D21",
"d  c #151C24",
"f  c #1A1F33",
"g  c #231D25",
"h  c #321E27",
"j  c #1C2422",
"k  c #1E2A25",
"l  c #1D2A2A",
"z  c #1A2628",
"x  c #1D2531",
"c  c #14352B",
"v  c #222424",
"b  c #222B25",
"n  c #232D2A",
"m  c #2A2D2C",
"M  c #2A2626",
"N  c #342A29",
"B  c #25322C",
"V  c #2A342D",
"C  c #2A3B2F",
"Z  c #38342C",
"A  c #272C34",
"S  c #362D36",
"D  c #263332",
"F  c #2A3532",
"G  c #2C3B34",
"H  c #2D3D39",
"J  c #263737",
"K  c #323C35",
"L  c #323D3A",
"P  c #3A3737",
"I  c #46393B",
"U  c #4B3537",
"Y  c #114535",
"T  c #2D423A",
"R  c #2D4537",
"E  c #33433C",
"W  c #3A443C",
"Q  c #35453B",
"!  c #32523B",
"~  c #48453B",
"^  c #58453F",
"/  c #353A45",
"(  c #303B46",
")  c #463A45",
"_  c #533A49",
"`  c #6D3F59",
"'  c #2E4443",
"]  c #344542",
"[  c #3A4543",
"{  c #354A42",
"}  c #3B4C44",
"|  c #3C4C4A",
" . c #364649",
".. c #3C5246",
"X. c #3D524B",
"o. c #375749",
"O. c #3A4D54",
"+. c #3D5854",
"@. c #2C5350",
"#. c #3A6756",
"$. c #2B604E",
"%. c #355268",
"&. c #494848",
"*. c #57484A",
"=. c #43544C",
"-. c #43594D",
";. c #4A554C",
":. c #5B4B55",
">. c #584755",
",. c #435553",
"<. c #455B53",
"1. c #4A5B54",
"2. c #4B5E59",
"3. c #455759",
"4. c #5A5659",
"5. c #584D4D",
"6. c #644B59",
"7. c #655557",
"8. c #665450",
"9. c #436255",
"0. c #4C635B",
"q. c #48675A",
"w. c #52655C",
"e. c #536A5E",
"r. c #536258",
"t. c #4B6C55",
"y. c #6F625C",
"u. c #495B63",
"i. c #585567",
"p. c #674D62",
"a. c #6B5563",
"s. c #685866",
"d. c #745A64",
"f. c #735B6C",
"g. c #785A6B",
"h. c #775C73",
"j. c #794B69",
"k. c #4C6763",
"l. c #556B64",
"z. c #5A6C64",
"x. c #576A68",
"c. c #4A7667",
"v. c #557064",
"b. c #5A7264",
"n. c #54746A",
"m. c #5C746B",
"M. c #5D7A6C",
"N. c #567C6B",
"B. c #5B7875",
"V. c #476D78",
"C. c #68686A",
"Z. c #7C636B",
"A. c #766567",
"S. c #61796D",
"D. c #7D6373",
"F. c #7A6676",
"G. c #657A76",
"H. c #7D7270",
"J. c #82696B",
"K. c #836474",
"L. c #846B75",
"P. c #846B7B",
"I. c #8A6C7B",
"U. c #866579",
"Y. c #8C737C",
"T. c #887375",
"R. c #95777B",
"E. c #8B7170",
"W. c #5E8374",
"Q. c #648273",
"!. c #6D8A7B",
"~. c #688679",
"^. c #71897A",
"/. c #698B74",
"(. c #55738B",
"). c #797183",
"_. c #5E7EA4",
"`. c #876C83",
"'. c #8D7283",
"]. c #897485",
"[. c #947483",
"{. c #9A7D8C",
"}. c #977987",
"|. c #9A7C94",
" X c #90728B",
".X c #A17E93",
"XX c #698985",
"oX c #748C87",
"OX c #739384",
"+X c #7B9B8B",
"@X c #789689",
"#X c #769996",
"$X c #6A918F",
"%X c #7DA495",
"&X c #6D97AF",
"*X c #7BA5B4",
"=X c #79A6A8",
"-X c #5988A9",
";X c #7AAED1",
":X c #9C828A",
">X c #82998C",
",X c #9E8495",
"<X c #849D94",
"1X c #818E84",
"2X c #A28393",
"3X c #A3859B",
"4X c #A78A9B",
"5X c #A1838F",
"6X c #8CAD9B",
"7X c #85A597",
"8X c #94A89C",
"9X c #8FB09F",
"0X c #A88CA3",
"qX c #AB92A6",
"wX c #B193AB",
"eX c #8BB5A7",
"rX c #94B2A3",
"tX c #98B8A8",
"yX c #84AAB4",
"uX c #96BCB7",
"iX c #8AB0AD",
"pX c #A2B8AA",
"aX c #A7BCB6",
"sX c #9AC4B4",
"dX c #A9C8B7",
"fX c #B3C6BA",
"gX c #A3C6B2",
"hX c #8BB7C6",
"jX c #9AC6C9",
"kX c #B9D3C6",
"lX c #ADCEC8",
"zX c #B8E3D0",
"xX c #A5D7F2",
"cX c #B6E6FA",
"vX c #9DCFF0",
"bX c #C9DBD3",
"nX c #C9D7CF",
"mX c #C7E4D6",
"MX c #D5E6DC",
"NX c #D8EBE1",
"BX c #DCF5E7",
"VX c #CAF4FE",
"CX c #D7F8FD",
"ZX c #CBEBEA",
"AX c #E4EDE7",
"SX c #E7F6EC",
"DX c #ECFCF3",
"FX c #EAFAF4",
"GX c #F3FCF5",
"HX c #F5FEFB",
"JX c #FDFEFE",
"KX c #F5F9F7",
/* pixels */
"k B J R ' o.#.k.N.W.#XeXsXlXzXsX#XlXmXzXzXkXdXsX7XOXq.o.{ T Q E ] E C B B B k n k k j j j j 9 0 k V F B k 9 4 < ; ; ; , , , , ; , # , , 6 , , M ",
"'  .+.q.W.XX%XeXsXlXzXmXBXBXCXBX7XiXlXtX%X@XW.9.o.! { T H T ' E T G C R T K B k k 4 j 4 3 3 < < 0 G Q K b < ; + , ; , ; , , < ; , , o , ; 6 , F ",
"Y $.c.$X=XdXmXMXBXFXDXHXJXJXJXJXlXB.B.#.#.#.9.k.k.k.+.' R E Q W { ..1.=.H H K n k j < < < 2 > ; 0 F [ [ B 3 ; , , , , 2 , , ; , , + , + 6 o 3 P ",
"oXrXkXmXSXDXHXJXHXJXJXJXJXJXJXJXaXx.B.n.W.c.n.c.#.9.9.<.X.! B @   w ! 9.t.{ w k 0 j 4 5 3 3 < 1 l G E L B 0 ; < , < , , , , , , , ; # , , ; < K ",
"KXJXJXJXJXJXJXJXJXJXJXJXHXAXMXkX#XXXW.B.n.c.q.<.+.+.+.#.t.v.Q.1X8XfXnXMXSXNX+X8 k z q 0 9 < 3 9 B G E B b 4 + + ; 3 < < < < < , , ; , , , , 4 L ",
"JXJXJXJXJXJXHXKXAXMXkXaX%XOXN.N.XXB.k.#.#.#.c.~.+XrXdXkXMXBXKXGXJXJXJXJXJXHXNXl.  m 0 4 4 < 9 9 n E Q G b < < + ; 3 3 4 3 4 < < , , , ; # < 5 L ",
"JXHXFXNXnXlXrX<X/.c.#.#.o.@.$.c.XX@X7XpXfXbXMXSXHXJXJXJXJXJXJXJXJXJXJXJXJXJXSXb.  b 9 < < 9 4 9 b V Q L B 0 < + > 0 j j 3 j 4 3 < , , , # , 1 W ",
"tX>XQ.c.#.$.@.#.#.q.#.o.W.6XfXlXrXAXJXJXJXJXJXJXJXJXJXJXJXJXJXJXJXJXSXAXnXfXG.@ 0 0 < 1 < < < 3 q j b B n 0 ; + < k D D n n j 4 4 < < , < + 3 W ",
"Y Y o.+.<.<.<.X.X.{ ! rXSXHXJXJXnXKXJXJXJXJXJXJXJXJXJXGXSXAXbXfX8X>Xb.R       0 0 4 4 < < < , ; + < , < 4 < , ; , B H J D F B n k j 9 3 3 , 3 B ",
"+.X.o.{ { { Q T T q n.BXJXJXJXJXMXKXJXJXJXKXAXMXnXfX8X@Xb.! q         7 M m b 9 < 5 < ; + ; , , + ; + + + , + , 3 l H H J G H F D B n n j 3 9 j ",
"E T R J T G J F V l R fXHXJXHXGXpXaXfXtX1XQ.t.R w w @ @ q e C K T K V k 0 3 3 3 < ; ; , + ; , + , # , , , < ; , 4 j D D D D F D F D D A n k z j ",
"J D l B J H J J D J c T +X7XoXG.oXx.+   @ 9 B K Q Q Q W Q K V V V m 0 1 3 3 , < , , , # ; ; , ; + ; , , < , < 4 9 k b k l l n D B m  ./ A n B m ",
"B D J H H ] ] T H G E G       [ oX). .| Q Q Q T R Q Q K C B B C T Q R B n k j 4 3 < < , , # , , < 5 5 4 j 4 3 4 j j n b b b n n B H 3.u. .B k b ",
" .R z c { X.{  .] Q G G m K W 2.oXB.( H K K K K F L E Q G B B Q =.-.1.} Q Q L G V B b b 0 , , , o O O + ; 3 j j j j j j k n l k A L 3.x.3.F n b ",
"+XW.n.+XeXuXeX$Xc.$.$.#.W.q.8 <.oXB.E G G G G C J Q Q } R B G W =.1.1.1.0.0.<.-.o.} Q Q G v 4 > B [ } W } W m 0 4 0 j j j v v b n G | 2.[ A m j ",
"sXsXsXzXzXZXmXZXbXmXMXAXSXSXtX9.oXG.E T T G G G R Q ....} K V V b K K [ =.=.X.=.<.0.-.-.} F q B e.!.+X7X+X^.<.K V F V m m b j j v n G G n v j s ",
"NXNXSXGXHXJXJXJXJXJXJXJXJXJXGX7X).B.' H T R G G G } ..Q C M s 2 o % 2 O O . j m Q } =.<.9.Q k B ~.gXkXdXdXrX/.@           4 V k k z V m b s 4 4 ",
"JXJXJXJXJXJXJXJXJXJXJXJXJXHXDX>XoX(.] H G G R G K } W 0 < v 4 4 2 s 4 5 - , 2 3 ; 4 V =.-...B @ fXHXGXKXSXSXMXfXpX8X1XG.C.C @ F n F m B n n b j ",
"JXJXJXJXJXJXJXJXJXJXGXSXAXMX6X-.@XG.( H G R G F C K j < < s 4 5 , 2 2 2 - 2 2 % 2 5 3 l =.=.V   bXHXJXJXJXJXJXJXJXJXJXKXDXMXG.k L L K F B B B B ",
"JXJXJXJXJXJXJXJXGXGXMXgXQ.9.! k.oXG.] H G G F C B 0 + + , , , o o < 6 O o % 2 2 - - 2 ; &.=.L   8XHXJXJXJXJXJXJXJXJXJXJXJXJXkXl R F K K B V B F ",
"JXJXJXJXJXJXJXJXJXJXJXGXgXt.l.l.oXB.E G G C C m # + # # + # o o , 6 o o o o ; , : 2 , o j [ L l z +XaXkXnXMXMXSXSXGXJXJXKXJXbXo.! ..q 8 B 0 b b ",
"JXJXJXJXJXJXJXJXJXJXJXJXBX/.e.m.oXG.{ K R V C e o # # 6 , o o , 6 , - - , - % + % ; , 2 o j F m C   @ + ^.8XfXfXbXMXAXSXGXGXSXMXMXAXkXr.B =.=.=.",
"AXKXDXDXGXHXJXJXJXJXJXHXkXt.o.9.oX).=.R C Z M # < < , < 1 5 5 7 g g v g 5 - - % % - - - , 4 j F } w.e.<XSXJXJXJXJXJXJXJXJXJXJXJXJXJXHXpX@ J ! +.",
"eXgXfXmXMXSXSXNXkXkXnXpX9.9.Q.~.oXG.=.W Q V 1 @ , , 6 , 4 7 v 7 s s 3 4 5 5 5 - 5 2 , 2 % 3 j K <.M.N.uXKXJXJXJXJXJXJXJXJXJXJXJXJXJXJXnX! 9XfXfX",
"KXKXJXJXJXJXGXBXsXY c 8 t.7X9XrX#XG.=.L Q e + 1 e ~ U *.^ r r r N S I I g . % 2 o o 5 5 # , 0 K +.M.Q.<XBXHXJXJXJXJXJXHXJXJXJXJXJXJXHXMXtXDXJXJX",
"JXJXJXJXJXJXJXHXmX/.W.$.W.sX9XrX7XG.;.L Z 1 o N 8.8.y.J.E.E.y.y.Z.D.K.K.p.>.) S U U M g < 4 v G } 2.B.M.<XfXfXaX8XaXGXJXJXJXJXJXJXJXHXSXgXBXGXJX",
"JXJXJXJXJXJXJXJXGXDXBXdX/.eXgXtX8Xm.=.&.Z + 1 ;.y.J.E.E.R.R.R.R.[.[.Y.I.I.I.J.g.d.j.*.U 5 5 1 V H E T ] k @ 8 8   >XGXJXJXJXJXJXJXJXJXSX/.pXMXMX",
"HXHXJXJXJXJXJXJXJXJXGXDXdXW.@X>XoXm.=.Q V # e 7.E.J.E.R.R.R.R.:X:X{.{.}.{.R.I.I.K.J.d.8.P # # m B l k q b B m L + C.SXJXJXJXJXJXJXJXHXGXfXt.e.t.",
"CXFXHXJXJXJXJXJXJXJXHXGXmXe.q ..G.m.~ Q q 1 Z 7.E.E.R.R.R.:X5X5X3X3X2X,X.X{.{.[.E.K.J.6.*.M + M m v j k b j k B > J MXHXJXJXJXJXJXJXJXJXSXMXMXmX",
"KXJXKXJXJXJXJXJXJXJXGXDXdX9.! 1.G.x.W Q e 1 K 7.J.E.R.R.:X:X5X4X4X0X4X,X5X2X.X[.I.I.J.j.:.N o v m n k n B F G K k 1.MXGXJXJXJXJXJXGXGXSXBXSXSXSX",
"KXJXJXJXJXJXJXJXHXDXmXdX^.! -.1.G.x.=.W e e Z 8.J.E.R.R.R.:X5X4X0X0X3X3X3X.X{.[.I.U.J.d.6.N , v B k n n J O.3.3.{ l.mXDXJXJXJXJXGXGXMXgXmXSXSXDX",
"CXCXCXZXZXZXbXlXdXdXsX7XQ.t.-.1.m.x.2.&.e 0 P 8.y.E.R.R.:X:X5X4XqXqX0X3X4X.X{.[.I.K.K.d.5.P 5 j B k b l ' k.B.B.B.k.gXFXGXGXKXKXSXSXkX6XgXfXdXdX",
"VXVXcXxXvXjXyX=X%XiX7X@XS.t.<.1.C.m.e.;.q e ~ y.y.E.R.}.{.:X,X,X0X4X0X0X0X|.|.'.I.P.L.d.5.Z 5 b m k k l O.G.#X#X$X(.XXrXgXpXpXpXgXrXrXtX6X>X^.W.",
"VXVXxX;X&X*X*X=XiXiX7X@XM.9.-.-.m.m.r.~ 1 e 8.y.A.T.T.I. X:X,X0XwXqXqX0X0X3X X'.P.U.Z.a.*.U , j D j l l O._.*XyX#XoXXX+X7X7X9XrXrXtXtXtXtX6X>X/.",
"CXVXxX;X&X&X*XyXiXiX7X#Xb.-.-.-.m.m.! Q + Z 8.y.y.5.&.>.4.s.`.|.,X0X0X,X3X|. X`.h.s.p.p.:.U - M m k k l O.XXyXyX&X$X$X>X6X6X9XrXtXtXtXrX9X6X1X/.",
"VXVXvX;X&X&X*XyXiXtX7XOXe.X.X.-.m.C.r.W O ~ y.8.Z M M 4     g *.`.{.|.].)._ ) A s A j S *.&.7 j b l z l O.B.&X=X#X).XX#X7X6X6XrXrXrXrX9X6X7X^./.",
"VXcXxX;X-X&X*X*XuXuX=X!.q.Q Q X.x.C.a.*.  I y.8.*.:.>.>.>.) S h :.D.I.D._ 7 h S _ ) S a / &.s P L v k k ] k.(.XXB.n.Q.>X7X6X6X6X9X9X9X6X6X<X@XS.",
"CXVXvX;X-X&X*XyXhXsXiXXX+.T R X.m.C.U U r U y.y.8._ ) / ) >.6._ *.I.}.D.>._ _ _ >.>.` _ *.>.h _ &.g v z D O.k.u.%.<.n.OX>X+X>X7X7X7X7X7X>X+XOXM.",
"FXCXcX;X-X-XhXhXjXjXyX$X<.H Q =.e.C.8.U 7 ~ H.E.K.*.6.i./ ).`.p.a.{.3XK.p.p.i.A / ) ) 6.7.>.U 6.) n n b l l B l l G 1.S./././.^.OX!.!.!./.!.~.M.",
"CXCXcXhX&X*XhXjXlXjXyX$X3.J R } z.C.8.^ 7 *.E.R.}.R.g.6.j.). XI.d.R.|.U.h.).h._ i.p.6.D.C.>._ a.&.S ] } ] J B V D J } r.e.b.b./.S.b.b.v.b.M.S.e.",
"CXVXcX;X=XiXsXjXlXjXyXXX@.D G { z.z.8.^ r 8.E.R.:X,X:XY.`. X}.J.J.}.{.K.K.`.`.h.j.j.`.K.C.:.6.g.) L | ,.X.{ E | 1.<.X.O.} | | 1.0.1.X.=.-.0.v.e.",
"xXxX*X$X#X=XuXjXjXiX#Xc.' J C Q z.4.~ 5.I 8.J.1X:X4X4X4X4X4X[.J.R.4X5XL.K..X|. X X X XU.F.:.h.a.K E | X.X.{ Q X.w.k.3.| } L Q <.0.X.G G R Q -.-.",
"W.V.B.OX+XOX%X=X#XXXN.<.o.+.{ { l.4.K ^ ~ ^ H.R.,X,X4X4X4X4XR.d.[.2X{.K.K. X0X.X|. X XF.F.4.a.*.n J T [ { L T =.2.0.X. .] H Q e.z.X.B n k F E B ",
"$.k.B.XXW.W.W.N.n.0.+.2.k.B.k.-.w.1.M *.;.~ H.T.:X5XqX4XqX4XR.A.}.:X{.g.h.|..X.X|.|. XP.s.:.s.) s j d 9 s j j B [ } K D D B E 0.m...; o O o 4 4 ",
"3.+.0.0.+.! R R Q R ] k.B.XXW.q.w.1.b ~ ^ U y.T.].,X4XqXwX0Xg.J.:XqX3XF.h. X.X0X0X|. X).i.>.i.F v 4 3 , : ; + ; > < 2 3 3 < n 1.m.[ < o # O     ",
"T B E T B k b e b q T n.XX#XXXk.l.1.b b R Z r.H.).,X,X4X4X2X8._ Y.4X X>.K. X'.|.|. X).h.:./ P n l j 3 3 > 3 3 3 , , , ; - % 0 } 1.L 2 # # o o o ",
"b 3 0 0 e q e B B b J u.(.XX(.q.l.,.k q q m ~ y.H.].}.{.{.{.L._ ) f.s.j.`.`.`.`. X X).s.&.S k j k 0 3 3 3 > 2 3 3 , 2 , 2 % 3 F L n , , ; X o , ",
"0 < < 9 q e e q 0 q k ' 0.B.x.3.k.3.l n F V M ~ A.T.'.[.R.I.F.f.7.p.).).h.h.U.P.F.).F.>.S m j z j j d j s 3 , , , , ; , , 2 ; 4 j 3 , ; ; o X M ",
"0 < < 1 q 0 1 1 1 9 1 b } 0.<.+.k.3.A %.%.%.v S :.Z.T.A.>.>.5.>.p.f.s.` _ >.I &.F.F.:.P m v j j j 9 3 j j 5 , 2 < , , , , , - , - , % 6 o o   W ",
"0 < < 1 < q 1 1 1 1 q n L +.+.O.i.3.%.%._.(.( M P 4.H.:.I U I I _ f.f.p._ _ a.>.s.f.P m M K F F B B n D l j > , , o % ; % , % , , , + o o o O L ",
"q # < 1 1 1 < 1 q e e Q =.,.-.| u.%.%.(._._.u.a j ) C.a.F.I.g.6.` j.j.j.j.`. XF.4.&.m 4 } r.9.9.-.=.....} E J C V B V b , ; , , , - o o o o O m ",
"e < # 1 < 1 1 e e N Z ~ ;.2.+.{ O.%.%.V.(.%.u.f 5 S *.s.T.[.E.I.K.`.`.`.`.`.].p.&.S , P G.~.Q.G.M.M.S.m.n.v.v.e.e.w.0.[ 4 o - % o o o O O o O j ",
"C q 9 0 q e e e Z Z ~ ~ ;.1.} ] 3.O. .@.O.B b ~ # M P :.L.T.L.U.h.g.f.h.`.`.C.&.S g   S.+XOXOX@XOXOX!.OXOX!.!.OX!.!.G.1.9 + ; o o O . O . . . A ",
"T C G E Q G V N Z I ~ ~ ;.;.} T ,.,.( x k @ e ~ N 7 1 U 7.H.Y.L.p.>.p.U.].F.i.S g . 2.@XOX/.~.OX+X+X+X+X+X+X@X@X^.^.~.;.3 X ; X o o . o . X . J ",
"..-.<.1.-.=.W K Z ~ ~ ~ ~ =.E F +.O.A z j X b ~ Z r # 7 &.f.H.P.A.s.D.`.F.s.I g o M G.oXQ.v.M.OX+X+X+X+X+X+XOXOX!.Q.b.X.< o o o X     X O * $ ( ",
"0.l.b.v.e.1.=.~ Q Z Q ~ W T B D ,.O.J z z * Z ^ ~ Z e 6 7 P &.s.4.>.s.i._ I j . ) *.C.G.e.=.q.!.OXOX@XOXOXOX/.!.Q.M.b.| , % o X O O X . . o $ / ",
"n.M.m.n.x.0.1.-.~ W Q W K K b V O.,.A x f d *.8.5.~ N 7 < 7 N ) ) / / ) S a g &.6.:.4.&./ X.l.~.~.!.^.^././.Q.Q.b.b.e.} o X o .   X   X . * $  .",
"B.M.n.w.0.k.0.2.t.~ ~ ~ ;.;...Q 3.O.A f $ M 5.8.8.8.U N e 5 5 5 5 g s g s S p.f.a.8.7.*.. x 3.S.Q.Q.Q.Q.Q.Q.S.b.b.b.e.Q ; 3 ; ; ; % o . X X $ / ",
"m.0.t.9.9.2.k.k.r.=.&.;.4.l.q.X.O.A d d $ A 8.8.y.A.7.&.N r 7 6 o . - g ) f.h.h.d.6.6.>.2 $ d | l.M.S.S.S.b.b.b.b.l.0.G 3 k n k b k k 0 9 d * ( ",
"9.<.+.+.<.3.3.2.9.=...1.0.x.O.A p * * : & 5 7.y.y.J.Z.d.:.*.) I I ) _ p.h.h.K.h.a.6.7.) . t * . l ,.e.S.b.b.S.e.e.l.0.F 9 l B B J F F D D D p ( ",
"} X.X. .X.X.,.<.3.+.|  . .A * $ t & & & u $ &.Z.J.J.K.L.F.A.f.h.g.h.h.g.F.`.U.D.d.a.4.g $ & = - . $ j  .w.z.v.e.e.e.1.B ; j k n B B F V B m p ( ",
"E ] { { ] ]  .X.|  .A d * $ i i 2 & & & 2 $ g A.J.J.E.I.Y.P.D.F.U.U.K.U.U.'.K.K.A.F.) . y % % * - & $ . x  .0.e.w.w.-.l X 3 k j d j 9 n k z > ( ",
"F E E ' '  .( ( x * * i : : i i 2 & & & & a . ) L.J.J.[.'.I.U.U.h.K.U.K.I.I.D.Z.F.p.$ = - & * % % % & = . . d [ 2.w.=.k . z H D j n F F D F x ( ",
"D J H H A x p t * i : i ; & * : & & & & & a y $ a.I.L.'.[.'.`.U.U.K.K.I.'.U.h.`.D.h . y * & % * % % % % ; : . . 3 /  .k X B L D l D F K K ,.| [ ",
"l D J f & : & i : : > : & & & & : & & & : & a $ S F.L.I.}.'.I.I.I.K.U.U.I.U.I.P.P . a & % % $ % % % - % * % & % $ O 5 s % z D l n D B D J ,.| ] ",
"A x a t a a & : * : i & * & & & : : & % & * a a $ >.L.I.[.Y.U.K.K.Z.L.I.Z.g.F._ . u % & = $ % % % % % % % % % % % % % % ; 2 d j j z k l F E z ( ",
"f i i i & a & % : t t : : : & : : t & * & & t i t & >.D.].[.'.D.g.6.6.f.s.a.) . 2 = & % % & * % $ % % % % % * % % % & $ % % % 4 j j k n m l > ( ",
"t y i i & & & & i i t t & * * : : & & & & & : & t * y f.Y.U.D.a._ U :.s.s.) . y & & & & & * & % = & & % % % * % & % % % % % % % 2 3 , 3 > 3 X A ",
"i : t : & & & t t : t * & t t * : : & t * : & & = a . / C.f.p.>.>._ >.p.S . = & & & & & & & & % % & & % & % * & $ % % % - % & % % ; % o X % X j ",
": : t & & & & & * : : : & * t t : & i & ; : & & & y u . ) f.a.6.p.>.>.S $ = u y t t * & % & - & & & % & & % % & & % & % & % % $ % % % X X X , n ",
": : t : & & : & * : & & t & t t t i i & & & & t t & = a $ ) s.f.i.) g $ y y = & % & * & & & * & & % & % % % % & $ = % % & $ % % % o % o O O 9 F ",
"& & i & t t & & t t t & t & * t & i & i t & t t & i & t & $ / s._ u * a y y y & & & y t & & & & t * % & % & % % % % & = % & & % % X o ; X O , m ",
"t : & t t t t t t t t t t t t t t t i & & t & i & t i & i t * f * * a y y y & y = = & & & & - & = % % & % % & & % & % & % $ & % % o . - j j 9 j ",
"i : t t t t t t t & t & t t t t t i i t : & t & = = & t t t t $ t & a y y y & & & & & & & & = & & & & % & & & & & & % & & % & % * o o . J &.} [ ",
"t t t t t t t t t t t t i t t t t t t t t t t t t & & & t t t a y y y y t t = y & = = & & & & = & & % & $ & & & % & & & $ = & % % o %   m 2.w.z.",
"t t & t t t t t t t t t t t t t t t t & t t i t a t i t & t i i y y y y y y = & u & = & & & - = = & % & & & & & & & & % % & % % % . o . 3 2.z.m.",
"t t t t t t t i t & t t i t t i t t t t i t t t & t t t i & : : y = = & & = y & & & & & & & = = & % & & & & & & & & & % & & % & % % $ %   1.x.C.",
"t t t t : & t t t t i i i t i t t t t t t t t & t t t t t i & : & = = & & y & t = & & & & & = & & & % = & & & & & & & & & % & & % $ o % . &.x.l.",
"t t t t : t t t t t i i t t t i i t i i i i t t t t t i i * i i & y & = t t & & = = = = & = = & = = % % & & & & & & & & & % & % % o $ - . / z.l.",
": t t i & t t t t * t i t i t i t t t i t t t t t t t : t : i & = & = = t = & = = = = & = = & & = % & & t & & & % & % % & & & & % % o -   F z.m.",
"& & = = = = = = y & y y y y y y t i i y a y t t y y = = t y y y & = = = = & = = & & & & & = & = & & & & & & % & & & % & $ & & & % % $ - . s 1.2.",
"y y & y & = & y & & y y y y y y i t y y y y y y y y = y y y y = = = = y & = y y = & & = = = = = & % & & & & & & & & & & % & & % % % o % . X P [ ",
"t & & & t & & t & & y t t t t i i i y y y y y y y y = & = y & = y = = = y = = & = = & & y & & & & & & & & % & % & % & & & & & & % % o % o . s M ",
"y y y y = y & y y & y y y y a y i i y y y y y a y y t y = y & = % & u = = & & = = = = = & = & & & & & & & & & & & & $ & & & % & % % % * o . o - ",
"t y t t & t & & & t t t & t t t i t y y y y y y y y y y & = & = & & & = y y u & = = & = = = = = u & & & % & & & & & % & & & % & = $ - % o o . . ",
"y y t & = y & y y % & & y t y y t i y t y y y y y y y y y = = & & & & = y & y y & = = = = = & = & u & y & & & % & % & % & & % & & % $ % . . o o "
};
