/* XPM */
static char *_8hjw_42zt5[] = {
/* columns rows colors chars-per-pixel */
"80 72 256 2 ",
"   c #030201",
".  c #0B0101",
"X  c #020A00",
"o  c #0E0906",
"O  c #03010B",
"+  c #08070B",
"@  c #140201",
"#  c #1A0200",
"$  c #140A00",
"%  c #190908",
"&  c #0B1303",
"*  c #171707",
"=  c #080416",
"-  c #140318",
";  c #191914",
":  c #0C1313",
">  c #230704",
",  c #261604",
"<  c #271B15",
"1  c #2C1612",
"2  c #1C2316",
"3  c #1B270A",
"4  c #282509",
"5  c #352504",
"6  c #393504",
"7  c #2B221A",
"8  c #282415",
"9  c #2C3315",
"0  c #382B17",
"q  c #0F0E2F",
"w  c #2A1B33",
"e  c #2A2829",
"r  c #353628",
"t  c #2C2A37",
"y  c #362D37",
"u  c #2B3539",
"i  c #373637",
"p  c #302E28",
"a  c #473700",
"s  c #543902",
"d  c #443512",
"f  c #483B30",
"g  c #3D463C",
"h  c #3A4026",
"j  c #4D4206",
"k  c #564700",
"l  c #58530B",
"z  c #545018",
"x  c #685804",
"c  c #785603",
"v  c #6B5214",
"b  c #776B12",
"n  c #48483A",
"m  c #534B2C",
"M  c #6B592D",
"N  c #746329",
"B  c #736C35",
"V  c #3B3643",
"C  c #2E3442",
"Z  c #383E60",
"A  c #473944",
"S  c #3A494A",
"D  c #454948",
"F  c #564A4A",
"G  c #59544A",
"H  c #554C56",
"J  c #4D5356",
"K  c #585758",
"L  c #494F52",
"P  c #665B59",
"I  c #69554A",
"U  c #58635A",
"Y  c #6F6B52",
"T  c #565767",
"R  c #52506C",
"E  c #5E6366",
"W  c #676665",
"Q  c #6E6F73",
"!  c #665F6B",
"~  c #876802",
"^  c #8A7706",
"/  c #937706",
"(  c #917315",
")  c #AB7B02",
"_  c #967A26",
"`  c #8A7634",
"'  c #8A722E",
"]  c #9B732E",
"[  c #88744E",
"{  c #86706F",
"}  c #78886B",
"|  c #9A8702",
" . c #978217",
".. c #918B19",
"X. c #B19412",
"o. c #99853B",
"O. c #97872B",
"+. c #BA9C28",
"@. c #A78A39",
"#. c #A79536",
"$. c #AF932D",
"%. c #B7AD1E",
"&. c #D49D0B",
"*. c #D89D04",
"=. c #CB950B",
"-. c #E89D08",
";. c #DCA502",
":. c #DDAB00",
">. c #D8A60B",
",. c #DAA617",
"<. c #D0AF0C",
"1. c #E3A402",
"2. c #ECAD03",
"3. c #EBAC0C",
"4. c #E7A907",
"5. c #F3AD02",
"6. c #F3AC0B",
"7. c #F7AA05",
"8. c #ECB202",
"9. c #ECBB01",
"0. c #ECB30C",
"q. c #EDBA0B",
"w. c #E5B607",
"e. c #F3B402",
"r. c #F3BA02",
"t. c #F3B30B",
"y. c #F3BB0B",
"u. c #FBB706",
"i. c #E8A718",
"p. c #F6AB17",
"a. c #ECB413",
"s. c #E7B719",
"d. c #F3B313",
"f. c #F7B817",
"g. c #E29D2C",
"h. c #D8A42C",
"j. c #D7A837",
"k. c #D6B535",
"l. c #CDB131",
"z. c #E5A829",
"x. c #F7AE23",
"c. c #EDB625",
"v. c #EBB827",
"b. c #F7B827",
"n. c #E3A433",
"m. c #E5A438",
"M. c #E9B738",
"N. c #F8B938",
"B. c #CF9E33",
"V. c #ECC506",
"C. c #F4CA00",
"Z. c #F8C705",
"A. c #EED505",
"S. c #F5DB02",
"D. c #FDDB02",
"F. c #FDD30C",
"G. c #F8D606",
"H. c #E8C617",
"J. c #F7C918",
"K. c #FAD616",
"L. c #E8D61D",
"P. c #FBE206",
"I. c #D8C730",
"U. c #EAC629",
"Y. c #F5C62A",
"T. c #E9C437",
"R. c #F8C336",
"E. c #F1D62A",
"W. c #FBE324",
"Q. c #D0C40C",
"!. c #988548",
"~. c #90864C",
"^. c #AD9853",
"/. c #B8A553",
"(. c #B2A84C",
"). c #89876A",
"_. c #938E6B",
"`. c #B19968",
"'. c #B9A866",
"]. c #B1AB70",
"[. c #C7A84A",
"{. c #D3B04E",
"}. c #E9B846",
"|. c #FDBE4D",
" X c #FABB47",
".X c #E6BA56",
"XX c #FBBD54",
"oX c #CAB867",
"OX c #D5B869",
"+X c #D8BA77",
"@X c #C6B274",
"#X c #E4B966",
"$X c #C59E59",
"%X c #D5C951",
"&X c #EBC647",
"*X c #F5C44B",
"=X c #FEC34C",
"-X c #F8C949",
";X c #FBD94A",
":X c #EBC658",
">X c #FDC452",
",X c #F9CA57",
"<X c #FDD254",
"1X c #FCDC54",
"2X c #FDD45B",
"3X c #FCDA5D",
"4X c #F5D758",
"5X c #EAD356",
"6X c #FCE75A",
"7X c #F5E851",
"8X c #D9C96A",
"9X c #D7C577",
"0X c #D8D46C",
"qX c #EBC969",
"wX c #F8CB67",
"eX c #FDDB63",
"rX c #F9D566",
"tX c #F5CC73",
"yX c #FDD575",
"uX c #E9D76E",
"iX c #FDE364",
"pX c #FBEA68",
"aX c #FDE674",
"sX c #F5EB6C",
"dX c #B4AC8C",
"fX c #A39E8D",
"gX c #D4B889",
"hX c #E4BB84",
"jX c #D8C887",
"kX c #DACC98",
"lX c #F6DB83",
"zX c #ECD090",
"xX c #F9E890",
"cX c #DCCFAF",
"vX c #ECD1B0",
"bX c #FDE8B5",
"nX c #FEEBAF",
"mX c #F1D7CC",
"MX c #FCEAC8",
"NX c #FFF6CB",
"BX c #F9E8D7",
"VX c #FFF8D9",
"CX c #ECE3CC",
"ZX c #FDEAE5",
"AX c #FFFDE4",
"SX c #FEFDEC",
"DX c #FAF8E9",
"FX c #E9FEF8",
"GX c #FDF6F4",
"HX c #F6FDF3",
"JX c #FDFDF4",
"KX c #FDF6FE",
"LX c #F6FEFE",
"PX c #FEFEFE",
"IX c #F5F6FC",
"UX c #F0DBE0",
/* pixels */
"PXPXPXPXPXPXPXPXPXPXPXPXPXPXPXPXPXPXPXPXPXPXPXPXPXPXJXPXPXJXJXPXPXPXKXJXPXLXLXJXGXPXGXPXPXKXJXPXPXJXSXJXPXJXPXPXPXPXPXPXPXPXPXPXPXPXPXPXPXPXPXPXPXPXPXPXPXPXPXPX",
"PXPXPXPXPXPXPXPXPXPXPXPXPXPXPXPXPXPXPXPXPXPXPXPXKXJXJXPXPXJXJXPXIXKXKXDXKXPXPXJXGXPXPXGXGXPXJXIXPXHXJXJXPXPXPXPXPXPXPXPXPXPXPXPXPXPXPXPXPXPXPXPXPXPXPXPXPXPXPXPX",
"PXPXPXPXPXPXPXPXPXPXPXPXPXPXPXPXPXPXPXPXPXPXPXPXKXJXJXPXKXPXPXPXJXLXSXHXSXNXyX;X5XrXNXSXSXDXLXSXKXPXPXPXPXPXPXPXPXPXPXPXPXPXPXPXPXPXPXPXPXPXPXPXPXPXPXPXPXPXPXPX",
"PXPXPXPXPXPXPXPXPXPXPXPXPXPXPXPXPXPXPXPXPXPXPXPXPXPXPXPXKXPXPXPXJXLXDXPXBXgX{.l.j.}.jXZXJXHXLXJXPXPXPXPXPXPXJXPXPXPXPXPXPXPXPXPXPXPXPXPXPXPXPXPXPXPXPXPXPXPXPXPX",
"PXPXPXPXPXPXPXPXPXPXPXPXPXPXPXPXPXPXPXPXPXPXPXPXPXLXPXPXPXKXJXPXPXPXKXAX<X3.c.N.N.c.3.,XSXPXLXHXPXPXPXPXPXKXPXPXPXPXPXPXPXPXPXPXPXPXPXPXPXPXPXPXPXPXPXPXPXPXPXPX",
"PXPXPXPXPXPXPXPXPXPXPXPXPXPXPXPXPXPXPXPXPXPXPXPXPXJXPXPXPXJXPXPXLXPXLXCXk.f.b.x.b.N.x.k.CXKXLXPXPXJXPXPXPXJXLXPXPXPXPXPXPXPXPXPXPXPXPXPXPXPXPXPXPXPXPXPXPXPXPXPX",
"PXPXPXPXPXPXPXPXPXPXPXPXPXPXPXPXPXPXPXPXPXPXPXPXLXPXPXPXJXJXJXJXHXPXVXY.p.b.b.f.s.x.v.3.R.VXPXHXJXJXJXJXPXJXPXPXPXPXPXPXPXPXPXPXPXPXPXPXPXPXPXPXPXPXPXPXPXPXPXPX",
"PXPXPXPXPXPXPXPXPXPXPXPXPXPXPXPXPXPXPXPXPXPXPXPXJXPXPXPXPXJXJXJXHXPXvXs.f.p.Y.v.H.N.s.b.s.vXKXHXJXJXPXPXPXPXPXPXPXPXPXPXPXPXPXPXPXPXPXPXPXPXPXPXPXPXPXPXPXPXPXPX",
"PXPXPXPXPXPXPXPXPXPXPXPXPXPXPXPXPXPXPXPXPXPXPXPXPXPXPXPXHXHXPXPXJXNXv.x.v.T.OXoX'.%XM.Y.p.b.VXAXPXPXHXHXPXPXPXJXPXPXPXPXPXPXPXPXPXPXPXPXPXPXPXPXPXPXPXPXPXPXPXPX",
"PXPXPXPXPXPXPXPXPXPXPXPXPXPXPXPXPXPXPXPXPXPXPXPXPXPXPXJXLXPXLXPXJXzXc.N.R.<.x 5 5 x ,.v.R.i.cXDXLXLXPXHXPXPXPXPXPXPXPXPXPXPXPXPXPXPXPXPXPXPXPXPXPXPXPXPXPXPXPXPX",
"PXPXPXPXPXPXPXPXPXPXPXPXPXPXPXPXPXPXPXPXPXPXPXPXPXPXPXJXLXPXKXKXMXv.c.U.{.A = 7 e = D k.Y.v.x.MXPXKXPXLXPXPXPXGXPXPXPXPXPXPXPXPXPXPXPXPXPXPXPXPXPXPXPXPXPXPXPXPX",
"PXPXPXPXPXPXPXPXPXPXPXPXPXPXPXPXPXPXPXPXPXPXPXPXPXPXJXPXLXIXKXKXkXz.R.U./ . C p e y   / v.R.x.kXKXPXLXLXPXPXPXJXPXPXPXPXPXPXPXPXPXPXPXPXPXPXPXPXPXPXPXPXPXPXPXPX",
"PXPXPXPXPXPXPXPXPXPXPXPXPXPXPXPXPXPXPXPXPXPXPXPXPXKXPXPXPXKXAXxX4.N.T.[.q C y e e t u q [.R.T.w.xXDXKXPXJXPXPXPXJXIXPXPXPXPXPXPXJXPXPXPXPXPXPXPXPXPXPXPXPXPXPXJX",
"PXPXPXPXPXPXPXPXPXPXPXPXPXPXPXPXPXPXPXPXPXPXPXPXPXPXJXHXPXPXVX+Xf.&Xs.( = u e p e t t = ~ v.R.f.+XVXKXPXPXPXPXPXPXPXPXPXPXPXPXPXIXPXPXPXPXPXPXPXPXPXPXPXPXPXPXIX",
"PXPXPXPXPXPXPXPXPXPXPXPXPXPXPXPXPXPXPXPXPXPXPXPXPXPXPXJXPXAXlXs.R.T.$X- V p p y y 9 p V q `.M.Y.s.lXGXPXJXJXPXPXPXPXPXPXPXPXPXPXPXPXPXPXPXPXJXPXPXPXPXPXPXPXPXPX",
"PXPXPXPXPXPXPXPXPXPXPXPXPXPXPXPXPXPXPXPXPXPXPXPXPXPXJXPXPXZXOXU.Y.v.v w C e r p y r r y w v M.R.H.OXZXPXJXJXLXPXPXPXPXPXPXPXPXPXPXPXPXPXPXPXIXPXPXPXPXPXPXPXPXPX",
"PXPXPXPXPXPXPXPXPXPXPXPXPXPXPXPXPXPXPXPXPXPXPXKXPXKXJXPXDXwXb.Y..X`.= V r i $ s a * r r A = ^.*XN.b.tXSXPXJXGXPXPXPXPXPXLXPXPXPXPXPXPXPXPXPXPXPXPXPXPXPXPXPXPXPX",
"PXPXPXPXPXPXPXPXPXPXPXPXPXPXPXPXPXPXPXPXPXPXPXJXPXPXPXPXBX.XN.R.j.m V t i e ).@X@X).r r y A d {.R.b.#XBXPXJXPXPXPXPXPXPXPXPXPXPXPXPXPXPXPXPXPXPXPXPXPXPXPXPXPXPX",
"PXPXPXPXPXPXPXPXPXPXPXPXPXPXPXPXJXPXPXPXJXPXPXPXIXJXPXVX>Xv.&X&X).; g S 3 ]  XT.XX X] 7 S V 2 } &X&Xc.*XAXKXHXPXPXPXJXJXPXPXPXJXPXPXPXPXPXPXPXPXPXPXPXPXPXPXPXPX",
"PXPXPXPXPXPXPXPXPXPXPXPXPXPXPXPXJXPXPXPXPXJXPXPXPXDXPXCX}.R.&Xl.9 n F V n #XN.T. XN.OXD u D i 9 j.&XY.&XCXPXDXPXPXPXPXJXPXPXPXPXPXPXPXPXPXPXPXPXPXPXPXPXPXPXPXPX",
"PXPXPXPXPXPXPXPXPXPXPXPXPXPXPXPXPXKXJXPXJXPXPXPXKXLXVX:X*X>X:XP p g g 3 [.|.M.N.M. X>X[.8 S n y W .X&XR.XXAXLXJXPXPXPXPXPXJXPXPXPXPXPXPXPXPXPXPXPXPXPXPXPXPXPXPX",
"PXPXPXPXPXPXPXPXPXPXPXPXPXPXPXPXPXPXPXPXPXPXPXPXJXLXvX.XR.,X+.0 D n u Y #X=X XR.N.>X}.OXQ e n F p +.-XR..XcXPXSXPXJXKXPXPXPXPXPXPXPXPXPXPXPXPXPXPXPXPXPXPXLXPXPX",
"PXPXPXPXPXPXPXPXPXPXPXPXPXPXPXPXPXJXJXPXPXHXHXPXVXNX:X>X>XOX! V A J j {.-XM.<X}.T.-X X-X{.z L n y ! OX*X,X}.NXAXPXKXJXPXPXPXJXPXPXPXPXPXPXPXPXPXPXPXPXPXJXPXPXPX",
"PXPXPXPXPXPXPXPXPXPXPXPXPXPXPXPXPXJXJXPXPXHXPXPXAXvX.X=X,X#.t H P t ).tX-X,X*X-X-X-X-X XwX{ C G H t ^.*X*XXXcXSXPXJXJXPXPXJXJXPXPXPXPXPXPXPXPXPXPXPXPXPXPXPXPXPX",
"PXPXPXPXPXPXPXPXPXPXPXPXPXPXPXPXPXLXJXPXKXJXJXPXbX*X X*XoXG g J A M {.1X-X*X-X-XR.,X-X-X1X.Xz L G n L oX-X-X}.bXPXDXJXKXPXPXPXJXPXPXPXPXPXPXPXPXPXPXPXPXPXPXPXPX",
"PXPXPXPXPXPXPXPXPXPXPXPXPXPXPXPXPXPXKXPXPXJXPXPXkX=X|.<Xo.r U L y fXrX-X-X>X<X-XR.<X-XR.-XwX`.C L U u o.-X-X=XkXPXJXPXPXPXKXPXJXPXPXPXPXPXPXPXPXPXPXPXPXPXPXPXPX",
"PXPXPXPXPXPXPXPXPXPXPXPXPXPXPXPXPXPXPXSXJXKXDXnX:XXX,XoXD H G g N 4X;X5X<X<X<X,X<X,X2X5X-X;XrXN D G H S oX>XqX XxXSXKXPXJXPXPXPXPXPXPXPXPXPXPXPXPXPXPXPXPXPXPXPX",
"PXPXPXPXPXPXPXPXPXPXPXPXPXPXPXPXPXLXJXHXKXKXDXjX*XtX*X' L T G g ].3X;X<X<X1X,X<X2X-XrX4X<X-XrX@Xg G K D ' XXtX&XjXDXPXKXSXPXPXPXPXPXPXPXPXPXPXPXPXPXPXPXPXPXPXPX",
"PXPXPXPXPXPXPXPXPXPXPXPXPXPXPXPXPXLXJXJXGXJXxX}.:XyX].S K H D o.3X5X3X<X5X7X;X4X2X;X1X4X4X4X4X3X~.F J K L ].tX:X*XzXSXKXHXHXPXPXPXPXPXPXPXPXPXPXPXPXPXPXPXPXPXPX",
"PXPXPXPXPXPXPXPXPXPXPXPXPXPXPXPXKXPXSXJXJXZXjX-XrX.XB J P T H jX2XeX3X<X3X;X;X4X2X1X<X2XrXeXeXeXjXG K H J B #X2X,XjXZXJXJXSXPXPXPXPXPXPXPXPXPXPXPXPXPXPXPXPXPXPX",
"PXPXPXPXPXPXPXPXPXPXPXPXPXJXPXPXJXJXPXKXAXlX&X,XwX_.G K ! D /.3XeX1X4XiXeX1X6XrXeX7X1XeX3X1X1X1X1X(.F E K D _.wX,X*XlXDXPXLXPXJXPXPXPXPXPXPXPXPXPXPXPXPXPXPXPXPX",
"PXPXPXPXPXPXIXJXPXPXPXPXPXIXPXPXJXJXPXPXBX9X,X,X.XM U E J P lX3XrX1X6XrXeX6XeXeXeX1X6X3X3X6X;X1X6XzXW J U U M .XwX*X8XBXKXPXPXJXPXPXPXPXPXPXPXPXPXPXPXPXPXPXPXPX",
"PXPXPXPXPXPXPXPXPXJXPXPXPXPXPXKXHXPXHXVXtX:XtXtX).G T Y n oXaX7X6XeXeX6X6XeXeXpXpX7XiX6XrXeX7XsX;XpXoXm P W G ).qXrX,XqXDXGXPXPXPXHXJXPXPXGXJXPXPXPXPXPXPXPXPXPX",
"PXPXPXPXPXPXPXPXLXDXPXPXKXJXPXPXHXIXKXbXqXwXtX{.M E W G { lXyXpXpXiXsX7X1XpXaX6XpX6XiX7XpXpXpXaX6XpXzX).K T P M {.rX2X#XCXPXKXIXPXJXHXPXPXJXHXPXPXPXPXPXPXPXPXPX",
"PXPXPXPXPXPXPXPXKXPXJXLXPXJXPXJXPXLXVXqXuXwXqX{ R E T K %XpXsXuXdXdXdXsXsXzX].fXdXkXaXiXlXjXdXdXdXsX6X5XD Q U R Q zXwXtX:XVXPXHXJXPXPXJXPXLXKXPXPXPXPXPXPXPXPXPX",
"PXPXPXPXPXPXPXPXKXPXPXLXPXJXPXJXLXPXvXqXrXyX[.P Q E J fXsX6XpX/.d G D 0X7XY z G m B :XaXxX] m F Y uX7XsXfXE U Q G '.tXyX,XvXLXDXKXPXPXPXJXLXPXPXPXPXPXPXPXPXPXPX",
"PXPXPXPXPXPXPXPXPXJXPXPXLXPXSXLXJXMXrXwXwX9XW W Q E B 0XpXpXuX{ W Q R 0X0XZ Y 0X} Z @X6X%Xf h r l W.W.W.I.v P W W Y kX>XtXrXMXJXPXPXPXPXLXPXLXJXPXPXPXPXPXPXPXPX",
"PXPXPXPXPXPXPXPXPXGXPXLXLXPXJXPXJXvXqXwXyX^.U Q W K ].xXpXaX8XY Q Q ! uX].R } 0X} w ] 7X... 9 X 6 L.K.W.E.[ . p H D `.yXtX:XcXJXPXPXPXPXPXLXLXPXPXPXPXPXPXPXPXPX",
"PXPXPXPXPXPXPXPXJXPXPXPXJXPXKXSXbXwX2XtXjXY W W Q Y uXpXiXaXdXI ].W K sXoXR I I.z   ..W.z 6 v + j A.P.S.P.J.s .   ; i OX2X,X2XMXPXLXKXPXPXPXJXJXPXPXPXPXPXPXPXPX",
"PXPXPXPXPXPXPXPXHXJXPXPXJXKXKXAXhXwXrXyX!.U } Q P gXxX6XpXaX[ ).gXW U uX^.q < I.z X | Q.X ~.O.  j L.G.P.P.W.^.. 2 :   v :X,XwXvXKXLXPXPXPXPXPXJXPXPXPXPXPXPXPXPX",
"PXPXPXPXPXPXPXIXJXLXKXPXKXPXSXyX*.u.}.'.K Q Q Q ^.sXpX6XpXkXR dXoXt q %XX.  4 k.l O ..#.O (.~.  n 5XP.K.S.P.A.b   * <   !.v.R.2XxXSXPXHXSXPXPXPXPXPXPXPXPXPXPXPX",
"PXLXPXPXPXPXPXJXHXPXLXGXPXLXZXj.2.3.M.a X t A C ].6X7XW.7X^.= B b = = ..| X 4 I.l + ..b X ( l   . X.P.S.P.P.W.(.  1     s ,.s.}.+XZXKXPXSXKXKXPXPXPXPXPXPXPXPXPX",
"PXKXPXPXPXPXPXPXPXKXPXLXPXDX=X1.f.a.' = & & O ~ S.P.F.G.P.| * @ . t = k  .O 5 {.v O | b $ $ . 2 X ~ D.K.S.G.K.A./ O 7 *   [ Y.2.2.wXDXKXPXPXKXPXPXPXPXPXPXPXPXPX",
"JXPXPXPXPXPXPXPXPXPXPXPXPXBXB.f.t.*., O & o . k.P.G.F.C.S.I.%X9X_.O O {.[.O $  .6 O X.5X/.+XY   p I.F.Z.D.D.F.G.I.+   $ . @ >.8.5.j.BXPXPXJXPXPXPXPXPXPXPXPXPXPX",
"PXPXPXPXPXPXPXPXIXKXAXHXAXN.2.t.M.B   , < + X.F.F.Z.G.D.A.G.S.P.X.$ * H.P.b $ # > ~ J.F.D.P.|   l L.S.S.A.S.D.F.D.X.  * * X N N.7.2.}.DXKXFXJXPXPXPXPXPXPXPXPXPX",
"PXPXPXPXPXPXPXPXPXKXSXPXvXz.p.d.=.@ & , . d U.A.F.A.G.A.P.G.P.D.L.8X0XH.S.7X9XoXoX&XK.F.S.A.E.gX%XV.D.P.A.A.D.Z.F.L.f   . * . =.u.p.j.vXPXPXHXPXPXPXPXPXPXPXPXPX",
"PXPXPXPXPXPXPXPXJXFXPXMXc.2.d.z.m @ & : . <.D.A.F.l.^.'.'.s.l.`.'./.9XW.<.`.(.[.oXE.S.I.$X^.!.%XW.l./.^.'.OXU.F.V.G.<.@ ; % @ m n.3.e.z.bXPXIXPXPXPXPXPXPXPXPXPX",
"PXPXPXPXPXPXPXPXAXLXIXvXg.2.p.X.  > :   M T.C.F.F./ X $ # X.~ # $ $ $ :.<.. $ % $ | S.| $ # % s H./ @ $ @ # <.F.A.G.E.M O % >   X.d.u.i.kXKXPXPXPXPXPXPXPXPXPXPX",
"PXKXJXPXKXJXHXPXDXPXbX1.p.p.j.0   & o # <.Z.D.H.J.( . z ^ <.(   N N .  .$.. j B & 6 k.5 X ..z @ +.@.  v b : c G.F.Z.G.<.$ : X @ 8 B.d.u.-.bXJXPXJXJXJXPXLXPXGXLX",
"LXPXJXPXPXPXJXPXDXPXzX5.6.x.) @ * ;   Y Y.D.C.Z.K._ . M 3XU.v X ` !.O ( +.  l ^.  6 =.5   #.z . $.O.  B ~.+ v C.Z.Z.C.U.B   8 % . / f.7.7.hXGXHXPXPXPXPXLXPXPXLX",
"KXLXPXKXJXPXPXLXPXnX1.3.x.$.X . $ + $ s.Z.Z.r.Z.J.( X 9 B j.b . z f   +.B.O 0 m O b ,.$ O $.l $ X. .O d z O ( F.Z.9.Z.C.w., O & # X $.d.q.;.bXPXLXKXPXJXKXPXPXKX",
"GXPXJXPXJXKXKXHXIXgX2.p.p.~ X 1 * - ` J.Z.f.Z.Z.J.( X & @ X.' . 5 $ + k.X.O 5 4 + O.z.    $.l   $.( + 4 * O B.C.Z.Z.Z.C.L.[ + * > O ~ 2.q.3.gXZXLXPXPXJXPXJXLXGX",
"JXSXPXPXPXGXJXJXlX1.e.a...+ $ & . s J.Z.r.V.V.9.q.^ . M ,.0.N   ' `   / $.X j !.X j +.4   #.l O $.(   v ] X x Y.V.C.V.y.Z.V.k   & % X #.f.u.2.lXKXSXHXPXPXPXSXPX",
"PXAXPXPXPXKXJXDX{.4.e.3.x   $ ; @ !.Y.r.r.C.V.Z.J.^ . M T.a.N X ` o.  ^ $.  j ^.  6 =.4   $.z O $...  ' @.+ x s.Z.9.Z.r.u.Z.#.  * $ X k i.e.1.[.DXHXIXPXPXLXSXPX",
"PXPXPXLXLXPXGX,X-.p.b.] . * % O c H.e.u.r.Z.y.y.v.b   9 d O.N . ( ' @ ( #.@ s @.o 6 l.a . I 6 @ X._ . v o.  c 0.u.2.Z.e.u.u.V.~   % , O [ b.u.4.,XGXKXPXKXKXJXLX",
"LXJXKXPXPXPXBXj.p.6.-.a   $ ;   [.V.u.u.r.9.f.e.s.' X 9 . _ ` . ] o.  ( $.. x @.1 4 l.#.. @ O N M._ . ' o.  c d.u.J.8.u.u.e.a.B.  % $ + 5 -.e.p.h.ZXPXLXPXPXJXPX",
"PXLXJXPXHXKX X7.u.c.[ O * # @ / y.r.e.e.t.r.e.e.d.e.4.4.6.2.w.:.4.4.w.2.8.<.w.w.:.4.r.f.4.*.>.q.9.2.4.w.w.3.2.9.7.t.q.9.9.9.q.9.^ . % * O [ c.6.1.XXGXGXPXHXPXLX",
"LXPXJXKXPXUXh.u.8.>.# X @ > , B.y.e.8.e.e.9.e.u.p.e.3.d.d.t.a.q.a.w.w.t.0.w.w.s.r.a.e.f.s.w.s.0.V.e.a.q.q.a.e.r.t.8.9.9.9.8.q.y.B.1 > o O # ,.5.e.g.UXHXPXSXPXLX",
"PXLXLXDXZXU.1.p.s.M + * : X ( f.u.7.r.e.d.5.e.e.e.e.u.e.8.a.d.e.r.e.e.e.e.8.e.r.8.6.7.8.y.e.t.3.d.7.e.s.q.e.u.6.t.e.7.p.e.e.t.6.y.( X & ;   N j.p.-.c.GXDXPXPXPX",
"PXHXPXDXmX>.p.6.=.@ ;   : X ( t.7.5.8.2.3.5.5.5.e.5.5.2.8.3.4.e.8.2.8.8.8.8.2.8.8.6.u.0.8.e.7.t.6.5.e.>.w.8.7.6.8.8.5.p.e.8.2.3.w._ X & . * @ =.p.u.>.mXJXPXPXPX",
"JXGXJXNXd.7.0.i.f X @ . & + m {.f.d.s.w.0.f.s.w.a.0.q.s.s.w.9.8.x.e.0.0.0.d.e.x.a.x.2.8.i.0.8.z.t.a.0.6.7.e.a.a.8.t.t.6.i.i.a.f.}.f + &   @   f z.y.1.p.NXGXKXHX",
"HXJXKXkX4.7.0.=.. : @     o @ ~ *.>.,.:.;.1.;.;.;.;.:.;.>.:.:.;.-.1.4.4.:.;.1.-.>.,.;.:.,.1.1.,.1.;.1.1.-.2.:.;.1.1.1.1.i.i.*.*.~ @ . X   . * . =.2.6.4.kXJXPXDX",
"HXKXbX1.p.6.e./   , .   O   %   o * < 0 1 4 7 8 4 8 7 8 5 8 < e 8 4 7 1 8 < 8 3 5 4 4 7 8 4 4 5 4 8 8 8 4 8 8 8 8 7 < 4 4 8 ; $   %   = O + , X ) d.u.p.1.nXPXGX",
"JXKX+Xw.x.5.u.X.X , % O X . + *   . . . . @ .   .     O . . .     X . . . . X X .     . .   . . .           X     .   X X     . & @   O O % , X X.d.7.x.t.gXPXJX",
"LXZX>.u.6.8.s.2.j .   : O   . . o o o o o o o o o o @ o o $ o o o o o @ o o @ o o o o o o o o o o o o o o o o o $ o + o o o o o O X   X = . $ s 4.y.0.6.e.z.BXLX",
"LXZX>.7.5.8.a.t./.M $   O   +           .                     O                                   .               . .         .         O $ m /.f.8.8.2.u.,.BXLX",
"GXBXn.p.x.y.4.0.e.t.*.&.&.*.&.&.&.&.&.&.&.&.&.&.&.&.&.&.&.&.&.&.&.&.&.&.&.&.&.&.&.&.&.&.>.&.&.&.&.&.&.&.&.&.&.&.&.&.&.&.&.&.&.&.&.&.=.*.&.1.2.7.2.2.d.x.6.h.BXGX",
"JXZX-X4.x.e.a.t.r.f.p.c.c.s.v.v.c.c.c.c.c.c.c.c.c.c.c.c.c.c.c.c.c.c.c.c.c.c.c.c.c.c.c.b.c.c.c.c.c.c.c.b.c.c.c.c.c.c.c.c.c.c.c.c.c.b.Y.s.c.b.f.e.d.t.d.x.-.XXZXPX",
"FXPXNX+X{.h.z.m.z.g.m.n.h.z.g.j.n.n.n.n.n.n.n.j.n.n.n.n.n.n.n.n.n.n.n.n.n.n.n.n.n.n.n.n.n.n.n.n.n.n.n.n.m.n.n.n.n.n.m.n.n.n.n.n.m.g.g.n.n.n.h.n.n.z.,.j.+XBXHXFX",
"FXLXAXnXlX=XN.|.>X XXXXX X=XXX>X|.|.|.|.|.=X|.|.|.|.=X|. X|.|.|.|.|.=X|.|.|.=X|.|.|.|.|.|.=X|.|.|.|.=X|.|.|.|.|.|.|.|.|.|.|.XX|.XX X=X=X X|.=XXX=X*X-XyXbXAXLXFX",
"JXPXPXPXPXPXKXPXPXKXPXPXSXJXPXPXPXPXPXPXPXPXPXPXPXPXPXPXPXPXPXPXPXPXPXPXPXPXPXPXPXPXPXPXPXPXPXPXPXPXPXPXPXPXPXPXPXPXPXPXPXPXPXPXPXPXPXGXHXPXPXLXPXKXJXJXPXPXKXPX",
"GXPXPXKXPXPXJXKXPXPXKXKXJXJXPXPXPXPXPXPXPXPXPXPXPXPXPXPXPXPXPXPXPXPXPXPXPXPXPXPXPXPXPXPXPXPXPXPXPXPXPXPXPXPXPXPXPXPXPXPXPXPXPXPXKXPXPXPXJXPXKXPXPXPXKXKXPXLXJXPX"
};
