/* XPM */
static char *_____________[] = {
/* columns rows colors chars-per-pixel */
"100 100 48 1",
"  c #D1D1D1",
". c #D2D2D2",
"X c #D3D3D3",
"o c #D4D4D4",
"O c #D5D5D5",
"+ c #D6D6D6",
"@ c #D7D7D7",
"# c #D8D8D8",
"$ c #D9D9D9",
"% c #DADADA",
"& c #DBDBDB",
"* c #DCDCDC",
"= c #DDDDDD",
"- c #DEDEDE",
"; c #DFDFDF",
": c #E0E0E0",
"> c #E1E1E1",
", c #E2E2E2",
"< c #E3E3E3",
"1 c #E4E4E4",
"2 c #E5E5E5",
"3 c #E6E6E6",
"4 c #E7E7E7",
"5 c #E8E8E8",
"6 c #E9E9E9",
"7 c #EAEAEA",
"8 c #EBEBEB",
"9 c #ECECEC",
"0 c #EDEDED",
"q c #EEEEEE",
"w c #EFEFEF",
"e c #F0F0F0",
"r c #F1F1F1",
"t c #F2F2F2",
"y c #F3F3F3",
"u c #F4F4F4",
"i c #F5F5F5",
"p c #F6F6F6",
"a c #F7F7F7",
"s c #F8F8F8",
"d c #F9F9F9",
"f c #FAFAFA",
"g c #FBFBFB",
"h c #FCFCFC",
"j c #FDFDFD",
"k c #FEFEFE",
"l c #FFFFFF",
"z c None",
/* pixels */
"oooooooooooooooooooooooooooooooooooooooooooooooooooooooooooooooooooooooooooooooooooooooooooooooooooo",
"oooooooooooooooooooooooooooooooooooooooooooooooooooooooooooooooooooooooooooooooooooooooooooooooooooo",
"oooooooooooooooooooooooooooooooooooooooooooooooooooooooooooooooooooooooooooooooooooooooooooooooooooo",
"oooooooooooooooooooooooooooooooooooooooooooooooooooooooooooooooooooooooooooooooooooooooooooooooooooo",
"oooooooooooooooooooooooooooooooooooooooooooooooooooooooooooooooooooooooooooooooooooooooooooooooooooo",
"oooooooooooooooooooooooooooooooooooooooooooooooooooooooooooooooooooooooooooooooooooooooooooooooooooo",
"oooooooooooooooooooooooooooooooooooooooooooooooooooooooooooooooooooooooooooooooooooooooooooooooooooo",
"oooooooooooooooooooooooooooooooooooooooooooooooooooooooooooooooooooooooooooooooooooooooooooooooooooo",
"oooooooooooooooooooooooooooooooooooooooooooooooooooooooooooooooooooooooooooooooooooooooooooooooooooo",
"oooooooooooooooooooooooooooooooooooooooooooooooooooooooooooooooooooooooooooooooooooooooooooooooooooo",
"oooooooooooooooooooooooooooooooooooooooooooooooooooooooooooooooooooooooooooooooooooooooooooooooooooo",
"oooooooooooooooooooooooooooooooooooooooooooooo...o.o.ooooooooooooooooooooooooooooooooooooooooooooooo",
"ooooooooooooooooooooooooooooooooooooooooo...ooo%%%o%ooo..ooooooooooooooooooooooooooooooooooooooooooo",
"oooooooooooooooooooooooooooooooooooooo..o%*4wtttppppttw>*o..oooooooooooooooooooooooooooooooooooooooo",
"oooooooooooooooooooooooooooooooooooo.o*4tgllllllllllllllgt4%..oooooooooooooooooooooooooooooooooooooo",
"oooooooooooooooooooooooooooooooooo.o>wgllllllllllllllllllllg7%.ooooooooooooooooooooooooooooooooooooo",
"oooooooooooooooooooooooooooooooo..*wgllllllllllllllllllllllllp4.oooooooooooooooooooooooooooooooooooo",
"ooooooooooooooooooooooooooooooooo4gllllllllllllllllllllllllllll7o.oooooooooooooooooooooooooooooooooo",
"oooooooooooooooooooooooooooooooo.wllllllllllllllllllllllllllllllwoo.oooooooooooooooooooooooooooooooo",
"oooooooooooooooooooooooooooooooo.%gllllllllllllllllllllllllllllllwo.oooooooooooooooooooooooooooooooo",
"oooooooooooooooooooooooooooooooo..7lllllllllllllllllllllllllllllll>.oooooooooooooooooooooooooooooooo",
"ooooooooooooooooooooooooooooooooooopllllllllllllllllllllllllllllllg%.ooooooooooooooooooooooooooooooo",
"oooooooooooooooooooooooooooooooooo.>lllllllllptptggllllllllllllllll7.ooooooooooooooooooooooooooooooo",
"ooooooooooooooooooooooooooooooooooootlllllg7>%ooooo>7plllllllllllllgoooooooooooooooooooooooooooooooo",
"ooooooooooooooooooooooooooooooooooo.>llll7%..o.oo.o..%wllllllllllllg*.oooooooooooooooooooooooooooooo",
"oooooooooooooooooooooooooooooooooooo.wlp>...oooooooo...wllllllllllll7.oooooooooooooooooooooooooooooo",
"oooooooooooooooooooooooooooooooooooo.*7%.ooooooooooooo.*glllllllllllw.oooooooooooooooooooooooooooooo",
"oooooooooooooooooooooooooooooooooooooo..ooooooooooooooo.wllllllllllltooooooooooooooooooooooooooooooo",
"ooooooooooooooooooooooooooooooooooooooooooooooooooooooo.7lllllllllllto.ooooooooooooooooooooooooooooo",
"ooooooooooooooooooooooooooooooooooooooooooooooooooooooo.4llllllllllltooooooooooooooooooooooooooooooo",
"ooooooooooooooooooooooooooooooooooooooooooooooooooooooo.wlllllllllllt.oooooooooooooooooooooooooooooo",
"ooooooooooooooooooooooooooooooooooooooooooooooooooooooooplllllllllllw.oooooooooooooooooooooooooooooo",
"oooooooooooooooooooooooooooooooooooooooooooooooooooooo.>llllllllllll4.oooooooooooooooooooooooooooooo",
"oooooooooooooooooooooooooooooooooooooooooooooooooooooo%plllllllllllg*.oooooooooooooooooooooooooooooo",
"ooooooooooooooooooooooooooooooooooooooooooooooooooooo.7llllllllllllpoooooooooooooooooooooooooooooooo",
"oooooooooooooooooooooooooooooooooooooooooooooooooooo.>lllllllllllll4oooooooooooooooooooooooooooooooo",
"ooooooooooooooooooooooooooooooooooooooooooooooooooo.*gllllllllllllp%.ooooooooooooooooooooooooooooooo",
"oooooooooooooooooooooooooooooooooooooooooooooooooo.%plllllllllllll>.oooooooooooooooooooooooooooooooo",
"ooooooooooooooooooooooooooooooooooooooooooooooooo.%plllllllllllllwoooooooooooooooooooooooooooooooooo",
"oooooooooooooooooooooooooooooooooooooooooooooooo.%plllllllllllllpooooooooooooooooooooooooooooooooooo",
"oooooooooooooooooooooooooooooooooooooooooooooooootlllllllllllllp*.oooooooooooooooooooooooooooooooooo",
"oooooooooooooooooooooooooooooooooooooooooooooo.otlllllllllllllg%.ooooooooooooooooooooooooooooooooooo",
"ooooooooooooooooooooooooooooooooooooooooooooooo7lllllllllllllg*.oooooooooooooooooooooooooooooooooooo",
"ooooooooooooooooooooooooooooooooooooooooooooo.7lllllllllllllp*.ooooooooooooooooooooooooooooooooooooo",
"oooooooooooooooooooooooooooooooooooooooooooo.>gllllllllllllp*.oooooooooooooooooooooooooooooooooooooo",
"oooooooooooooooooooooooooooooooooooooooooo..%gllllllllllllp%.ooooooooooooooooooooooooooooooooooooooo",
"ooooooooooooooooooooooooooooooooooooooooooo.tllllllllllllp%.oooooooooooooooooooooooooooooooooooooooo",
"oooooooooooooooooooooooooooooooooooooooooo.4llllllllllllp%.ooooooooooooooooooooooooooooooooooooooooo",
"oooooooooooooooooooooooooooooooooooooooooootlllllllllllg%.oooooooooooooooooooooooooooooooooooooooooo",
"ooooooooooooooooooooooooooooooooooooooooo.>lllllllllllg*.ooooooooooooooooooooooooooooooooooooooooooo",
"oooooooooooooooooooooooooooooooooooooooooowlllllllllll4.oooooooooooooooooooooooooooooooooooooooooooo",
"oooooooooooooooooooooooooooooooooooooooo.%pllllllllllpoooooooooooooooooooooooooooooooooooooooooooooo",
"oooooooooooooooooooooooooooooooooooooooo.*lllllllllll*.ooooooooooooooooooooooooooooooooooooooooooooo",
"oooooooooooooooooooooooooooooooooooooooo.4llllllllllpo.ooooooooooooooooooooooooooooooooooooooooooooo",
"oooooooooooooooooooooooooooooooooooooooo.7llllllllllw..ooooooooooooooooooooooooooooooooooooooooooooo",
"ooooooooooooooooooooooooooooooooooooooo..7llllllllll>.oooooooooooooooooooooooooooooooooooooooooooooo",
"oooooooooooooooooooooooooooooooooooooooo.wlllllllllg*.oooooooooooooooooooooooooooooooooooooooooooooo",
"oooooooooooooooooooooooooooooooooooooooo.7lllllllllp%.oooooooooooooooooooooooooooooooooooooooooooooo",
"oooooooooooooooooooooooooooooooooooooooo.>lllllllllg%.oooooooooooooooooooooooooooooooooooooooooooooo",
"oooooooooooooooooooooooooooooooooooooooo.%glllllllll*.oooooooooooooooooooooooooooooooooooooooooooooo",
"oooooooooooooooooooooooooooooooooooooooooowlllllllll>.oooooooooooooooooooooooooooooooooooooooooooooo",
"ooooooooooooooooooooooooooooooooooooooooo.>lllllllll7.oooooooooooooooooooooooooooooooooooooooooooooo",
"ooooooooooooooooooooooooooooooooooooooooooo4w777777w>ooooooooooooooooooooooooooooooooooooooooooooooo",
"ooooooooooooooooooooooooooooooooooooooooooo..........ooooooooooooooooooooooooooooooooooooooooooooooo",
"oooooooooooooooooooooooooooooooooooooooooooooooooooooooooooooooooooooooooooooooooooooooooooooooooooo",
"oooooooooooooooooooooooooooooooooooooooooooooooooooooooooooooooooooooooooooooooooooooooooooooooooooo",
"oooooooooooooooooooooooooooooooooooooooooooooooooooooooooooooooooooooooooooooooooooooooooooooooooooo",
"oooooooooooooooooooooooooooooooooooooooooooooo...ooooooooooooooooooooooooooooooooooooooooooooooooooo",
"oooooooooooooooooooooooooooooooooooooooooooo..o%%oo..ooooooooooooooooooooooooooooooooooooooooooooooo",
"oooooooooooooooooooooooooooooooooooooooooo..*7ppggt4%.oooooooooooooooooooooooooooooooooooooooooooooo",
"ooooooooooooooooooooooooooooooooooooooooooo4glllllllp>.ooooooooooooooooooooooooooooooooooooooooooooo",
"oooooooooooooooooooooooooooooooooooooooooowlllllllllll4ooooooooooooooooooooooooooooooooooooooooooooo",
"oooooooooooooooooooooooooooooooooooooooo 4llllllllllllg*.ooooooooooooooooooooooooooooooooooooooooooo",
"ooooooooooooooooooooooooooooooooooooooo.ogllllllllllllltoooooooooooooooooooooooooooooooooooooooooooo",
"ooooooooooooooooooooooooooooooooooooooo.4llllllllllllllg>.oooooooooooooooooooooooooooooooooooooooooo",
"oooooooooooooooooooooooooooooooooooooooowlllllllllllllll4.oooooooooooooooooooooooooooooooooooooooooo",
"ooooooooooooooooooooooooooooooooooooooootlllllllllllllll7.oooooooooooooooooooooooooooooooooooooooooo",
"oooooooooooooooooooooooooooooooooooooooowlllllllllllllll7.oooooooooooooooooooooooooooooooooooooooooo",
"ooooooooooooooooooooooooooooooooooooooo.7lllllllllllllll>.oooooooooooooooooooooooooooooooooooooooooo",
"ooooooooooooooooooooooooooooooooooooooo.*glllllllllllllg%.oooooooooooooooooooooooooooooooooooooooooo",
"oooooooooooooooooooooooooooooooooooooooootlllllllllllll7.ooooooooooooooooooooooooooooooooooooooooooo",
"oooooooooooooooooooooooooooooooooooooooo.*plllllllllllt%.ooooooooooooooooooooooooooooooooooooooooooo",
"ooooooooooooooooooooooooooooooooooooooooo.*plllllllllt%.oooooooooooooooooooooooooooooooooooooooooooo",
"oooooooooooooooooooooooooooooooooooooooooo.o7plllllp4o.ooooooooooooooooooooooooooooooooooooooooooooo",
"ooooooooooooooooooooooooooooooooooooooooooooo%>744*%.ooooooooooooooooooooooooooooooooooooooooooooooo",
"ooooooooooooooooooooooooooooooooooooooooooooo.......oooooooooooooooooooooooooooooooooooooooooooooooo",
"oooooooooooooooooooooooooooooooooooooooooooooooooooooooooooooooooooooooooooooooooooooooooooooooooooo",
"oooooooooooooooooooooooooooooooooooooooooooooooooooooooooooooooooooooooooooooooooooooooooooooooooooo",
"oooooooooooooooooooooooooooooooooooooooooooooooooooooooooooooooooooooooooooooooooooooooooooooooooooo",
"oooooooooooooooooooooooooooooooooooooooooooooooooooooooooooooooooooooooooooooooooooooooooooooooooooo",
"oooooooooooooooooooooooooooooooooooooooooooooooooooooooooooooooooooooooooooooooooooooooooooooooooooo",
"oooooooooooooooooooooooooooooooooooooooooooooooooooooooooooooooooooooooooooooooooooooooooooooooooooo",
"oooooooooooooooooooooooooooooooooooooooooooooooooooooooooooooooooooooooooooooooooooooooooooooooooooo",
"oooooooooooooooooooooooooooooooooooooooooooooooooooooooooooooooooooooooooooooooooooooooooooooooooooo",
"oooooooooooooooooooooooooooooooooooooooooooooooooooooooooooooooooooooooooooooooooooooooooooooooooooo",
"oooooooooooooooooooooooooooooooooooooooooooooooooooooooooooooooooooooooooooooooooooooooooooooooooooo",
"oooooooooooooooooooooooooooooooooooooooooooooooooooooooooooooooooooooooooooooooooooooooooooooooooooo",
"oooooooooooooooooooooooooooooooooooooooooooooooooooooooooooooooooooooooooooooooooooooooooooooooooooo",
"oooooooooooooooooooooooooooooooooooooooooooooooooooooooooooooooooooooooooooooooooooooooooooooooooooo",
"zzzzzzzzzzzzzzzzzzzzzzzzzzzzzzzzzzzzzzzzzzzzzzzzzzzzzzzzzzzzzzzzzzzzzzzzzzzzzzzzzzzzzzzzzzzzzzzzzzzz"
};
