/* XPM */
static char *oujwa_6asju[] = {
/* columns rows colors chars-per-pixel */
"72 86 254 2 ",
"   c #030303",
".  c #050806",
"X  c #05050A",
"o  c #0A040B",
"O  c #060A0A",
"+  c #0B0C0C",
"@  c #0A0403",
"#  c #0C110E",
"$  c #05160A",
"%  c #11120E",
"&  c #19160D",
"*  c #0C0D13",
"=  c #0E0F19",
"-  c #080613",
";  c #110E14",
":  c #160C1A",
">  c #0E1312",
",  c #0E1915",
"<  c #0E111B",
"1  c #0D1919",
"2  c #121414",
"3  c #131915",
"4  c #13141B",
"5  c #1B121E",
"6  c #151C1A",
"7  c #191C1C",
"8  c #1B1915",
"9  c #160E09",
"0  c #231B19",
"q  c #210F0D",
"w  c #16211D",
"e  c #1A221E",
"r  c #1D291F",
"t  c #0D2713",
"y  c #26241C",
"u  c #352F1E",
"i  c #161621",
"p  c #1D1322",
"a  c #1B1B23",
"s  c #181B27",
"d  c #211524",
"f  c #231A24",
"g  c #221729",
"h  c #241B2B",
"j  c #2A1E29",
"k  c #291D31",
"l  c #1B2523",
"z  c #1D2925",
"x  c #1D2C29",
"c  c #192325",
"v  c #1E332B",
"b  c #1F3132",
"n  c #222524",
"m  c #222B26",
"M  c #222D2A",
"N  c #2A2D2B",
"B  c #2B2727",
"V  c #342B28",
"C  c #24322D",
"Z  c #2A342E",
"A  c #273829",
"S  c #3B3529",
"D  c #282A31",
"F  c #362C35",
"G  c #253532",
"H  c #2A3532",
"J  c #263A34",
"K  c #2B3B35",
"L  c #2C3D3A",
"P  c #29393A",
"I  c #323B35",
"U  c #333D3A",
"Y  c #3B3437",
"T  c #433A2A",
"R  c #453937",
"E  c #4F3834",
"W  c #0F4A38",
"Q  c #2E433C",
"!  c #2A4237",
"~  c #33443D",
"^  c #374538",
"/  c #2D422F",
"(  c #4A453A",
")  c #55483C",
"_  c #343B42",
"`  c #463B44",
"'  c #5A3C43",
"]  c #402D40",
"[  c #693E54",
"{  c #344443",
"}  c #344A43",
"|  c #3A4C45",
" . c #3B4D4B",
".. c #384747",
"X. c #3C534B",
"o. c #395248",
"O. c #3D5854",
"+. c #2B4F45",
"@. c #396C5A",
"#. c #2B6052",
"$. c #4A4548",
"%. c #5C4D4A",
"&. c #574846",
"*. c #42544C",
"=. c #47574A",
"-. c #5A5648",
";. c #574B55",
":. c #425553",
">. c #445B53",
",. c #4B5C55",
"<. c #485B5A",
"1. c #5B5755",
"2. c #474A54",
"3. c #664A4D",
"4. c #64574D",
"5. c #654753",
"6. c #635354",
"7. c #6B5B5C",
"8. c #675759",
"9. c #735C5B",
"0. c #744657",
"q. c #4C6356",
"w. c #4C635B",
"e. c #46645A",
"r. c #536B5E",
"t. c #54665A",
"y. c #507357",
"u. c #696257",
"i. c #73645C",
"p. c #76685C",
"a. c #607A5F",
"s. c #6A5A64",
"d. c #755B65",
"f. c #76576B",
"g. c #4B6766",
"h. c #546C62",
"j. c #536666",
"k. c #577569",
"l. c #597774",
"z. c #51716F",
"x. c #6C6365",
"c. c #7D6B6D",
"v. c #776667",
"b. c #63796C",
"n. c #7C6C73",
"m. c #796979",
"M. c #667C73",
"N. c #7B706E",
"B. c #465E63",
"V. c #84655C",
"C. c #88566C",
"Z. c #836D6B",
"A. c #866A66",
"S. c #87756A",
"D. c #836D74",
"F. c #856C78",
"G. c #837275",
"H. c #8B7574",
"J. c #85747B",
"K. c #8B757B",
"L. c #8D7A7C",
"P. c #8A7A76",
"I. c #937C7C",
"U. c #957976",
"Y. c #946A76",
"T. c #5A8379",
"R. c #6A8579",
"E. c #678779",
"W. c #738479",
"Q. c #6D947A",
"!. c #8A8477",
"~. c #97837C",
"^. c #8D806F",
"/. c #A5867E",
"(. c #757886",
"). c #5F7D85",
"_. c #8C7B83",
"`. c #887785",
"'. c #937D82",
"]. c #987B86",
"[. c #876F85",
"{. c #A6768B",
"}. c #678787",
"|. c #748E83",
" X c #6B9486",
".X c #77968A",
"XX c #789C93",
"oX c #6D9295",
"OX c #7BA699",
"+X c #6F96A5",
"@X c #7BA6A7",
"#X c #958284",
"$X c #9A8585",
"%X c #94838C",
"&X c #9B848A",
"*X c #9B8989",
"=X c #849A8C",
"-X c #9B8894",
";X c #8F8D8C",
":X c #A38B8D",
">X c #A48787",
",X c #A38D94",
"<X c #A98C97",
"1X c #A59193",
"2X c #AB9295",
"3X c #AB949C",
"4X c #A8959B",
"5X c #B1949B",
"6X c #B19497",
"7X c #AE9094",
"8X c #89A89A",
"9X c #90AC97",
"0X c #AD9AA4",
"qX c #AC96A6",
"wX c #B39AA4",
"eX c #B49CAB",
"rX c #B497A5",
"tX c #AE93AD",
"yX c #83AAA6",
"uX c #8BB7A8",
"iX c #94B3A3",
"pX c #99BAA9",
"aX c #8CB3B1",
"sX c #A4BAAB",
"dX c #AFADB1",
"fX c #99C3B2",
"gX c #A7C8B7",
"hX c #B8C7BB",
"jX c #A8CAB4",
"kX c #B9D8C7",
"lX c #ADD2CC",
"zX c #ABD8EF",
"xX c #BAE7FC",
"cX c #A5D2DB",
"vX c #C4D7CB",
"bX c #CAD4D1",
"nX c #C8E5D6",
"mX c #D4E9DB",
"MX c #CBEBD2",
"NX c #D7ECE4",
"BX c #DBF6E6",
"VX c #C2EEFB",
"CX c #C9F2FD",
"ZX c #D7F9FF",
"AX c #CBEEE8",
"SX c #E6F7EA",
"DX c #ECFDF3",
"FX c #E4FBFF",
"GX c #E9FBF8",
"HX c #F3FDF5",
"JX c #F5FEFB",
"KX c #FEFEFE",
"LX c #E0EBE8",
"PX c #93BCC0",
/* pixels */
"x x x x x x x x x x c c 6 1 , { w._ - O O O X O . O @ . o . . . o @ . . . . @ O @ O . @ O       t y.Q.jXvXBXDXHXKXHXKXKXKXKXKXKXSXmXhX9Xy.r / -.",
"x x x x z z z z c c 6 1 , + + { <._ + O O @ . X @ O . . O @ . . @ .   . . . . . O O . &   *.=XjXMXBXDXHXKXKXKXKXKXKXKXHXSXvXjX=Xy.A .   . I ( u.",
"b x x c c c w 6 , , > * * O X { B.{ O + O . O . . . . . . . O . . . . . . O . O O + # , ! pXBXDXHXHXHXKXHXKXKXDXmXvXpXQ.y.t     6 U *.q.q.t.t.a.",
"x z c w 6 1 > # $ O + + + O . { g.} * + + . X O @ . X . O . O O + O O + + + # + + # 3 w ^ iXMXDXHXHXDXSXBXhX9XE.=.$ $   A o.q.r.r.r.r.r.r.y.t.t.",
"w 6 3 , # + + + + + + + * * . { B._ < + O O O O O O . O + + * # 2 # # > % # % % > * > w r y.pXvXkXjX=Xa./       I *.q.r.y.r.r.r.r.y.=.,.=.*.^ ( ",
"> * O + + O O + * $ + * + > O { j. .< + # O + O + O O + # 2 , 3 > 2 2 2 3 2 2 2 , , > , t $ A ! t     X l K { X.>.q.w.w.q.q.,.>.X.~ I Z n e r I ",
"O O + + # # + # # + + $ + * $ _ j. .1 > # # > > # # # # , 3 6 3 3 3 , , , , , , , , 6 1 e l 6 * e H L Q ! K K ~  .*.X.| ~ Q A C z l l l z m r ^ ",
"+ + + # # > # # > > 1 # # 1 # { B.O.6 , 3 , , , , , , , 2 3 6 3 , , , , 3 3 6 , w l l z z v C G A Z A J K G G v J G C x z m x x M C M M M C m I ",
"# + # + > , , , , > , , > , 1 ..j.<.x s i e c c r w w , 1 w w w 6 w c e c x z z z v v x x C v v C G K A C M x c l l c z M M G C C G M M C Z m K ",
"# # # , 3 8 6 w , 6 6 6 w w 6 ..j.B.G b x x b v z l w w l l l z x J ! J G J J A v v C G C C C C C v x x M x l z l z m M x D M M C M z z z l e N ",
"6 # , , 6 w c e e e l z x x v X.z.j.! v b v v Q ! ! ! ! v v C v ! } } Q Q Q J J C v v C x x x x x x x z c z l z z M M M M M M z l c w e 7 w 6 m ",
"! , , 6 c c x x v b G G J J P O.z.g.O.@.e.T.T. X X}.z.O.o.Q ! J Q  .o.o.~ G J H x x x x x z x z z l l l l l l l x l z l z l c 6 6 6 6 3 6 3 3 l ",
"! w c e x b J P Q Q ~ +.o.O.@.z.T.XXOXOXuXfXfXfXuXOXQ.y.e.o.! Q Q ~ | } J M x x z r m z z l z z x x m z z z l l e e e e l 6 7 6 2 2 3 2 # 2 2 a ",
"C z x v J ! +.o.O.e.T.T.oXOXuXOXoXfXlXlXgXlXfXlXuX8XOXl.e.O.Q ~ Q Q Q J G x x z z l l z m z l z m C C M z l e 6 6 7 w 7 3 3 2 3 # 2 2 2 2 2 3 m ",
"b +.} X.@.g.T.Q.XX@XaXlXkXnXAXAXfXfXlXlXlXgXfXfXpXOXE.@.X.} ! L C n e 6 6 6 a c c c l l l l 7 e z Z K K M l 6 3 3 2 2 2 2 2 2 2 % 2 2 2 # 2 6 N ",
"P P +.@.T.OXfXlXnXAXBXJXJXKXKXJXMXfXfXgXfXfXOXQ.y.q.~ ! K M 7 ; O o O + * * * > 4 6 7 a 6 6 6 6 z K U U Z 6 3 # 2 , 2 2 2 2 2 2 2 2 % % > # 8 Z ",
"@.}.iXhXnXLXHXJXKXKXKXKXKXKXKXKXGXiX X}.z.@.O.o.O.X.! n % . O + + * * + + * ; 4 4 4 4 4 6 7 3 6 l K ~ ~ Z 7 3 2 2 2 2 2 2 2 2 3 # % % % % # 7 I ",
"NXGXKXKXKXKXKXKXKXKXKXKXKXKXKXJXGX.Xg.g.e.z.k.z.e.K # . % 6 2 4 i s 8 2 2 = * 8 4 4 i i 4 4 7 6 m J ~ I A e 3 > 2 4 3 3 2 2 2 3 2 2 2 2 2 2 7 I ",
"KXKXKXKXKXKXJXKXKXKXKXKXKXKXJXJXkXE.z.z.T.M.k.o.n @ 2 3 8 4 4 < 4 4 = * > = = ; 4 5 8 i a 4 6 l M I Q ! Z e 3 2 , 6 6 6 6 6 3 3 2 2 2 2 2 , 6 I ",
"KXKXKXKXKXKXKXKXKXKXSXNXvXsX8X}.l.oXOXiXr.C w   . ; > < p 2 > > + * * < 8 4 4 4 4 4 = 4 4 4 4 i M K ^ I A w 3 # > 8 l 6 7 a 6 6 6 3 2 2 2 # w U ",
"JXKXKXKXHXSXmXkXfX8XQ.@.@. XpXsXsXNXHX8X  @ . 8 3 2 ; 8 ; ; ; ; * 2 4 8 4 s a s i i 6 4 2 = ; 4 w M H H m e 3 # , l M M m z l c a 6 3 2 2 2 7 U ",
"NXbXgX8X|.l.@.+.+.+.+.8XBXJXKXKXKXKXmXe   n = 2 % + 2 > # * % ; 4 i s s s i i i 4 p a s = * > 4 , a n M n e 6 + 3 n C H C C M M z n 7 7 3 3 8 N ",
"@.W W W +.o.O.>.:.{ Q.BXJXKXKXKXJXLXM.  e + % + + 2 9 + + % % ; 4 p p s a p ; = 4 4 i i i = + * 4 4 3 6 7 8 3 * 6 x H K H G P G M M M c e e 7 M ",
"}  .O.O.o.o.} { +.t .XDXKXKXKXJXSXm.  n + ; % % % # % & 2 2 * + > + ; > 1 p s s s : 4 4 4 8 ; = 4 4 2 2 % 2 2 , 6 z G J P H P G G H M M m m c z ",
" .} Q +.+._ ! P J x O.nXJXKXKXKXiX  n 2 # 2 % 6 8 8 8 0 y 0 0 0 2 8 5 5 7 p f a p i 4 4 2 ; ; 4 < 4 i p 4 3 , 6 6 l C C M G H G H H L ..P x M M ",
"P P L J L L _ P ! ! v k.jXvXvX9XO 2 8 2 > % 8 0 y V R R &.3.&.R V B B B B D n p ; ; * * 8 p 2 4 = 4 6 6 4 3 6 6 e l z z x x G M G U  .2._ _ M M ",
"} J x b } +.} +.~ ! P           e 2 > 2 % & y u ( %.4.p.A.H.Z.i.3.' R R ` ] ` _ n 4 + O * 2 4 4 + ; p i l 3 e w e n m M M M m M M L  .<.O._ x M ",
"E.k.k.T. XOXoX}.@.+.W @.k.t.Z Z 8 + 2 % & y S -.i.A.S.U.~.$X*X~.K.Z.8.%.' &.` ` F f 8 o + = 4 i < * 6 < D { H z l l c l l c z M D P  .<.O._ D c ",
"OX@XuXlXlXlXkXkXkXnXmXLXDXvX$ z 7 3 ; + 0 S -.p.S.S.^.^./.>X:X1X2X,X'.G.v.7.%.R Y V f 5 . + 2 4 8 * i : D l.1.L M N F N Z Z m l m Z L | | Z n e ",
"nXmXSXSXDXJXKXKXJXKXKXKXKXbXl r 6 2 2 % 0 ( p.p.S.S.S.^./.7X:X2XqXqX3X,X%XK.K.d.&.R S V f @ ; 4 4 * 4 s + M..XX.      @ @   l M n M K I Z m n n ",
"KXKXKXKXJXKXKXKXKXJXKXKXKXbXr w w 2 > 2 u ) p.^.^.^.^./.:X1X2X2X3X3X3X1X*X,X,X&XF.d.' R R 8 . 5 4 4 4 l   hXSXmXvXhXsX9X=XW.K 6 Z M A Z C m z l ",
"KXKXKXKXKXKXKXKXKXKXKXKXKXdX  Z 8 % 2 8 B ) p.^.^.~./.1X2X6X6X4X5X5X4X2X3XwXrX<X:X].c.;.R Y   4 6 4 4 n @ bXKXKXKXKXKXKXKXHXhX^ K ~ I H C M M M ",
"KXKXKXKXKXKXKXKXKXKXKXKXKXdX! A > 8 > & u ) p.N.S.P.$X*X4X0X0XeXeX0X0XeXeXeXeX4XtX].].(.` ] p 2 5 4 2 c   vXKXKXKXKXKXKXKXKXSX=X  Z e J I H C Z ",
"KXKXKXKXKXKXKXKXKXKXKXKXSX=X| A 6 2 2 + S -.=.( -.1.x.`.%X,X0XeXdXdXeXeXqXtXeXqX{.[.%X`.8.R B 4 a 2 4 a @ bXKXKXKXKXKXKXKXKXJXsX,.b.t.A z G Z Z ",
"KXKXKXKXKXKXKXKXKXKXKXKXSXjX^ z 7 8 2 n ^ V . . X X O D 8.'.*X3XrXeXeXqX-X]._.`.(.(.s.s.;.;.Y p a 8 % f   dXKXKXKXKXKXKXKXKXJXGXSXSXDXdXJ Q } X.",
"KXKXKXKXKXKXKXKXKXKXKXKXHXhX( z 6 i 8 I ( Y Y $.$.Y f o D x._.&X:X<X,X&X(.;.2.s < < s k D 2.` n n p 2 * + hXKXKXKXKXKXKXKXKXKXKXKXKXJXSXW.$ ! +.",
"KXKXKXKXKXKXKXKXKXKXKXKXSXiXb.~ * 5 7 ( -.t.v.G._.L.n.8.R &.c.K.'.-X].J.;.F Y _ ` 2.;.2._ D ` F f 4 0   |.DXKXKXKXKXKXKXKXKXKXKXKXKXJXJXsXa.hXvX",
"KXKXKXKXKXKXKXHXHXSXSXmXfX.X=Xy.O 6 y u.p.v.S.P.J.J.J.n.d.8.s.J.%XqX-XJ.5.s.n.J.].].].`.m.;.$.$.n 8 4   sXHXKXKXKXKXKXKXKXKXKXKXKXKXKXJXvXvXHXKX",
"KXKXKXKXKXKXJXDXBXfXQ.y.y.8X=X=.8 2 V p.p.p.8.` _ F ` ` 6.7.p.U.1X0X,X_.D.n.d.s.f.(.[.[.].(.s.8.Y +   U lXJXKXKXKXKXKXKXKXKXKXKXKXKXKXDXnXnXHXHX",
"KXKXKXKXKXKXKXKXJXDXAXkXfX9XN.y 7 O $.W.c.6.R $.m.h - (.s.7.p.S.2XwX:X].D.8.;.h k _ ;.;.n.[.G.c.$.X   ~ M.sXkXhXsXsXLXKXKXKXKXKXKXKXJXJXmXkXDXKX",
"KXKXKXKXKXKXKXKXKXKXJXDXnXjX!.& B @ 1.!.!.^.P.G.F.s.m.-X`.Y.V.U.2X5X3X>X].[.[.;.X (.(.] s.`.;X(.;.@ B 8.=.$ $ t   =.mXJXKXKXKXKXKXKXKXKXBXkXMXmX",
"KXKXKXKXKXKXKXKXKXKXJXDXBXjX!.Z V 9 u.!.~.1X1X1X<X,X-X-X:XI.V.S.7X6X<X<X<X{.`.[.[.[.].[.`.-X4X%X8.@ 5.s.&.S m F K e bXJXKXKXKXKXKXJXKXJXDXBXMXMX",
"JXKXKXKXKXKXKXKXKXKXJXDXBXfX=.( Y @ u.!.~.*X1X4XqXtXqXwX&XU.V.Y.>X6X5X3X7X5XtXtXtXtXtXtX0XqXqX;Xs.- 0.f.6.F N H I   sXJXKXKXKXKXKXKXKXJXDXSXBXSX",
"JXJXKXKXKXKXKXKXKXKXKXDXnX=X( -.T @ 1.!.~.*X1X1X4X<XwX6X>XS.V.S.{.<X7XrX5XrXeXeXdXdXtXqXqXqX-X%Xs.: n.D.8.Y _  .| { jXSXHXKXKXKXKXKXKXHXBXmXBXSX",
"KXJXKXKXKXKXKXKXGXJXBXnX9XT.) y.S @ ) S.~.:X1X1X6X6X6X7XU.V.V.A.U.U.:X<X5XwXeXeXeXtXeXtXeX0X1X`.2.p F.F.;._ B.g.g.e.pXBXHXJXKXKXKXHXSXkXgXBXSXSX",
"KXKXJXJXJXJXGXFXAXnXgXuXQ.y.q.4.( & ) N.!.$X:X2X7X7X6X7XU.4.V.U./.{.{.:X<XrXrXrXeXeXtXrX0X0X-Xn.Y d '.L.2.:.l.).}.z.XXnXDXDXDXSXSXSXmXsXiXjXjXsX",
"JXJXFXGXFXZXZXVXcXOX8X.XQ.t.-.u.) ) S u.S.U./.2X7X6X6X7XA.V.U.{.5XrX7X{.{.rXrXeXeXeXeXtX0X<X-Xf.@ %.&XJ.D B.).+X+X}.}.=XpXpXpXpXpXpXpXpXfXiX8X|.",
"FXFXGXGXFXFXZXCXcXyX8X=XR.y.=.4.4.) T 4.p.P.~.:X7X6X7X/.V.V.A.U.rXrX<X{.&XrXeXrXeXeXrX5X<X,XJ.` k (._.f.D z.).+X@XoXoX|.=X8X8XiXpXpXpXsXpXpX9XXX",
"FXFXFXGXFXFXZXCXlXaXyX.XM.q.o.=.4.3.T ) p.S.~.>X:X7X6XU.3.p.E C.[.Y.c.{.{.5XwXrXrXqXqX3X-X%Xx.Y 8.K.].s.b g.).+X+XoX}.|.8X8XiXiXiXpXpXpXpXiX8X;X",
"FXFXFXFXFXFXZXZXcXaXyXoXl.q.o.=.t.1.u E 4.V.S.~.:X7X7XH.) E 0 E 5.9.' 5.].5X5XwXrXqX<X,X$XD.5.d.].U.K.` c B.).).).).).}.XX8X8X8XiXiXiXiXiXiX8X.X",
"FXZXFXFXZXFXZXCXcXyX@X|.k.O.~ X.g.h.( ( 4.p.S.~.~./././.U.A.d.v.F.].].F.{.2X3XwXwX6X2X,XL.v.s.&X>X].8.f D ..B.g.z.B.z.M..X8X8X8X8X9XiX9X8X8X8X=X",
"CXZXZXZXZXZXCXCXcXaXyXoXl.o.Q ^ t.h.q.=.-.u.S.^.U./.~.~.>X~.$X2X3XqX0X2X2X6XrXwX5X3X<X&XJ.s.f.3X:Xs.1 x x P ........O.z.R.W.|..XXXXX.X.X.X.X.X|.",
"VXVXxXxXCXCXxXxXcXaX@XoXz.o.Q } <.j.,.q.y.4.p.^.U.^.!.$X$XU.{.7X7X<X7X3XqX<X3X2X5X4X,X#Xn.7.$.x.s.B H ~ L L J G b G ..w.k.b.b.M.R.R.R.E.R.R.R.R.",
"xXxXxXzXxXxXxXxXcXaX@X}.g. .K ~ <.h.=.( -.4.u.p.N.S.I.~.H.A.A.Y.{.U.U.<X<X3XqX1X4X1X-XK.N.x.~ t 1 G Q |  .} ~ ! ~ } *.,.,.w.w.h.h.k.h.h.k.k.b.M.",
"zXzXcXzXxXzXzXcXaXaXXXT.e.Q J Q >.r.=.^ ) 4.u.p.p.p.p.7.3.' 5.0.0.f.C.0.c.].&X,X:X*X'.J.N.1._ G G P { ..| | ~ ~ | >.>.:.*.| | *.,.,.*.} ..*.,.t.",
"+X+X).+X@XfXaX@XyXXX}.z.X.~ Q ~ e.y.( / ( -.-.p.p.8.6.5.[ 5.[ [ 0.C.0.0.[ ;.d.I.*X*XL.G.x.` I M G P { ....{ ! ~ X.*.:. .U L ! } ,.w.*.I K U ..*.",
"e.e.g.M.E.Q. X X}.l.g.e.o.X.o. .,.,.$.A S ) -.u.i.p.A.H.C.C.{.{.{.{.{.C.[.].F.I.*X#XL.N.1.G N M M H L ~ L P H L | *.*.{ L H G { w.j.*.C m M H I ",
"e.>.w.z.k.l.y.t.,.*.o.O.>.e.w.w.<.>.I B u ^ -.u.i.v.A.p.' [ C.C.[.{.C.Y.Y.{.I.I.$XI.J.v.1.M n c z n l 6 w 6 w l H I K M m m x { 1.<...6 # # 2 6 ",
">.| o.X.X. ./ Z M x K >.r.k.k.g.w.,.^ B r u ( -.4.p.V.p.4.3.' E [ ' [ C.U.$X].#X#XL.c.8.1.N 7 m n a 7 4 4 3 > > 2 8 4 3 3 2 3 H ,.,.U 7 8 3 2 ; ",
"| C C K H z w w 6 w C >.z.l.l.g.w.>.K z m y V ( u.p.V.A.V.V.S.U.{.Y.Y.U.].I.I.#X_.c.8.i.x.m 7 m l l 6 3 4 3 4 2 2 2 * # % % # n ^ { C 6 4 4 2 4 ",
"K w e r e t & 6 6 s D O.z.l.l.g.g.*.K e r y r V ) u.p.S.U./.>X:X2X5X6X2X>X&X*X*XD.6.x.G.x.M 7 z l e 7 7 7 6 8 2 4 2 2 2 # 2 2 7 H M e 3 3 4 4 4 ",
"m 3 & % 3 , 3 & 3 1 b O.g.l.z.g.<.O.H 6 w w 3 r S &.p.S.U.~.>X>X2X3X3X3X,X:X*XG.6.7.H.H.v.S 8 l n l 7 7 7 7 8 < 2 ; 2 2 > > # 2 8 3 2 2 2 2 3 8 ",
"r w 3 3 3 % 2 2 6 1 b B.g.z.g.e.<.2.A w w 6 6 8 V u ) u.v.H.H.U.].&X-X:X*X$Xc.%.8.H.'.P.v.( 6 l l e e e 7 7 6 > * > = + + ; > > + 2 + ; ; ; > a ",
"3 , & , 3 % 2 2 3 6 P O.g.z.g.O.:.*.C 3 , % 3 $ u S u T E %.7.x.c.Z.N.c.c.7.5.x.D.'.#X!.N.&.I L K K K G H C z 7 6 3 8 3 2 > ; ; * 2 2 2 + ; > 6 ",
"& 3 3 3 % % % % , w P O.g.g.<.X.O. .D , % % , $ y S u T u u u u Y T R ` ;.d.D.G.P.'.#X~.H.8.,.t.,.>.>.X.*.o.^ ~ ^ L U U M 6 * > > + 2 + 2 + 2 2 ",
"6 3 % % % % & 3 , z J  .<.e.>.} O...M , % # % # y T u u T T S y B ] ;.m.J.'.L.L.$X'.'.#XH.x.=.,.b.k.k.k.k.h.r.r.t.t.t.>.~ l # * + * * * + ; * 2 ",
"w w 3 t 3 % % , % e J | <.<.o.} | ..M , % , 2 # & S T u S R -.8.x.m.[._.'._._.L.#X#X$X$XP.c.%.V I b.W.W.Q.R.W.E.R.M.b.b.*.e O + + + 2 + + + + 2 ",
"m m m m z r w w w z K X.X.>.} Q ....M , , # % O & T ( ( T S &.n.%X%X`.'._._.'.'.$X$X*X%X~.H.8.&.B ; ,.|.XX.X|..XQ.R.R.b...8 + * + + + + + + * + ",
"C Z Z A A A Z Z A K ! ~ ~ | ~ L } ..M 1 1 = + @ & S ( ) ( T T s.`.[.`.`._.!._.#X$X%X&X&X#XL.9.6.' 9   U M.=X|.W.R.R.b.t.~ 7 + * + + + + + + + # ",
"K ^ *.=.o.~ Q Q ~ ~ ~ ~ ~ K G M { ..G 1 > o o + & ( ) ) ( T &.E 6.v.J._.%X_.'.$X$X&X$X$X$XL.c.8.;.d d   ; j.M.M.b.b.k.q.^ 2 + * ; + * * * + + ; ",
"o.y.y.a.k.k.y.>.O.o.o.^ } ~ b b _ _ c < * + = 9 y ( ) ) ) R &.8.8.m.J._.'._.].#X#X#X%X%X#X#XN.v.8.d 0 d : o f M { *.t.w.U 3 + > + # + + + + + + ",
"o.r.T.E.E.T.k.r.r.h.y.>.*.~ x c i < - < * ; 4 : y ( ) -.-.R ) 7.v.F.J._._._.L.L._.#X_.#X#XL.L.G.s.5 d : 0 d : o     a I H 7 7 c 7 7 6 4 4 3 ; 2 ",
"o.r.E.R.Q.E.E.l.M.h.Q c D c < < < < < = : 5 p q u ) ) ) -.) R %.v.c.n.F.G.J.G.G.K._._._._.'._.`.;.- k p : d p d 5 5 @   ; 7 m N C M Z M M M n l ",
"! =.r.E.E.E.E.l.>.c X 4 < 4 < < < < ; - 5 p p 5 V ) ) ) %.%.E ( 5.s.s.v.v.D.K.J.K.J.P.`.P.'._.[.` - g : p : p : 5 5 4 ; o + 4 D H I I H H H Z n ",
"z K | >.w.w.X.G X 4 c s < - * = < < * : i p : 5 T %.4.&.&.%.&.&.%.s.d.n.m.J.J.n.J.J.G.P.L.#X].(.: p d : p g p 5 5 5 5 5 ; - o + l H H H H H C l ",
"6 n A ~ ~ s X = s c i = - * = = < < * 5 p i d 5 T &.4.%.) 4.%.&.6.x.n.F.J.F.D.G.n.n.n.J._.%X-X` - h p p : d p p : 5 d : 4 : + * . * l n N N M 6 ",
", 7 c c 8 < s c s = - * * < = < = ; = : d 5 d p R %.8.8.%.4.6.&.%.8.d.v.n.D.G.G.G.n.D.J._.-Xm.- d g 5 : 4 p p d 5 5 5 d : p ; o ; - + 4 m D m 7 ",
"3 6 4 < s s s < = * * = = = = = = - ; p p 5 d 0 F 4.p.v.4.4.9.4.%.3.6.9.v.c.D.F.G.D.m.J.[.(.F : k p 5 p : i p g g d : 5 p : 5 o * ; * o > a M a ",
"6 < 4 i s i = - * * * = < < = * * * : d : d p 0 F 6.c.c.9.4.Z.Z.9.9.7.d.v.Z.F.G.K.D.J.`.`.;.- k d p 5 p 5 5 d p d 5 d p p p : o + * - * * o = 8 ",
"4 4 < i = - * * * - > < < = * * * * p d p d p 5 R 9.P.~.Z.8.c.I.G.d.v.c.F.F.G.L.L.L.J.`.s.o p g p d : d 5 : p p p p p g p : : - * * ; + * * + * ",
"< < < = * * * - * > ; = * * - * - ; p p d g 5 j 5.n.#X&XU.i.G.*X#XG.n.F.K.K.L.%X%X-X-Xx.: g k g d d : 5 p : p d : p 5 p p p 5 - + = + * * * * * ",
"< < = = * - + * = = : = = * * * * 5 p d d d 0 j $.n.%X*X~.Z.I.1X1X#XK.U.P.I.#X,XqXqXm.p p h p p d d p p d : p p p 5 5 : p d 5 ; * ; ; - * - * * ",
"< > = * < - * < > = * = - * - * * 5 5 p d g : R F s.*X*X~.I.#X4X0X4X;X#X'.P.&X4X,Xn.- g k g p d d d p 5 d p p d p p 5 5 p p 5 - * ; * * * * * * ",
"* < > < > * * * * * - = * * * * ; 5 5 p d g o Y ` ` '.&X$X*X1X5XeXeX1X$XU.I.$X$X1.  d k g g p g g d p : d p p d p p p p : p ; * ; * ; ; * * * * ",
"> * < < * < * > * * * * * - * * ; p p 5 d g o ` 1.@ c.%X%X&X2X0XwXeX4X~.P.U.H.5.o h k p p g g g g d d 5 d d : p s p p p 5 5 - * * = ; = * = * = ",
"i s < 4 < - * - * * * * * * * * ; 5 5 p d d d f F @ ` %X&X&X1XwX5X3X:X~.H.9.` F p k g p d g g g g d d 5 d p p p h p p 5 i 4 * * * * = ; * ; * : "
};
