/* XPM */
static char *mi2tz_zukv7[] = {
/* columns rows colors chars-per-pixel */
"144 108 86 1 ",
"  c #B40000",
". c #BA0000",
"X c #BB010C",
"o c #BE080E",
"O c #B60114",
"+ c #B60D1B",
"@ c #BA0F1D",
"# c #B71D25",
"$ c #AD252B",
"% c #AD292E",
"& c #B3252A",
"* c #BB242B",
"= c #B4292D",
"- c #BD282C",
"; c #AD2D31",
": c #B12B30",
"> c #BD2C30",
", c #BC3236",
"< c #BA3539",
"1 c #BA3A3E",
"2 c #C30101",
"3 c #C2090F",
"4 c #C40710",
"5 c #C40C11",
"6 c #C71F21",
"7 c #C62525",
"8 c #C82324",
"9 c #C5262D",
"0 c #C8262D",
"q c #C42A2B",
"w c #CC2D2B",
"e c #D12D2C",
"r c #DA2F2D",
"t c #CE302E",
"y c #D1302E",
"u c #DD302E",
"i c #C52E31",
"p c #C53333",
"a c #CE3230",
"s c #C93C3C",
"d c #D13331",
"f c #E0312F",
"g c #BF5558",
"h c #C84040",
"j c #C45C5D",
"k c #CB5D5D",
"l c #C56564",
"z c #CE6262",
"x c #C76867",
"c c #C86E6D",
"v c #CB706F",
"b c #CC7876",
"n c #CD7D7B",
"m c #CE807E",
"M c #CE8382",
"N c #CF898A",
"B c #D3918F",
"V c #D29494",
"C c #D49D9D",
"Z c #D6A3A3",
"A c #DBA8A6",
"S c #D7ABAA",
"D c #D8ABAB",
"F c #D8B3B0",
"G c #DAB8B5",
"H c #DBBDB9",
"J c #DBC1BD",
"K c #DFC8C4",
"L c #E6CDCB",
"P c #E6D4D1",
"I c #E3DAD6",
"U c #E4DDD9",
"Y c #EEDCDA",
"T c #E6E2DE",
"R c #EFE2DF",
"E c #E9E6E2",
"W c #ECEAE6",
"Q c #F1E4E2",
"! c #F4E8E7",
"~ c #F3EEEC",
"^ c #F7F1EF",
"/ c #F4F4F1",
"( c #FCF7F6",
") c #FCF9F7",
"_ c #FFFFFD",
"` c None",
/* pixels */
"````````````````````````````````````````````````````````````````````````````````````````````````````````````````````````````````````````````````",
"````````````````````````````````````````````````````````````````````````````````````````````````````````````````````````````````````````````````",
"````````````````````````````````````````````````````````````````````````````````````````````````````````````````````````````````````````````````",
"````````````````````````````````````````````````````````````````````````````````````````````````````````````````````````````````````````````````",
"````````````````````````````````````````````````````````````````````````````````````````````````````````````````````````````````````````````````",
"````````````````````````````````````````````````````````````````````````````````````````````````````````````````````````````````````````````````",
"````````````````````````````````````````````````````````````````````````````````````````````````````````````````````````````````````````````````",
"````````````````````````````````````````````````````````````````````````````````````````````````````````````````````````````````````````````````",
"````````````````````````````````````````````````````````````````````````````````````````````````````````````````````````````````````````````````",
"````````````````````````````````````````````````````````````````````````````````````````````````````````````````````````````````````````````````",
"````````````````````````````````````````````````````````````````````````````````````````````````````````````````````````````````````````````````",
"````````````````````````````````````````````````````````````````````````````````````````````````````````````````````````````````````````````````",
"````````````````````````````````````````````````````````````````````````````````````````````````````````````````````````````````````````````````",
"````````````````````````````````````````````````````````````````````````````````````````````````````````````````````````````````````````````````",
"````````````````````````````````````````````````````````````````````````````````````````````````````````````````````````````````````````````````",
"````````````````````````````````````````````````````````````````````````````````````````````````````````````````````````````````````````````````",
"````````````````````````````````````````````````````````````````````````````````````````````````````````````````````````````````````````````````",
"````````````````````````````````````````````````````````````````````````````````````````````````````````````````````````````````````````````````",
"````````````````````````````````````````````````````````````````````````````````````````````````````````````````````````````````````````````````",
"````````````````````````````````````````````````````````````````````````````````````````````````````````````````````````````````````````````````",
"````````````````````````````````````````````````````````````````````````````````````````````````````````````````````````````````````````````````",
"````````````````````````````````````````````````````````````````````````````````````````````````````````````````````````````````````````````````",
"````````````````````````````````````````````````````````````````````````````````````````````````````````````````````````````````````````````````",
"````````````````````````````````````````````````````````````````````````````````````````````````````````````````````````````````````````````````",
"````````````````````````````````````````````````````````````````````````````````````````````````````````````````````````````````````````````````",
"````````````````````````````````````````````````````````````````````````````````````````````````````````````````````````````````````````````````",
"````````````````````````````````````````````````````````````````````````````````````````````````````````````````````````````````````````````````",
"````````````````````````````````````````````````````````````````````````````````````````````````````````````````````````````````````````````````",
"````````````````````````````````````````````````````````````````````````````````````````````````````````````````````````````````````````````````",
"````````````````````````````````````````````````````````````````````````````````````````````````````````````````````````````````````````````````",
"`````````````````````````````````````````````````````````dsdddyydydyddddddddydyddydyyd``````````````````````````````````````````````````````````",
"`````````````````````````````````````````````dydydduffffffffffuuffuuuuuuuuuuuuuufuffffffffuuudyyyyd`````````````````````````````````````````````",
"```````````````````````````````````````````yuuueeeeeeeweerweewewwwrweweewwwrwwywwewrwweweeeeeeeeyrfrt```````````````````````````````````````````",
"``````````````````````````````````````````euweweeeewwwrwwwwweewrrwwweewerrwwwrwwrwwwrrwwweweeweeeewefy``````````````````````````````````````````",
"`````````````````````````````````````````treeeeweewtwewwrwwreweewwrwweewwwwwwrwwwwrwwwwre8wweeweweeeeut`````````````````````````````````````````",
"````````````````````````````````````````auwwwwwewwwwewew8wwwewwwwwwewwewwwwwwwttwwwwwwewwrwwewwtwwwwwwu`````````````````````````````````````````",
"````````````````````````````````````````tewwwewewwwwwwwwwwwwwwewrwwwwwwewwwrwtwwwwwrwwwewrwwwwwtwewewwrt````````````````````````````````````````",
"````````````````````````````````````````uwwwwwwwwwwtwwtwwwrwwwwwwwwwywwwwwwwwwwwwwwwwwwwwwwwwwtwwwtwwewe````````````````````````````````````````",
"```````````````````````````````````````arwwwwwwwwtwwwwwwwwwwwwwwwwwwwwwwwwwwwwwwwwwwwwwwwwwwwwwwwwwwwwwua```````````````````````````````````````",
"```````````````````````````````````````wwwwwwwwwwwwwwwwwwwwwwwwwwwww7wwwwwwwwqwtwwwwwwwwwwwwwwwwwwqwwwwea```````````````````````````````````````",
"```````````````````````````````````````twwqwwqwqwqwwwqqtqwwqwtqwwwqwwqwwwwq7wwqww7qwqqwqwwwqwqwqwwwqwqwwq```````````````````````````````````````",
"```````````````````````````````````````e7wwwqwwqqwwqqwwwwqqwwqwwwwwwqwwqwwwwqwwwwwwwwwwwqwwwwwqqwwqwqwwww```````````````````````````````````````",
"```````````````````````````````````````eqqwwwqqwqwwqwwqqqwwqqwwq77twwqqwwqqwwwqqww7qqwqqwqqwqwwwqwwqqwqwt```````````````````````````````````````",
"```````````````````````````````````````eqwqqqwqqwqqqqqqwqqqwqqt8ssowpwqqqwqqqqqw7wwwwqqwqwqqqqqqqqwqwqqqt```````````````````````````````````````",
"```````````````````````````````````````yqwqwqwqwqqwwqwwqwwqqwqi2z!A2opswqwqtqwqqwqqqqwqq0wqwqwqwwqwqqwwqy```````````````````````````````````````",
"``````````````````````````````````````peqqqqqqqqwqqqqqqqqqwqqqi5k__Rm5owpqqqqqqtqqwqqqwqqqqqqqqqqqqqqqqqy```````````````````````````````````````",
"``````````````````````````````````````itqwqqqwqqqqqwqqqwqwqqqqp5k(__)Pmo2ppqqwqqqqqtqqqqqiqqqqqqqwqqqqqwy```````````````````````````````````````",
"``````````````````````````````````````wtw>qqqqwqqqqqqqqqqqqqqqi5k)____/Jmooppqqqqqqqqqqqqqwqqqqqqqqqqqqqep``````````````````````````````````````",
"``````````````````````````````````````qeqqqq-9q-qqq-qq9qqqqqqqq5k)_____)WJn2.ppq9qq9qqq9q7-qqq7-qqqqqq7qei``````````````````````````````````````",
"``````````````````````````````````````iw7qqqqqqq9q7qqqqq9qq7q-p3k)_______^THb22ppqqq7qqqqqqqqqqqq7qqqqqqei``````````````````````````````````````",
"``````````````````````````````````````iwqqqqqqq7qqqqq7q*qqqqqqq5k)________(WUHc22ppq-qqqqqqqq9qq-qq9-qqqwi``````````````````````````````````````",
"``````````````````````````````````````90*q-----q---q---q---q---oj(__________~TUGx..--q-------q-----q---q09``````````````````````````````````````",
"``````````````````````````````````````9q9--9---9-7-9--q--9---->4k)___________)ETIFc--9>9q*--q*q-qq-q9-9-w-``````````````````````````````````````",
"``````````````````````````````````````>w-----9----*-q-----*7-9-oj)_____________~EED9---9-qq*-q-7*--*----09``````````````````````````````````````",
"``````````````````````````````````````-07*9*---*--9-*-*77-9*-9>Xj)__________)___Ll.*--9#*--9*--*--*q*---0-``````````````````````````````````````",
"``````````````````````````````````````-0-****7997***7*--*-**-->Xj)____________YM..>-7-***7***7-**7**7*-q0-``````````````````````````````````````",
"``````````````````````````````````````-0*******#***7*9***9*9**9Xj)__________YN..>>*9***9***9*#******7***0*``````````````````````````````````````",
"``````````````````````````````````````-9**9**************#****-Xj)________RV..>,*******9*****9****#7****0-``````````````````````````````````````",
"``````````````````````````````````````-9**#***#*#*******#*****-Xj)___)__QV. -,-&*#***#*#*****#**********0-``````````````````````````````````````",
"``````````````````````````````````````-9************#********&-Xj)____~C. -<***************#*9******6***0>``````````````````````````````````````",
"``````````````````````````````````````=9***********#*******#**>Oj(__!Z@.*<********************&*********9>``````````````````````````````````````",
"``````````````````````````````````````>9*****&****************>Xj_^S&O#<*****-&*&*******#9****&******&**9```````````````````````````````````````",
"``````````````````````````````````````>9**&&**&**&*&*&****&&**=OgS1 #1*&=*&**#*&&***&&&**&&*****&*#&&**&9```````````````````````````````````````",
"```````````````````````````````````````9***#&******&&**&***&&**=# +<*&**&**&*&****&**&****&*&**&*&*&****9```````````````````````````````````````",
"```````````````````````````````````````9&#&*#&***&&*&*&&&**#*&&*&<=#&*&&*&#&**#**&*#*&#*&#&*&7&*&**#&&*&-```````````````````````````````````````",
"```````````````````````````````````````-&&*&&&*&&*&&&&*&&&**&&*&&&&=*&&*&**&&&&&&&&&&*&*&*&&&&&&&&&&*&#*-```````````````````````````````````````",
"```````````````````````````````````````-&****&*&#&&**&&7&#&&*&*&&&*&*&*&&&&&&*&*&*&*&&&&&**&&&&&*&**&&&*-```````````````````````````````````````",
"```````````````````````````````````````=&&&&&&&&&&&*&&&&&&*&&&&&&*&&&&&&&*&*&&&&&*&&&**&&&&&7&&&&&&&&*&&=```````````````````````````````````````",
"```````````````````````````````````````=**&&&&&**&&&&&&&&&&&&&&**&&&&&&*&#&&&*&&&&&&&*&&&*&&&&&&&&&&*&&*=```````````````````````````````````````",
"```````````````````````````````````````=-&&&&&&&&&&&&&&&&&&&&&&&&&&&&&&&&&&&&&&&&&&&&&&*&&&#&&&&&&&&&&&7=```````````````````````````````````````",
"````````````````````````````````````````-&&$&$$&&$&&$&=$$$&&&$$&&$&&&$$&&&&$$$&&&&&&$&&$&$&$&&$&&=&&&&$-````````````````````````````````````````",
"````````````````````````````````````````&&$&$&&$$&&&&&&&&&$&&$&&&&$&&&$&&$&&&&&&$&$$&$$&&&$&&&&$&&&&$$$&````````````````````````````````````````",
"````````````````````````````````````````:-&$&$&&&$&&$&$&&$&$&&&$&&&&&&&&$&$&&&&$$&$&&$$&&&&&&&&&$&$&$&-`````````````````````````````````````````",
"`````````````````````````````````````````=-$$&$&$&$&$&&$&$$&$$$$$$$$$$$$&$&$$$$&&$&$&$&$$$$$$$$$$&&$=-;`````````````````````````````````````````",
"``````````````````````````````````````````:-&&&=$$&$&$$&&$$$&$$#&$$&$&$&$&$&&$$&$&$&$#$$$&$&$&$&&&$$q%``````````````````````````````````````````",
"```````````````````````````````````````````%$==&&&$$$$&$$$$%$$$$$$$$$$$$$$$$$$$$$$$$$$%$$$$$$$$&&&-$;```````````````````````````````````````````",
"``````````````````````````````````````````````%$$%$=$==--:--=-=-=-&=-==--=-=&-=-=--=--:-====:$$$%%``````````````````````````````````````````````",
"`````````````````````````````````````````````````````````````$;;$;%%%%;$%%;;$%%;%;;%````````````````````````````````````````````````````````````",
"````````````````````````````````````````````````````````````````````````````````````````````````````````````````````````````````````````````````",
"````````````````````````````````````````````````````````````````````````````````````````````````````````````````````````````````````````````````",
"````````````````````````````````````````````````````````````````````````````````````````````````````````````````````````````````````````````````",
"````````````````````````````````````````````````````````````````````````````````````````````````````````````````````````````````````````````````",
"````````````````````````````````````````````````````````````````````````````````````````````````````````````````````````````````````````````````",
"````````````````````````````````````````````````````````````````````````````````````````````````````````````````````````````````````````````````",
"````````````````````````````````````````````````````````````````````````````````````````````````````````````````````````````````````````````````",
"````````````````````````````````````````````````````````````````````````````````````````````````````````````````````````````````````````````````",
"````````````````````````````````````````````````````````````````````````````````````````````````````````````````````````````````````````````````",
"````````````````````````````````````````````````````````````````````````````````````````````````````````````````````````````````````````````````",
"````````````````````````````````````````````````````````````````````````````````````````````````````````````````````````````````````````````````",
"````````````````````````````````````````````````````````````````````````````````````````````````````````````````````````````````````````````````",
"````````````````````````````````````````````````````````````````````````````````````````````````````````````````````````````````````````````````",
"````````````````````````````````````````````````````````````````````````````````````````````````````````````````````````````````````````````````",
"````````````````````````````````````````````````````````````````````````````````````````````````````````````````````````````````````````````````",
"````````````````````````````````````````````````````````````````````````````````````````````````````````````````````````````````````````````````",
"````````````````````````````````````````````````````````````````````````````````````````````````````````````````````````````````````````````````",
"````````````````````````````````````````````````````````````````````````````````````````````````````````````````````````````````````````````````",
"````````````````````````````````````````````````````````````````````````````````````````````````````````````````````````````````````````````````",
"````````````````````````````````````````````````````````````````````````````````````````````````````````````````````````````````````````````````",
"````````````````````````````````````````````````````````````````````````````````````````````````````````````````````````````````````````````````",
"````````````````````````````````````````````````````````````````````````````````````````````````````````````````````````````````````````````````",
"````````````````````````````````````````````````````````````````````````````````````````````````````````````````````````````````````````````````",
"````````````````````````````````````````````````````````````````````````````````````````````````````````````````````````````````````````````````",
"````````````````````````````````````````````````````````````````````````````````````````````````````````````````````````````````````````````````",
"````````````````````````````````````````````````````````````````````````````````````````````````````````````````````````````````````````````````",
"````````````````````````````````````````````````````````````````````````````````````````````````````````````````````````````````````````````````",
"````````````````````````````````````````````````````````````````````````````````````````````````````````````````````````````````````````````````",
"````````````````````````````````````````````````````````````````````````````````````````````````````````````````````````````````````````````````",
"````````````````````````````````````````````````````````````````````````````````````````````````````````````````````````````````````````````````"
};
