/* XPM */
static char *ybttt_ov54x[] = {
/* columns rows colors chars-per-pixel */
"60 42 3 1 ",
"  c #070707",
". c gray3",
"X c None",
/* pixels */
"XXXXXXXXXXXXXXXXXXXXXX..       ..XXXXX .      .  ..  .      ",
"XXXXXXXXXXXXXXXXXXXXX..    .  ..XXXXXX .     ..XX..         ",
"XXXXXXXXXXXXXXXXXXXX..    .  ..XXXXXXX . .  ..XXX..   .     ",
"XXXXXXXXXXXXXXXXXXX..       ..XXXXXXXX . .  .XXXX.. .    .  ",
"XXXXXXXXXXXXXXXXXX..       ..XXXXXXXXX .  ..XXXXX.. .    .  ",
"XXXXXXXXXXXXXXXXX.. . ..  ..XXXXXXXXXX . ..XXXXXX..         ",
"XXXXXXXXXXXXXXXX..       ..XXXXXXXXXXX . .XXXXXXX.. .   .   ",
"XXXXXXXXXXXXXXX..       ..XXXXXXXXXXXX...XXXXXXXX..   .     ",
"XXXXXXXXXXXXXX..    .  ..XXXXXXXXXXXXX .XXXXXXXXX..   .     ",
"XXXXXXXXXXXXX..       ..XXXXXXXXXXXXXX XXXXXXXXXX..      .  ",
"XXXXXXXXXXXX..       ..XXXXXXXXXXXXXXXXXXXXXXXXXX..       ..",
"XXXXXXXXXXX..    . .. XXXXXXXXXXXXXXXXXXXXXXXXXX..     . ...",
"XXXXXXXXXX..       ..XXXXXXXXXXXXXXXXXXXXXXXXXX...      ...X",
"XXXXXXXXX..       . XXXXXXXXXXXXXXXXXXXXXXXXXX...       ..XX",
"XXXXXXXX..  .    . XXXXXXXXXXXXXXXXXXXXXXXXXX..       ...XXX",
"XXXXXXX.. .     . XXXXXXXXXXXXXXXXXXXXXXXXXX..       ...XXXX",
"XXXXXX.. .    .. XXXXXXXXXXXXXXXXXXXXXXXXXX..        ..XXXXX",
"XXXXX..       . XXXXXXXXXXXXXXXXXXXXXXXXXX..       ...XXXXXX",
"XXXX..       . XXXXXXXXXXXXXXXXXXXXXXXXXX ..       ..XXXXXXX",
"XXX.  .    .. XXXXXXXXXXXXXXXXXXXXXXXXXX .        ..XXXXXXXX",
"XX..       . XXXXXXXXXXXXXXXXXXXXXXXXXX .       ...XXXXXXXXX",
"X..  .    ..XXXXXXXXXXXXXXXXXXXXXXXXXX .     .  ..XXXXXXXXXX",
".. .         .      .     ..   . XXXXX .       . XXXXXXXXXXX",
"           ......................XXXXX .       . XXXXXXXXXX.",
"                               . XXXXX . .     . XXXXXXXXX. ",
"   .    .          .           . XXXXX . ..    . XXXXXXXX.. ",
"                   .           . XXXXX .   . . . XXXXXXX.. .",
".        .      ...            . XXXXX .       . XXXXXX.. ..",
"                               . XXXXX .       . XXXXX..    ",
".......................        . XXXXX .   . . . XXXX..     ",
".......... .. ........ .       . XXXXX .       . XXX.       ",
"XXXXXXXXXXXXXXXXXXXXXX . .     . XXXXX ....... ..XX.........",
"XXXXXXXXXXXXXXXXXXXXXX . .  .  . XXXXX. ....... ..  . ......",
"XXXXXXXXXXXXXXXXXXXXXX .       . XXXXXXXXXXXXXXXXXXXXXXXXXXX",
"XXXXXXXXXXXXXXXXXXXXXX .       . XXXXXXXXXXXXXXXXXXXXXXXXXXX",
"XXXXXXXXXXXXXXXXXXXXXX . .   . . XXXXXXXXXXXXXXXXXXXXXXXXXXX",
"XXXXXXXXXXXXXXXXXXXXXX . .     . XXXXXXXXXXXXXXXXXXXXXXXXXXX",
"XXXXXXXXXXXXXXXXXXXXXX .       . XXXXXXXXXXXXXXXXXXXXXXXXXXX",
"XXXXXXXXXXXXXXXXXXXXXX .  .    . XXXXXXXXXXXXXXXXXXXXXXXXXXX",
"XXXXXXXXXXXXXXXXXXXXXX .       . XXXXXXXXXXXXXXXXXXXXXXXXXXX",
"XXXXXXXXXXXXXXXXXXXXXX . .  .  . XXXXXXXXXXXXXXXXXXXXXXXXXXX",
"XXXXXXXXXXXXXXXXXXXXXX .       . XXXXXXXXXXXXXXXXXXXXXXXXXXX"
};
