/* XPM */
static char *q6zk6_7lemp[] = {
/* columns rows colors chars-per-pixel */
"72 86 256 2 ",
"   c #010202",
".  c #0B0C0D",
"X  c #030808",
"o  c #08130C",
"O  c #0D0E11",
"+  c #050815",
"@  c #0E1212",
"#  c #0A1918",
"$  c #121414",
"%  c #141A16",
"&  c #141619",
"*  c #151C1B",
"=  c #1A1D1C",
"-  c #191A18",
";  c #121212",
":  c #221E1C",
">  c #15221C",
",  c #1B221E",
"<  c #1B271D",
"1  c #082815",
"2  c #22251E",
"3  c #1B1D23",
"4  c #181A28",
"5  c #181C35",
"6  c #0B132D",
"7  c #211E2A",
"8  c #1C2523",
"9  c #1E2925",
"0  c #1E2B29",
"q  c #1A2527",
"w  c #1E332A",
"e  c #1C233A",
"r  c #0E2F2E",
"t  c #222424",
"y  c #232B24",
"u  c #24242A",
"i  c #232D2B",
"p  c #2A2A28",
"a  c #25322C",
"s  c #2B342C",
"d  c #283428",
"f  c #37372B",
"g  c #262938",
"h  c #253431",
"j  c #2B3533",
"k  c #2C3B35",
"l  c #2D3D3A",
"z  c #283738",
"x  c #333C33",
"c  c #333D3A",
"v  c #393938",
"b  c #342A31",
"n  c #423B3B",
"m  c #43362B",
"M  c #2D423C",
"N  c #2A4537",
"B  c #33433C",
"V  c #3B443B",
"C  c #384639",
"Z  c #235132",
"A  c #124B35",
"S  c #45463D",
"D  c #54453D",
"F  c #2A2D44",
"G  c #252A45",
"H  c #2C334C",
"J  c #2B3445",
"K  c #31354B",
"L  c #363948",
"P  c #2E3652",
"I  c #343B53",
"U  c #373C56",
"Y  c #3A2F40",
"T  c #1D2643",
"R  c #463A47",
"E  c #543B4D",
"W  c #6D3E5D",
"Q  c #175241",
"!  c #2D4741",
"~  c #334442",
"^  c #344A43",
"/  c #3B4B44",
"(  c #3A4947",
")  c #3C534B",
"_  c #395749",
"`  c #3C435B",
"'  c #3A4658",
"]  c #3D5954",
"[  c #2C4F4E",
"{  c #346653",
"}  c #3D4461",
"|  c #3C4B63",
" . c #3A566D",
".. c #3A7165",
"X. c #484846",
"o. c #554948",
"O. c #43544C",
"+. c #445649",
"@. c #57534B",
"#. c #434659",
"$. c #584B59",
"%. c #445B53",
"&. c #4A5C54",
"*. c #465857",
"=. c #5B5758",
"-. c #664958",
";. c #655959",
":. c #754A5E",
">. c #4B635C",
",. c #486559",
"<. c #50685B",
"1. c #68625C",
"2. c #70695F",
"3. c #444B64",
"4. c #464C67",
"5. c #455364",
"6. c #4C536C",
"7. c #4B5868",
"8. c #565769",
"9. c #4D5572",
"0. c #4B5A73",
"q. c #535A74",
"w. c #555C79",
"e. c #595E7B",
"r. c #545874",
"t. c #5A4D61",
"y. c #685867",
"u. c #745A6A",
"i. c #6B5D73",
"p. c #785B74",
"a. c #6D4C65",
"s. c #4B6863",
"d. c #536C64",
"f. c #566869",
"g. c #5C736B",
"h. c #587769",
"j. c #5B637C",
"k. c #586678",
"l. c #5A7775",
"z. c #4B6C70",
"x. c #6D6467",
"c. c #77686A",
"v. c #63786D",
"b. c #696778",
"n. c #786777",
"m. c #637976",
"M. c #7D7276",
"N. c #7D736D",
"B. c #855C75",
"V. c #866A78",
"C. c #887679",
"Z. c #8B6F76",
"A. c #578374",
"S. c #688778",
"D. c #6D8978",
"F. c #90817F",
"G. c #5D6481",
"H. c #5E6A84",
"J. c #5E6A89",
"K. c #517494",
"L. c #616683",
"P. c #636B85",
"I. c #646C8A",
"U. c #686C8B",
"Y. c #7D6E82",
"T. c #66728B",
"R. c #6A738D",
"E. c #687586",
"W. c #777689",
"Q. c #6C7592",
"!. c #6E7A95",
"~. c #6C7897",
"^. c #727C95",
"/. c #737D9B",
"(. c #747895",
"). c #646E91",
"_. c #737EA1",
"`. c #577BA3",
"'. c #886C84",
"]. c #8C7384",
"[. c #8C7A8B",
"{. c #887688",
"}. c #947B8C",
"|. c #957988",
" X c #8C7C92",
".X c #947B94",
"XX c #9A7D97",
"oX c #956C89",
"OX c #A07999",
"+X c #668784",
"@X c #748B86",
"#X c #789789",
"$X c #74829C",
"%X c #78859A",
"&X c #789B95",
"*X c #6A8D8E",
"=X c #79A396",
"-X c #5B88AC",
";X c #7A85A3",
":X c #7C89A4",
">X c #7A86A6",
",X c #6A93B1",
"<X c #79A5AB",
"1X c #5E8382",
"2X c #6D98C8",
"3X c #73A0CB",
"4X c #99838B",
"5X c #9C8393",
"6X c #988599",
"7X c #879190",
"8X c #A48B9C",
"9X c #A38698",
"0X c #A48E99",
"qX c #87A898",
"wX c #93AD9E",
"eX c #89A895",
"rX c #848CA7",
"tX c #9B8BA3",
"yX c #9E93A6",
"uX c #8593AE",
"iX c #A58CA3",
"pX c #A78BA7",
"aX c #A294AC",
"sX c #A892A7",
"dX c #A898B2",
"fX c #B197B1",
"gX c #86ACA5",
"hX c #97B6A5",
"jX c #8CB4AE",
"kX c #A8B9AF",
"lX c #97C3B3",
"zX c #A7C7B8",
"xX c #B6CABD",
"cX c #A7CEB9",
"vX c #89B8C7",
"bX c #9BC5C9",
"nX c #BBD4C6",
"mX c #ABD3C8",
"MX c #B8E1D0",
"NX c #B7E6FB",
"BX c #9CCCEC",
"VX c #C4D8CC",
"CX c #C9D8CF",
"ZX c #C9E4D7",
"AX c #D4E7DA",
"SX c #CBEAD6",
"DX c #DBEAE3",
"FX c #DCF5E7",
"GX c #CDF4FD",
"HX c #E6F8EC",
"JX c #EAF9F5",
"KX c #F5FDFB",
"LX c #FEFEFE",
"PX c #F3FCF5",
"IX c #E4ECE8",
"UX c #DEDDE2",
/* pixels */
"@ o o $ % * % % # % $ $ * = o ) m.( q 9 8 9 9 9 9 9 q > > > 8 > > 8 9 9 w a a 0 w a h a a a h a a z h h h i i u 9 t 0 0 0 i i i i 0 q 9 9 0 , j ",
". ; $ $ * > 8 * * > > > q 9 q #.l.*.i h a h w w 9 9 8 > w y i w h ^ / M N M B k a h h a w w 0 0 0 0 i i q 9 9 q 9 0 0 u q 0 0 0 9 8 8 8 , 8 > p ",
"> @ $ % > 8 8 q 9 9 9 i w h w *.E.{ N N h N N [ _ M ! M k h h k B O.,.O.l N M k 9 9 i i 9 9 9 9 9 9 q q 8 8 9 9 q 9 9 q q 9 q 3 8 3 - % * & % t ",
"i % * 8 9 8 0 w a h k N ! N z s.l.s.] ,.A.D.#X=XqX#XA.,.+.N N M N ) O.) h a a 0 9 9 9 9 9 8 9 9 9 8 8 9 8 9 8 8 9 9 8 9 9 9 = * = - % % $ $ $ = ",
"9 8 q 9 w z M M N ! ^ [ ] ,.h.h.S.gXhXlXcXcXmXmXcXhX=X<.d.^ M M M l B l a 9 9 9 q 8 9 0 0 9 9 9 9 9 i 9 y 9 8 , , , , > * % $ $ ; ; ; ; $ $ * t ",
"8 9 h l ! ^ _ { s.A.S.&X<XlXcXgX=XmXMXMXMXMXmXcXlX=XS.,.] ^ ^ ^ B M k a a w 0 0 i 9 9 y 9 8 8 q i a j i 9 8 * % $ % $ $ $ @ $ $ ; $ $ ; o @ * p ",
"z ! [ ] s.A.+X=X<XlXmXMXSXFXFXSXqXlXMXcXcXlXqXD.A.<.N N N M ^ B M M k k l h a 9 9 8 8 * 3 * > > 9 j B j 8 * & $ $ $ $ $ $ $ $ $ $ ; $ O O $ = v ",
"! [ { A.=XjXmXMXFXFXJXKXKXLXLXKXcX#XeXA.A...] ] ] ) ] ^ N M B / / / &./ B c k i 8 > * * * % @ % 9 k B V y * @ @ $ $ $ $ $ $ $ $ $ ; $ $ o $ , c ",
"h.=XhXVXDXHXKXLXKXLXLXLXPXLXLXLXnXs.z.s.s.z.z.h.s.,.,._ / ^ k # X 1 w Z { 1 1 d < > > % % % % 3 i l B B a > $ $ $ @ @ $ @ $ @ @ $ $ O $ $ O , v ",
"IXLXLXLXLXLXLXLXLXLXLXLXLXLXLXJXjXl.A.l.h.h.s.,.{ _ { _ { { d.S.eXkXxXSXDXnXS.o w > 8 , - - * , y x B x 9 * @ $ $ % % $ * $ % % $ $ $ $ ; ; = ~ ",
"LXLXLXLXLXLXLXLXLXLXHXAXMXcXgX&X#XS.z.] { { { h.D.eXhXxXVXAXIXKXPXLXLXLXLXLXZX%.o t , , > * - < s B N s y % $ @ $ * - * - - * % $ % $ $ $ o , / ",
"LXLXLXLXKXHXAXnXzXqX#XA.{ A Q s.+X+X#XwXzXnXZXIXJXLXLXLXLXLXLXLXLXLXLXLXLXLXHXv.  d # * * * - , y k B l a , $ o @ , 8 , 3 = * * % % $ $ o $ , X.",
"DXCXzXwX#XA...{ { { { ^ h.=XzXhXhXIXPXLXLXLXLXLXLXLXLXLXPXLXLXLXLXLXLXLXPXIXkXw > , * = - - % % < y s s y , $ . * t s i 9 9 , > * $ % @ @ @ , / ",
"{ Q A Q _ ] %.%.O._ _ hXFXKXLXKXIXLXLXLXLXLXLXLXLXLXLXLXLXLXPXHXAXCXkXeXS.X.  $ 2 > - * % * % $ $ $ > , = * $ @ % i l z h h i i 8 8 = * % % * j ",
") ] %.O.) ) / B B r S.HXLXLXLXLXIXLXPXLXLXLXLXLXPXIXAXVXkXeXD.,.d X X       u t - , 2 - % $ @ $ $ $ o $ $ $ @ @ * 0 k l k z z j h i i 9 8 * 3 9 ",
"^ ^ M B ! M M k k # d.AXLXLXLXLXCXAXPXAXVXxXhX7XA._ Z o X   X % i v C V s t t 7 8 3 - - * % % $ . $ $ % $ @ $ & 3 0 h h h k j z z h i i i u y u ",
"l z h h k z z h h k 1 @XnXAXnXkX7X+X<.Z 1 o X o > s B C B c x x c V i & 3 7 t 7 u t 7 7 3 - $ - * . % $ $ $ * * * 9 i 9 u i h h a z ~ L 0 i i i ",
"w z j l M M M l J z M 1 1 r X ! %Xl.z c ^ / C C B V B B j s f j i 8 7 g u 4 t t u b u u 7 3 & $ - = $ - * 3 * 3 8 q 9 9 9 0 i i a l *.*.L h i y ",
"! h w w M ^ ! ~ ^ B x c < 9 N <.@Xm.~ M x N N N N B C N l x d - = 7 p b u u i p b g b 7 7 t = = $ - = . $ * * , 8 8 8 9 i y i i a L 7.f.' j i t ",
"@Xh.s.+X=XgX=XA...Q A { h.{ 1 <.#Xl.~ z x x l x x ^ B C C a $ t 2 : 7 u t = - t b p u 7 u p t - % . y / C N y , - 8 8 q 8 8 8 9 a c O.7.) a i t ",
"jXgXlXmXMXZXMXMXnXVXZXDXHXDXwX,.@Xb.~ ~ c c l k k C ) +.C ; 2 2 - $ . 7 v R L L X.j u p u : - : - ;   <.7Xv.O.k j j a d a i 9 8 8 a c l s i 8 , ",
"AXAXFXJXJXKXKXLXLXLXLXLXLXLXHXeX+Xl.~ l B N N k N C +.V 2 2 2 o p o.;.c.M.M.V.M.i.y.n.p.u.=.R p - :   ; 7XwXh.o           & i 9 9 i s s 8 8 = = ",
"LXLXLXLXLXLXLXLXLXLXLXLXLXLXPXhXE.m.~ l x N l l N / V 2 2 2 2 D 2.Z.Z.}.|.4X5X5X}..X[.}.].C.M.$.b 2 p   v.DXAXxXkXwX7XN.v.B X j i p s i y t t t ",
"LXLXLXLXLXLXLXLXLXLXLXLXLXPXVXA.#Xm.^ B x k l j N V 2 - ; m 1.2.Z.Z.C.|.4X4X4X5X5X5X}.].C.V.c.c.-.n p ;   UXLXLXLXLXLXPXPXAXv.q B c l k h a i y ",
"LXLXLXLXLXLXLXLXLXLXKXAXhXF.{ <.@Xb.! l k N s N x d , - m 2.2.Z.Z.F.F.OX4X4X9X4X9X5X5X}.C.C.Z.B.2.-.n b   {.PXLXLXLXLXLXLXKXnXq l j j l j i s s ",
"LXLXLXLXLXLXLXLXLXLXLXHXhX_ A.<.*Xm.~ l N k k s x d 2 f 1.2.F.F.F.4X4X0X0X9X9X0XsX8X8X5X5X}.].V.B.u.;.n : . kXLXPXLXLXLXLXLXZX,.) +.d 1 j i s i ",
"LXLXLXLXLXLXLXLXLXLXLXPXFXD.<.h.@Xm.( c k s s k C y p D 1.2.C.F.F.4X0X0X8X0X0X8X8XiXiX9X9X}.].Z.V.c.1.R p   X.AXHXPXPXLXLXLXHXAXAXHXVX<.y ^ ) %.",
"LXLXLXLXLXLXLXLXLXLXLXLXAXA._ <.@Xm./ B C k s j C f V @.2.F.Z.C.4X4X0X0X8X9X8XiXsXsXpXiX5X|.|.Z.Z.c.u.o.: :   VXLXLXLXLXLXLXLXLXLXLXLXkX# N N ] ",
"VXSXDXHXLXLXKXPXHXPXPXAX#X,.S.S.@Xm.) V x d d d N S +.@.2.C.C.F.4X9X9X9XpX8XpXsXaXpXpXiXXX.X|.Z.V.c.c.-.b p   hXLXLXLXLXLXLXLXLXLXLXLXCX+.wXxXxX",
"JXPXPXLXLXLXPXFXlXh.A.{ ,.eXgXwX&Xm.+.V N f d d C S S D 2.C.F.4X5X8XsXpXpXsXsXsXpXpXpXaXiX9XXX].V.c.c.;.v b   yXLXLXLXLXLXLXLXLXLXLXPXDXkXHXLXLX",
"LXLXLXLXLXLXLXPXSXS.,.Z D.lXeXhXuXg.X.V C f d y S C C @.C.F.N.x.u.n.'.XXOXpXpXfXfXdXpXpXiXXXXX.X].V.n.;.R f   F.CXCXPXLXLXLXLXLXLXLXPXFXcXHXLXLX",
"LXLXLXLXLXLXLXLXPXHXFXcX#XlXwXhXeXg.O.V f f d d S f m 2.2.D s -     3 o.u.OXOXpXpXpX.Xi.t.t.$.t.t.y.y.y.X.p X C 1 eXPXLXLXLXLXLXLXLXLXHXeXxXPXPX",
"LXLXLXLXLXLXLXLXLXLXPXHXcX#XwXhX7Xh.,.C S C 2 d C d @.2.n R $.;.$.R b b R p..XXXXX.Xi.Y & X X 4 b b R $.X.b . v O @XPXLXLXLXLXLXLXLXLXPXxXD.D.D.",
"JXKXKXLXLXLXLXLXLXLXPXPXSXA.C <.D.h.+.S f C d d C s 2.1.@.x.u.i.c.n.y.a.-.u..XOXXX'.y.t.$.a.i.p.p.i.$.b o.v   j > X.AXLXLXLXLXLXLXLXLXPXHXAXSXSX",
"JXJXLXLXLXLXKXLXLXLXPXPXMXd.N ,.S.<.Z S C C d C V S 2.@.@.-.o.W a.u.$.-.:.n.6XpX9X[.p.y.t.a.u.p.i.p.i.t.o.R $ j 9 %.AXKXLXLXLXLXLXLXPXPXHXHXHXHX",
"KXKXLXLXLXLXLXLXLXPXFXVXeX+.+.,.v.d.C +.S S d D S o.c.;.o.n v n g R i.t.;.c.].8XXXoXn.a.E R Y L R E $.$.$.R ; n / g.ZXPXLXLXLXLXPXPXIXnXSXHXHXHX",
"JXJXJXGXHXHXJXDXSXMXzXeXS.+.+.,.v.v.&.O.&.S C S m @.c.Z.;.o.o.=.L t.{.u.n.B.V.|.}.'.].n.i.r.5 } R b R o.a.X.. ~ f.h.nXJXKXLXLXLXPXPXVXeXcXSXVXnX",
"GXGXNXBXBXbXlX<X=XqXeX#Xh.<.+.,.m.g.<.&.&.+.C D D @.2.C.N.Z.2.:.-.u.p.Z.Z.Z.Z.C.'.'.'.'.a.a.a.a.$.E o.y.x.R X $.*X1X#XcXnXxXxXxXxXzXhXhXwXeXD.S.",
"GXNXBXlXvX<X<X<X=XwX=X@Xh.,.%.&.v.d.<.@.&.S C @.D o.N.F.F.F.C.C.Z.].|.4XZ.Z.Z.|.oXV.'. X'. XU.p.u.u.n.n.i.R b U.uX*X@XD.=XeXqXwXhXhXhXhXhXwXeXD.",
"GXNXBX,X-X-X<XgXgXgXqXD.h.&.+.,.v.v.+.+.+.V f o.D m 2.F.F.0X4X4X}.XX4X9XC.V.Z.|.XX'.'.XXOXOXOX X{.'.n.n.y.n -.Y.uX&XD.eXeXeXgXhXhXlXhXhXhXeX7XS.",
"GXNXBX-X-X,X,X<XgXgX&X@Xd._ ) %.l.f.+.C C C N S D m 2.F.7X0X0X0X0X9X9X9XZ.B.Z.F.0XZ.V.OXOXOXaXaXXX.X{.n.t.Y i.W.rX*XD.#XqXqXqXwXhXwXhXhXwXqX#XS.",
"GXNXBX2X-X,X<X<XgXgX&XS.<./ C %.v.f.+.+.+.S N f D m ;.F.4X0XsXsX9XsXsX9XB.Z.Z.0XfXoX'.pXdXOXOXOXtXXX X'.=.E M.W.E.l.l.#XqXeXqXwXqXwXwXwXqXqX#Xv.",
"GXGXBX,X-X,X,X<XjXkXgXA.,.! B O.g.f.O.S S C d 2 D D @.N.7X0X0XsX0X8XfXZ.;.-.a..XXXp.p.OXfXpXpXpXpXXX.XV.E t.M.y.*.*.h.@X#X7XeXeXeXeXeXeXqXeX@Xv.",
"JXGXNX2X-X,X<XbXvXvXgX*X] N M ) f.g.&.+.C C d , @.1.1.c.F.4XsX0XpXfX0XOX:.E E E W E p.OXOXdXdXpXpXtX}.b.E i.n.L j ~ *.l.D.D.D.D.#X@XD.D.D.@XD.g.",
"GXGXNXvX-X,XvXbXbXbXjX*X] N N ) <.h.+.S C f d % S 2.@.2.N.4X6X8X8X8X9XOXZ.B.'.B.p.a.'.OXpXpXpXaXtX XY.t.$.{.b.i i z ) >.h.d.h.h.v.v.h.g.v.v.v.<.",
"GXNXNX3X=X<XbXbXbXbXgX1X) j l ) v.h.+.S C N y 2 2 v D 1.c.].4X5X9XOX'.Z.Z.Z. XoXoXB.B.oXXXXXXXpXXX Xn.t.t.W.=.M &.%.) O.) ) +.&.,.&.%.&.<.f.v.f.",
"NXNXbX<X=XgXjXlXbXjX&Xz.^ h s / <.f.S Z f d 2 y < 9 / 1.x.M.[.}.Z.Z.Z.|.}.}.pXpXOXoX'.'.oXXX6X6X6X'.b.$.$.y.( X.&.&.*.( ~ B C +.<.+.c B B O.&.&.",
"<X,X1XS.=X=X<X<X=X&Xl.s._ _ B S f.<.C f d y d < 9 a V =.1.M.[.{.Z.B.u.:.:.-.:.B.p.B.'.oX'.[.XX.X{.'.b.$.( z l O.*.s.] ( ~ l B >.f.*.c j j c ( ~ ",
"_ ,.h.+XS.S.S.A.A.d.,.] s.s.,.] f.&.f d d 2 d 2 2 a k @.1.c.[.4X|.B.n -.:.B.W W W W E W Y.'..X X{.n.b.$.b 0 i l ( ) B k z z k &.f.O.2 $ * 3 i i ",
"{ { s.d.<.%./ ^ / M ^ >.l.l.l.s.f.O.s d f 2 y y < d s +.1.x.C.4X|.Z.Z.V.B.B.oXOXoX'.B.p.'.]..X{.Y.Y.y.X.& O & & 8 3 3 = * * a *.g.+.= $ $ O O O ",
"^ l ^ ( N d d 2 y < N z.1X*XS.s.f.&.s y d y 2 2 9 a k S =.c.N.].Z.Z.V.V.B.B.a.a.B.'.]..XoX.X X'.'.n.t.L O 3 & & @ @ $ ; $ O * / &.L 3 & & & = & ",
"a 8 i s d y 2 d d < ~ z.*X*XE.s.f.*.a < 2 2 2 y < a a f @.x.c.C.|.C.Z.V.B.B.p.p.p.'.Z.].'.'.{.'.Y.n.=.j $ & & & & & & $ $ $ * j ~ a * & & & & * ",
"9 - - 2 2 2 2 2 2 9 ^ k.1X-Xl.s.f.*.0 r 0 r r e 9 w y s X.;.x.C.C.C.|.4X9X9XpXfXOXOX|.].].].{.Y.n.y.R u = * & ; O $ ; & $ & $ = u = & & & & $ i ",
"< - - , , > 2 2 y i [ z.1X*Xl.,.z.] z J | | | P J 0 8 , S @.=.2.Z.C.4X8XpXfXfXfXfXpX5X].[.[.Y.M.b.$.X.i 3 * $ % & @ & $ @ O $ $ ; $ O & @ & @ c ",
"< - > : - : 2 2 s j ) z.1X1Xz. .z.5.P  .K.K.K.G.| T r . V @.@.=.;.M.].4XiXpXpXfXdXtXXX}.{.'.Y.n.=.$.O.u t , $ $ $ . O O $ $ ; $ & O $ @ @ @ . v ",
", - , , 2 2 d f f v %.h.K.H.s.] 0. . .K.-X-X2X`. .J o   V @.S o.o.=.n.V. XXXXXtX6X.X[.'.n.n.i.t.t.y.8.O.^ k a i i y i 4 $ $ ; ; O $ @ @ $ $ O j ",
"2 - : 2 2 2 f f S X.&.f.f.l.] [ >.]  .`.2X2X2X2X .5 h O.&.@.@.S X.n o.t.i.p.n.Y.Y.Y.i.i.b.y.$.t.n.b.8.f.f.f.&.*.%.%.%.B 8 O O O $ O O O $ ; + 8 ",
"d - 2 2 f f m C f S O.>.d.s.) ~ 7.]  .`.2X3X3X,XK.0.m.<.S =.;.@.n S Y R X.#.$.$.t.6.t.t.$.$.8.n.Y.M.$.#.j.j.m.S.S.v.v.&.9 . O O . O O O O O X 3 ",
"C d 2 f f m m m f v +.,.s.%.~ ~ 5. . .`.2X3X2X-XK.k.W.8.s 1.c.x.;.o.R v v R L R R E E t.t.b.{.7X[.n.y.#.r.j.f.f.m.D.m.>.8 . @ O O . . . O O X g ",
"C C C C f f m f m V X.) O.) M B *.'  .`.-X,X).} L E.^.f.n 2.N.C.C.n.;.=.$.y.i.i.i.i.i.W.W. X6X6X{.M.t.t.e.j.6.5 J *.f.@.3 . ; O . . . . . + X g ",
"+.] +.+.v f f f x S ^ / ^ B k h *.5.| 5.' ~ J 0.l.*X(.E.X.2.M.[.4X7XY.x.y.b..X[.{.(.'. X6XtXyX6X7XM.y.e.R.J.r.3.H g g L p & O . @ O X . . + X Y ",
"d.<.>.+./ B x B X.) C N M y 1 h *.7.5.5.q.k.k.m.k.!.%XW.=.x.N.[.6X6X6X{.n.y.n.'.{..XXXtXyXyXtX6X{.Y.b.U.(.J.6.9.6.4.3.U J g 4 @ X X X . X + X g ",
"h.d.d.,.%.( B ) ,.,.,.O.O.%.>.f.k.E.E.E.T.w.k.' 5.E.%X%Xn.;.c.4X6XtXyXtX XY.i.Y. XrXaXaXyXaXtX X XY.W.Q.Q.U.9.F 9.4.g ' #.U ~ J q 4 @ X . X + F ",
"d.d.>.>.%.O.O.<.d.S.S.l.m.k.7.k.k.5.7.E.0.' j.m.9.f.!.rX7Xb.v.M.4XyXaXyXyXtX6XtXtXaXaXaXaXyX6X6X XW.R./.Q.9.4.#.6.3.J U 5.U g K L g q 3 3 3 + G ",
"<.>.>.s.7.*.s.d.l.S.f.z.e.3.I 5.9.6.6.k.P.H.5.3.6.w.Q.%XrXE.c.M.{.6XaXaXaXyXtXyXyXaXaXaXyXtXtX X/.Q./.;XL.H P 4.K H ` P G K K L F g 3 i i g q z ",
"%.%.%.>.>.>.&.s.m.d.' ' 3.5.5.k.| 5.9.6.| 5.f.0.E.R.T.*X:XrX7XY.{.7XtXaXaXaXaXaXaXaXdXdXyXtX X(.(.Q.~.).} 9.U g 4.U G ` 3.K K F F g g 3 q u 4 l ",
"_ %.%.%.>.%.%.@X%X7.7.L.P.k.k.E.k.w.H.T.k.k.E.$Xk.T.$X$X$X:XrXW.{.6XyXaXdXyXdXkXdXdXdXdXtXrX/./.(.~.I.r.G.L.G.w.e.r.9.b.e.3.` 3.#.L g 7 4 & @ 4 ",
"~ ) *.*.%.' ' $X%X0.7.k.' #.` P.E.` E.!.^.H.5.k.' I T.%X$X$X;X/.:X%XtXdXdXdXdXdXdXdXaXrX X/.rX_._./.G.G.9.P 9.G.H H 9.P.e.#.3.4.#.F g L b 3 3 & ",
"z ~ ] ) f.z.6 ~.:XH.] ' 5.9.U ' P.9.I R.b.' k.#.H.P.` k.!.$X!.$X>X:XuXrXrXuXtXuX;XrXuX_.;X_._.~.).Q.e.I H 3.e 6.6.L 5 4.K 4 ' 4.G g 7 z z $ 4 7 ",
"i l B ' E.E.6 9.uXQ.G q.0.e J.w.T I.7.P | k.7.9.' k.T.P H.:X$X$X/.rX>X:X>X>XuX>XuXuXuX>X_._./.).(.G.I 4.9.9.4.5 4.w.4.G U q.#.H F G L g g g t u ",
"8 a ~ *.*X:X` T T.$XU.U 3.e.T.| } _.Q.3.Q.T.P E.' r.q.H H.;X0.0./.H.G.;X>X>X>XuXuX>X>XQ.J.~.G.Q./.9.H Q.U G b.U U R.r.} G.9.G 4.K g U F + g b g ",
", 0 ( 7.%XrXT.e 7.$X$XQ.U G.6.k.T.k.' H k.!.' ' j.#.e R.$X5.H ' q.~.9.4.U.L.4.G.~.r.4.G.Q.9.5 P j.(.6.3.r.3.` U e.8.F g 3.j.g 7 #.U 4 g Y F z u ",
"% * 7.z.k.T.%X7.e !.:X:XH.P H.G.P ` G.H.e 4.^.3.e 3.$X!.J | /./.P q.!.9.G I 9.w.I H (.Q.I 4.b.6.6 6.(.4.U U P e.I g w.w.U 8.r.K u e 4.r.#.U j & ",
"o 0 b.6.6 J $X$XT 4.R.!.).>X>XH.).$X;X;XJ.| E.$XH.Q.%XI.G.:X;X/.!.q.` T.I.U 3.U H.R.P.` 9.).Q.R.j.3.U.J.G 4.U.r.U L.U.U.e.U 6.r.` q.P.e.g K u X ",
"  *.k.8.H.$X:XrXI.6 J ' 9._.$X$X!.$X;X:X$X$X;X:X$X!.$X:X$X$X:X:X:X>X)./.>X/.J.T./.^.J.~./.~.R.^.^.).Q.).Q.Q.(.(.Q.J.L.Q.Q.w.9.9.r.R.U.b.#.g + 3 ",
"g #.z 5.E.7.3.q.T./.7.| H I 4.P P } 6.w.5.5.6.k.7.I 5.6.| 6.j.R.Q.Q.!.;X).~.$X_.T.~.T.U.T.j.r.3.` } 9.9.9.t.} r.4.L ` 3.r.r.r.8.L U #.U g + u g ",
") k.E.5.E.I 5.q.P /.(.Q.).6.H q.6.} ' J e ' H 5 F I ' ' P G 5 6 T G g H J F H I P g F F g G G I I K e e 5 4 5 5 5 F G G 7 e g 5 4 e 6 e g g L j ",
"( E.%Xf.7.q.` b.` j._./.>X>XJ.$X!.$X!././.:X%X!.T.).;X:X;X^.~.).w.j.0.6.4.w.w.9.6.e.0.w.j.q.j.(.Q.I.w.G.G.G.G.G.L.P.w.e.r.4.U 4.G.r.r.} U E j 4 ",
"I k.E.j.I R.e I U.| U.| G.rX).U./._.~.$XT.^.rX:XT.$X$XU.>XuX:X>X>X>X>X>X_._.>X_././.!.!.T.j.R.~.r.L.J.(.).(.~.).U.Q.P.).I.L.G.G.L.U.e.4.4.#.& 3 ",
"k.J #.!.P.$Xq.| :X4.g 7.| _.9.P $X>XQ.| 0.$X!.` I Q.rX3.| :X$X;X;X0.9.:XrXP.6.R.~.U.U w.U.(.U.3.6 G._.r.F 6.(.).P #.P.U.U.e.U 9.G.9.r.r.r.I 4 b ",
"5.E.0.q.%X$X!.9.T.4.F Q.j.e.~.G 3.j.H H.$Xw.I j.j.H H.$Xr.I R.(.P U Q.rXG.} } P U.(.G.G r.q.F 4.J.U.4.G 6.U P i.L.5 U i.6.6 R e.t.5 } L.8.g g g ",
"f.k.k.` ' 4./.4.T U H P e.U w.^.6.4.R.^.| } ^.9.L./.H G.:Xe.H U G._.).P } G.U.r.5 r.(.J.U H j.Q.9.H } r.4.G.4.G G.L.} e e 9.Q.4.6 4.T K 3.4 z 4 ",
"E.g 9.E.w.} r.Q.G.;Xe.6 J.).} rXw.I.uXQ.6 (.(.5 4.;Xr.H ^._.j.Q._.).T G.(.} P U.U.T 9.(.e.9.(.(.P } ).4.+ R U.4.F L.(.4.e.L.4.T 9.9.9.G 4 g Y 4 ",
"E.k.k.R.H.T.9.e.3.3.G 6.U.6.9.#.I ` w.rXj.P ^.j.k.6.P R./.9.P 6.~.J.P G.(.4.} J.r.3.H.w.P H U Q.U.G 6.G.9.9.U G 4.L.r.T } G.4.G 4.H 4.R 5 g 4 3 ",
"R.^.E.j.+ 6.T.6.' I 3.4.P G.4.3.$XT.5 r.:XP.P L.U 4.Q.U.4.P G.9.U ).Q.P 4.L.L.} H (.b.H R.(.H T L.U.G } e.F U G.G.P 5 4.K R J.r.U U } G R G 5 4 ",
"R.P.$XR.4.9.~.~.P.w.P.#.(.I.3.(.^.$X!.} U.;XJ.e L./.(.P r.>X_.>Xi.6 ). Xr.T P 4.P.9.I R.Q.^.(.U U Q.U.} G 4.L.G.G U G.(.L.F G G.L.} P a.G.3.F 4 "
};
