/* XPM */
static char *gzv18_vijlf[] = {
/* columns rows colors chars-per-pixel */
"72 86 256 2 ",
"   c #020303",
".  c #050806",
"X  c #090906",
"o  c #050709",
"O  c #060A09",
"+  c #090C0C",
"@  c #0A050A",
"#  c #0C100E",
"$  c #051907",
"%  c #11110E",
"&  c #0C0F10",
"*  c #0D1312",
"=  c #0C1816",
"-  c #121414",
";  c #141916",
":  c #131519",
">  c #141C1B",
",  c #1A1D1C",
"<  c #1A1915",
"1  c #140105",
"2  c #231613",
"3  c #16211D",
"4  c #1B211E",
"5  c #15291A",
"6  c #0C3117",
"7  c #26251C",
"8  c #352C1E",
"9  c #181E20",
"0  c #251F23",
"q  c #162222",
"w  c #1B2524",
"e  c #1E2925",
"r  c #1D2B2B",
"t  c #152626",
"y  c #10342B",
"u  c #222523",
"i  c #222B26",
"p  c #222D2B",
"a  c #2A2A28",
"s  c #342B2B",
"d  c #24322D",
"f  c #2B332D",
"g  c #2B3529",
"h  c #35352C",
"j  c #292E33",
"k  c #243432",
"l  c #2B3533",
"z  c #253935",
"x  c #2C3B35",
"c  c #2C3D3A",
"v  c #28383A",
"b  c #343433",
"n  c #343C35",
"m  c #323C3A",
"M  c #3A3838",
"N  c #372E31",
"B  c #433A38",
"V  c #4E3530",
"C  c #2C4439",
"Z  c #34433C",
"A  c #39463A",
"S  c #39503A",
"D  c #13463B",
"F  c #474639",
"G  c #504839",
"H  c #3C3C42",
"J  c #2C3451",
"K  c #443C43",
"L  c #533D44",
"P  c #334442",
"I  c #3C4C44",
"U  c #394947",
"Y  c #3B5349",
"T  c #3C5554",
"R  c #324E4D",
"E  c #316555",
"W  c #464648",
"Q  c #544949",
"!  c #45564A",
"~  c #595547",
"^  c #4A4A53",
"/  c #564C55",
"(  c #475957",
")  c #575657",
"_  c #665958",
"`  c #6B5452",
"'  c #4A6359",
"]  c #566659",
"[  c #486D55",
"{  c #676556",
"}  c #74675D",
"|  c #6A6852",
" . c #475B64",
".. c #585962",
"X. c #555470",
"o. c #665764",
"O. c #755C68",
"+. c #72566B",
"@. c #4C6564",
"#. c #556966",
"$. c #5A7569",
"%. c #586A75",
"&. c #5B7777",
"*. c #4C6E6B",
"=. c #686767",
"-. c #756967",
";. c #797468",
":. c #796B75",
">. c #647B74",
",. c #7A747A",
"<. c #68756B",
"1. c #837A6C",
"2. c #83697A",
"3. c #87797A",
"4. c #8B7170",
"5. c #8D5B77",
"6. c #5C8573",
"7. c #698579",
"8. c #748C79",
"9. c #8B847A",
"0. c #96857B",
"q. c #91937E",
"w. c #5D7185",
"e. c #6D728E",
"r. c #767CAB",
"t. c #797EAD",
"y. c #7278A5",
"u. c #6E76A4",
"i. c #897986",
"p. c #957988",
"a. c #97758D",
"s. c #AA7291",
"d. c #698986",
"f. c #779689",
"g. c #789897",
"h. c #728C8F",
"j. c #78A298",
"k. c #7985AD",
"l. c #7C84B3",
"z. c #7E8AB5",
"x. c #7398AA",
"c. c #608E93",
"v. c #7BAACE",
"b. c #8A8587",
"n. c #988789",
"m. c #998896",
"M. c #869D94",
"N. c #9D9299",
"B. c #8E948E",
"V. c #A2898B",
"C. c #A48A9A",
"Z. c #A89499",
"A. c #B39A9D",
"S. c #A6938E",
"D. c #89A899",
"F. c #93AA9B",
"G. c #94AC93",
"H. c #858CBB",
"J. c #838AB7",
"K. c #8893BD",
"L. c #8C9ABC",
"P. c #8694B5",
"I. c #9595B7",
"U. c #8D93A9",
"Y. c #A494A2",
"T. c #AB9CAB",
"R. c #A899A5",
"E. c #B49BA2",
"W. c #B49CAB",
"Q. c #B89AA8",
"!. c #A89AB5",
"~. c #B79DB2",
"^. c #AA8AA1",
"/. c #99B5A7",
"(. c #8EB0B0",
"). c #ABA3AC",
"_. c #BAA3AC",
"`. c #B7A2AA",
"'. c #ADA2B5",
"]. c #B3A4B4",
"[. c #BCA4B3",
"{. c #BEAAB4",
"}. c #BCAABD",
"|. c #B6A7BA",
" X c #A3BAAF",
".X c #B0A19D",
"XX c #C192B0",
"oX c #C1AAB6",
"OX c #C4ABBB",
"+X c #CBACBD",
"@X c #C3A5B6",
"#X c #C7B0BB",
"$X c #C8A7B7",
"%X c #98C5B8",
"&X c #AAC7B5",
"*X c #B7CAB9",
"=X c #ABCCB7",
"-X c #8C94C3",
";X c #8E9BC2",
":X c #8995C4",
">X c #929CC5",
",X c #939DCA",
"<X c #999DC6",
"1X c #878FC0",
"2X c #93A1C5",
"3X c #96A3CA",
"4X c #99A5CC",
"5X c #9BA9CC",
"6X c #9AA5D1",
"7X c #9DAAD3",
"8X c #9AA7D5",
"9X c #90BBC5",
"0X c #A8A8C7",
"qX c #BCADC3",
"wX c #B8ADC7",
"eX c #BEB1C4",
"rX c #BDB2CA",
"tX c #A2ADD6",
"yX c #A8B2D7",
"uX c #97ADD2",
"iX c #C3ADC2",
"pX c #CBACC1",
"aX c #C3B3C5",
"sX c #C3B3CA",
"dX c #C9B6C9",
"fX c #C9BAD3",
"gX c #D2B9CC",
"hX c #9BC4C8",
"jX c #B8D7C6",
"kX c #A8CFCE",
"lX c #9ACAF3",
"zX c #AEDBF8",
"xX c #B9E5F9",
"cX c #B8E6EC",
"vX c #BAE1D2",
"bX c #CBCCD0",
"nX c #C8E5D7",
"mX c #D6E8DD",
"MX c #D4E7D2",
"NX c #D9EBE2",
"BX c #DAF4E7",
"VX c #C2ECFD",
"CX c #CBF3FE",
"ZX c #C7F1FF",
"AX c #D4FAFE",
"SX c #D6F9FE",
"DX c #C0EEEE",
"FX c #E6F8EC",
"GX c #ECFDF4",
"HX c #E8FBF8",
"JX c #F3FCF5",
"KX c #F4FFFB",
"LX c #FEFEFE",
"PX c #F5F9F4",
"IX c #EBF1E8",
"UX c #EAE8DB",
/* pixels */
"d d d d d d d d r d d r r r k r r p r r t 9 9 9 9 > q = 9 T ( k > > > > > t = > > > > > = > w p p i > + . @ . o . O + X + @ O & + + + + O + + X ",
"x z z d l k k d d d d r r k r r r p r 9 9 r t 9 9 q q > t (  .j > > > > = > > > > ; = = * O O O : ; & + O X O O . O . X + X + O + + + + + + + + ",
"z k d z z z k k d k r r r r r t t t w w t 9 t 9 q q q > 9 (  .j t q : > > = = = * & + + + + @ @ . X . . . . X @ + + O O O O o & X + X + X + + X ",
"k k d l z k k k r r r t t t w t w w t t t 9 9 9 > q q > t ( #.v = = = : = & & & @ o X . o X . . . . X . . . . . o O . + + o & + & + o O - ; , 4 ",
"k z z z k k k k r r r r e t e r w w t 9 q 9 9 9 > q q = q (  .l * - & + + o o o + . . . . . O @ X o @ o X . . + X . X . @ o @ + - 4 u u < @     ",
"k k k k k y k r k r r r r r r w e w t 9 3 > 9 9 > > > = > T  .j o + o . o o o o . o . @ o O . . o @ . . . . @ . O + # : 4 w e 0 @ X       $ S $.",
"z k k k k k k k r k r r r r r r r t w w q > > > = = = & & (  .p . O . . o o o @ . . . . O X + . X X X X . X * , 4 , %           $ S 8.G.*XnXBXFX",
"k k k k k r r r r r r r j r r r r r w t > = = * & & o o O T #.j   O . o . + O O @ . . + . O . O o o o . + : @         5 [ 8.G.&XnXBXGXJXLXLXLXLX",
"z z k k k r r k r r r r r j r t t 3 3 = = * + + + . . . o ^ @.d   & o o O O . . O + . o o + . X . . + .     . S 7.G.=XMXBXJXJXLXLXLXLXLXLXLXJXIX",
"v v z z k k k k k k r r r t t 9 3 = = * O + + . . . O o o ) #.z   o o o O o O . . o + @ + @ O O + X + ; 5 8.jXmXFXGXKXLXLXLXLXLXPXJXFXmXjXG.8.S ",
"z z v z z z k p r t t 9 9 > : = + + + O o o O . . . o O o ( %.l o & + @ O o o . o + o + + + + + + # - 3 [ =XFXJXJXJXLXLXPXJXFXnX&XG.6.C X     f ",
"v z z k k r r t 9 t 9 * * & & + & & + O + & O O X X + o o ( %.z   . o O & + + & & + & & # + ; # + * ; 5 I /.mXGXGXFXmX*X/.8.! 6     i U ( ] ] #.",
"k r r t t q > = = * # + O O # # + + * & + O & & +       + ^ %.U > 9 : + + + + + * & ; : * - : > ; * # 3 5 [ G./.M.$.S       9 U ' ] #.] ] $.#.] ",
"t t > q = # # O O + O + & # # # & & & + & & o     : a j b H W W W W K H H M N u ; < , p a - ; 4 : ; ; = 3 .         q l A S P ! ' ' [ ' ' ! ! Z ",
"i 9 9 & + + + O & + + + & & & * * & * * & & ; a b M H b H b H M b b H ^ U K ^ U b i 4 a n b 4 i w w 3 r e d g n C C C Z c C c P I I Z C d r w w ",
"      * 4 > + * + # & * * * = * - * * * * t b m M b b b b M M U K H ^ ^ ^ K / ..^ K a f p n Z Z g i r d d k k z h C c x l d r d i w w w r i p a ",
"7.[ y .     = # # * * = ; ; = ; = = ; : f W n b M K H m N a M M H ^ ^ K H K ^ / ....W l w g A W ! l x k z k l l k d d d p e w w e r i r k d k d ",
"FXDXnXkXj.Y   ; * : > q t 3 3 3 3 4 3 l F n n b n H M b M W W H H H K K H b H ^ / ....K 7 7 n ! ( A d d k p r p r r i i e e r p r r p d p p p p ",
"LXLXKXHXBX%X! 6 3 = 3 t w r i r d p l A A h g s b b M N H / / / ^ K H K K H 0 K K K / ^ l , a W ! Z d i i i i e r r w e i e e r i p d p i w w w ",
"LXLXKXHXBXjX&.5 3 q r r k z C c C P S A h s g h s h M M b K ^ ..o.X.L K N N s a N N M Q M , : s W A d e r e r w w e i e w e e i r i e w w w w , ",
"mXBXFXBXnX/.E d y d C C C R R T ' ' A F h h h g a h M h K / ^ / ^ Q / ` o.O.o.Q M N s B B a % : g A d i e p r p p p i e w w w w u , 4 4 ; ; ; - ",
"6 [ 6.h.6.Y y C C R Y ' *.6.7.f.D.7.A C 8 g 7 7 7 h h B / :.:.=.O.:.2.a.Z.Z.Z.m.:._ N s N s < < 4 g g w w e p l d p e u 4 , 4 4 9 < ; : ; - - - ",
"& o     = P Y Y E [ c.j.%X%XkXvXnX8.A 8 8 7 g B h V N B _ e.n.m.R.R.T.[.{.OX{.`.Z.p.2./ s 0 2 % % a a 4 w w d n m g w , : ; : ; % % - % - % % - ",
"v z y t y D D *.c.%X=XnXBXBXJXLXFX<.7 g g 7 F G G B ` 4.3.n.Z._.@X{.OXaXaX#XOX|.`.R.C.3./ 0 0 % < < g 7 3 4 d Z P x w ; - - % - - - - - - : - % ",
"  t T 6.D. XjXNXIXKXLXLXLXLXLXLXjXS G h 8 8 F G G ` 0.E.`.@X@X$XOX+X#X#XdXdX#XOX_.A.Z.n.-.N , - % 4 f u ; w j Z P n u ; - ; - - : : - - - - - - ",
"jXMXFXKXLXLXLXLXLXLXLXLXLXLXLXLXS.8 ~ g 7 7 8 ~ } 1.Z.A..XoXA.oXOX#XoXoXoX{._.oX@X_.Z.Z.p./ s 2 % 7 f p ; w g P P l i > = - ; ; : ; - - - - < - ",
"LXLXLXLXLXLXLXLXLXLXLXLXLXLXLXPX6.S S 7 2 7 V } 1.0.A.A..XoX`._.oX#X{.`.~._.A.E..X.XA.Z.n.:.B a 2 ; f b w i g A Z x i > % - ; , ; > : ; : ; - - ",
"PXLXLXLXLXLXLXLXLXLXLXLXJXIXmX*X~ F 8 7 8 | } 0.0.V.A..X`._.oX{.#XoX_.oXoXOXoX_.`.).A.C.n.3.B a < < h f 4 w x Z Z f u ; = : , w 4 4 , , ; ; - - ",
"LXLXLXLXLXLXJXIXNXbX=X/.f.6.[ 7.| F F G ] 9.0.9.0.A.A.`.[.OXOX+X$X+XOXpXdXdXdXpXiX~.Q.N.V.i./ N < < b h < 4 i g f f w , % ; w d p i e w w , ; : ",
"PXIXmXjX&XF.f.6.E E E D E Y ! 7.| [ ] { | ;.1.0.A..X[.[.[.[.OXpXOXgXdXpXpXaXiXpXiX!.~.^.m.i.=.K < u h p ; > 3 w i u w < % ; w l l d k p i w w 9 ",
"7.*.D D y D D R T ( ( T Y R C ] ] ] } ;.| | 9.0.n.m.m.n.m.C.W.@XpX}.@X}.C.2.-.e.a.i.i.m.m.p.:.^ % a a w - : = - : ; ; - % > p x v l z l d j a r ",
"t v R T T Y R U P P P P C z d ' ] G ~ | | ;.;.~ F B 7 2 B _ m.W._.@X~.C.:.L 1 2 s K L / -.p.-./ , u a - - - - - - ; - : ; < i x l z l l l k l d ",
"P P P C J P C C C P Z C C z d ( ~ A F F | | B B / K L L s V } 0._.+XoXC.3.O.+.2.i.+.a.a.+.i.-.K s f u * - - * ; : ; ; ; ; 4 u p p p d f l d l v ",
"z z z z z k z z k k C Z c Z x I $.F h F | Q / O.e.a.s.a.5./ V 5.`.#XOXC.a.5.+.2.a.a.i.a.m.i.:.M a u u : ; ; : , , , , < 4 4 p p i p p p j d l I ",
"R T $.&.*.E P R @.&.*.E R C O   ! ~ g G } ` } _ +.+./ e.a.i.V ` A.@X_.C.a.a.e.J X.e.+.i.^.C.,.N 4 p a : = - + # - : , 4 w e w i p e i p i d m ^ ",
"*.6.f.f.D.f.g.j.(.%X%X(.j.c.f.D.G.! i ~ ;.-.-.L o.X.^ I.!.o.V ` A.XXQ.^.a.^.I.+.a.I.i.V.W.T.:.a u M a ; ; x F A I I Z i u 7 4 i e u u i p p l ! ",
"c.j.j.%X&XkXjXnXnXBXBXFXIXGXPXLXIX] g { 9.9.;._ -.a.a.C.4.5.` 4.A.@X~.^.^.a.s.^.^.s.R.Q.[.`.2.N N W l 4 z ' >.f.d.8.#.m p a l l f f p u w u l m ",
"j.jXBXFXGXLXLXLXLXLXLXLXLXLXLXLXPX{ g -.b.S.S.0.3.3.V.s.0.4.4.4.Q.$XXXQ.~.W.W.!.W.W.].~._.Q.p.0 Q =.Z i C f.=X*X=X/.f.!             , a u p j b ",
"kXHXKXLXLXLXLXLXLXLXLXLXLXLXLXLXPX8.g } 9.Z..XA.Z.A.A.A.0.4.4.4.XX$XQ.~.~.~.iXiXiXiX@X@X[.R.i.N Q :.) = ] mXLXLXLXPXIXMXbX&X).M.8.=.l 3 l d f d ",
"FXLXLXLXLXLXLXLXLXLXLXLXLXLXLXLXPX} h | 9.S..XA.E.E.A.A.0.4.5.4.@X+X@XQ.@X@XpXpXpXpXpX$X@XR.i.B 5.3._   F.GXLXLXLXLXLXLXPXLXLXLXJXFXbXI d n c x ",
"LXLXLXLXLXLXLXLXLXLXLXLXLXLXLXLXUX| ~ ~ 4.0.S..XE.A.Q.A.0.5.4.0.@XgXpXE.@X$X+X+XpX+XpX+X[.^.i.L n.p.=.  B.JXLXPXLXLXLXLXLXLXLXLXLXLXGXM.+ P g m ",
"LXLXLXLXLXLXLXLXLXLXLXLXLXLXLXPXMX} G G } 0.V.Z.A.E._.A.4.G 4.0.E.$X@X~.XX+X+X+X+X+XpX$X[.^.-.+.~.Z.,.d Y nXLXLXLXLXLXLXLXLXLXLXLXLXGXF.y Y C 5 ",
"LXLXLXLXLXLXLXLXLXLXLXLXLXLXLXLXUX0.2 V } 1.0.S.A.Q.XXS.4.V V V p.^.a.i.Q.+XgX+XpX+X+X@XW.C.i.a.$X^.d.!   ! D./.*XFXJXLXLXLXLXLXLXLXKXIXmXNXmXM.",
"LXLXLXLXLXLXLXLXLXLXLXLXLXLXLXLXPXq.1 G } ,.9.n.S.A..XA.0.4.V V ` a.^.a.A.+X+X+XpXpXiX~.W.C.a.C.C.Y.b.S z Z C *.nXJXLXLXLXLXLXLXLXLXLXLXLXLXLXmX",
"LXLXLXLXLXLXLXLXLXLXLXLXLXPXPXPX*X| ~ ` } 1.3.n.S.Z.`.`.A.V.4.O.p.Q.$XQ.@X+X+X+X+X+XOX@XW.C.m.Y.C.T.B.d x ' *. XGXJXLXLXLXLXLXLXLXLXLXLXLXLXLXIX",
"LXLXLXLXLXLXLXLXLXLXJXFXjX/.&X8.8.9.| ~ | ;.9.n.n.A.A..XXXA.3.p.E.~.@X~.[.$X+XOX+X$XoX{.].m.C.|.N. Xd.C x ' ] &XJXLXLXLXLXLXLXLXLXLXLXLXLXLXLXPX",
"GXJXLXLXLXLXLXLXLXLXJXGX*X8.6.E 8.=Xq.F ~ ;.3.0.n.S.S.A.A.S.n.V.@X~.[.pXOXOXOX+X@X$XoX].W.m.b.R././.8.U C ' *.f.mXKXPXPXPXPXLXLXLXLXLXLXLXKXGXBX",
"BXFXLXLXLXLXLXLXLXLXLXLXLXJXBXjXD.=X*X/.B.{ 1.9.0.V.N.S.R.Z.m.s.^.@X~.~.}.dX|.W.~.@XoX_.W.m.=.f./.D.7.Z d I ' ' >.D.M.8.$.jXJXLXLXLXLXLXLXLXKXPX",
"BXGXJXLXLXLXLXLXLXLXLXLXLXLXGXBX=X/.vXvX&X| ;.1.9.n.n.S.C.:.+.L L 5.5.a.a.s.Z.A.`.{.].`.R.b.#.>.f.f.#.Z d g x v ,     3   *XLXLXLXLXLXLXLXLXLXGX",
"cXCXHXLXKXLXLXLXLXLXLXLXLXLXJXGX=X[ 7.j.<.] | ;.;.9.S.Z.m.-.5.s.s.s.s.s.s.a.Y.`.[.{.`.T.Z.i.%.$.>.>.] m i d f i p l p m   F.LXLXLXLXLXLXLXLXKXPX",
"zXxXCXHXLXLXLXLXLXLXLXLXLXLXKXFX=XS C g C [ | } } 1.N.A.Z.s.p.s.s.XXXXXXXX@XoXoX{.|.T.R.N.,.^ @.&.$.' c i g l p p j l m . F.PXLXLXLXLXLXLXLXLXPX",
"xXZXAXHXKXLXLXLXLXLXLXLXLXLXBXmXD.S Y [ F G | ~ { -.n.Z.S.V.V.n.s.s.C.^.~.[.{.{.{.[.R.N.m...T @.$.<.( c p d f p x m U Y x  XFXKXLXLXLXLXJXJXIXNX",
"cXSXSXHXLXLXLXLXLXLXKXHXBXBXvX%X$.! ! F S ! ~ ~ _ { 1.n.S.n.Z.Z.s.a.C.Q.{.oX`.oX{.T.Y.m.e.) ( @.>.%.' c p d l d P ( X.#.(  XSXJXKXLXLXLXJXFX=X&X",
"zXZXSXSXAXAXSXHXAXSXDXhXhX%X%X8.[ ' ! ! ! ~ ] ~ ~ ~ } n.n.Z.A.`.XX@X$X+XoXoX{._.`.Z.m.e.,. .(  .&.$.( c p j d d T *.w.d.&.g.nXBXIXmXmXMXMXbX/./.",
"zXVXCXSXAXAXAXHXAXSXcXhX%X(.D.h.$.[ ! ! ! ( ] ~ F Q ~ 3.S.V.A.E.Q.oXOX+XOX#XoX].R.n.i.,.b. .T  .#.%.( n i k p z  .&.h.x.h.d.d.D.D.D.F./.F./. X/.",
"cXVXCXSXAXCXAXSXAXCXVXkXhX(.j.f.#.! Y S ! ! | ] G F Q =.b.n.C.E.`.[.OXaXOXoX[.Q.m.e.:.m.m.^ R  .#.#.( A e a k j @.e.x.x.x.h.d.M.F.F./././.%X X/.",
"zXxXZXAXCXAXAXAXAXAXxXkXhX(.D.d.[ Y I Y S ! { { G F F Q -.3.i.N.Z.W.~.~.W.T.R.m.:.o.i.T.N...P ( #.#.( m e j r j  .w.x.x.h.d.d.j.D.F.F./././././.",
"zXxXxXCXZXCXAXAXAXSXxXhXhX(.j.d.( U Z Z A S { | G G B h / =.:.i.p.m.N.C.m.m.p.e.o.i.Y.T.U.=.v T ' #.( c e p d d T *.w.d.w.%.7.g.D.D.F././.F././.",
"zXxXZXZXZXCXAXAXAXCXxXkXhX(.j.&.Y C Z Z W S | | ~ G G B B W ) o.=.e.i.:.e.:.o...e.C.~.~.R.,.l U @.#.) x w p p d R ( @.*. .@.>.f.D.M.D.D.D.F.F.F.",
"zXzXxXxXZXxXZXCXZXxXxXkXhX9Xj.w.U g C Z S F | { | ~ F G B N M L / / / o./ X.:.m.Y.T.].].T.i.P ^ #.$.( v r p p u k J J Z Z ! ] 8.8.f.8.M.M.f.g.g.",
"lXzXzXzXzXzXzXxXVXVXcXlXhX(.j.w.Y c C x A A { -.| ` ~ ~ G F B B H K / o.2.a.Y.Y.R.|.}.}.T.m.#.( <.$.( b w p x c c l i i r P ] <.&.&.7.7.7.>.7.w.",
"v.lXlXlXlXlXlXzXzXzXkXhX9XU.c.*.R c x C h C { ;.1.;.-.-._ { _ o.o.+.i.m.Y.R.R.!.].qXiX|.T.Y.<.$.>.%.( x p k Z ! ! W P Z Y ( #.%.%.w.*.%.#.#.#.@.",
"x.x.v.x.c.w.x.9X9XhX%X(.j.g.&.T P z k g g h { 3.9.n.b.i.e.3.i.b.m.a.^.R.T.T.|.~.}.iX}.}.].Y.h.=.<.#.Y x i v P W U ^ I ! ] #.&.%. . . .( ( ( J P ",
"c.c.w. .T ' *.7.g.D.j.g.d.#.R P P S A Z g g { 3.n.N.Y.Y.N.m.m.N.Y.!.T.!.qX|.|.qXqXaXqXqX].R.m.-.' ( Z f i c P T Y P P ( ' #.%.%.%. .T ( @.) T J ",
"c.d.6.[ ' ' $.7.7.7.7.] Y n d Z ! T ' Y h A } 9.B.R.R.).).Z.N.R.T.|.].|.}.}.qXqXaXrXaXqX|.T.N.b.=.x u a p p l v v m b U (  . . .( R H P ( ( U w ",
"j.f.7.$.' T ( @.' ' Y C i w r R @.$.&.] Z ) ;.9.B..X).).].T.Y.!.].}.qXiXqXqXqXrXsXsXqXqX|.W.Y.m.b.:.U o w r , : & : 9 t l b j j j j j m ( ( x : ",
"D.j.8.$.S x c P n l 5 3 5 3 i ( >.d.d.$.] ;.;.9.S.R.).].|.'.).Y.'.qXiXrXaXqXqXaXsXsXrXqX|.!.T.Y.U.U.U.%.b - w 9 : : : & * - % - = & : w I ^ m > ",
"7.7.$.! g 4 > w 4 7 < < 3 ; r ' &.d.d.d.b.8.9.n.N.R.R.).|.'.).).T.|.qXqXqXwXqXaXsXqXqXqX|.|.).T.Y.I.H.H.e.T ; X : 9 : - > , : 9 9 : : 9 m H d 9 ",
"$.] ! C e ; * - ; - ; ; ; > d ' w.g.h.g.U.N.b.B.N.R.T.).|.|.'.).].|.}.qXwXqXiXwXsXqXqXqX|.~.].!.!.I.1Xv.l.k.w.J & o : 9 , 9 ; , , < : , j j w , ",
"Y A Z d > : % % - : ; * ; 3 t T e.x.x.U.I.U.N.Z.N.N.R.T.).|.|.'.!.|.|.wXqXqXqXsXqXqXiXqXqXqX].!.I.-X:X:Xz.l.k.u.w.T : o < , 0 w 0 , : : , 9 , : ",
"d p i < # % % - - - ; , # . k e.h.U.P.L.U.'.).F.R.N.F.T.).|.}.|.!.|.qXsXsXsXiXsXsXsXqXwXwXwXqX0XI.:X,Xz.z.z.k.k.t.r.w.^ a - 7 a u 0 : : : : : : ",
"w 4 ; - % % % - , , &   w ..e.U.P.P.2XL.L.L.'.'.).).).).).].}.eXqXqXqXwXsXrXsXwXsXiXwXiXwXiXwXI.-X,X:X:X1Xz.l.k.t.t.u.u.w.X.b 7 a 0 : : * - : : ",
"w , , ; % % : 9 +   >  .h.U.k.(.L.P.5X3X2XL.2X'.|.).].].].].}.eXfXsXsXsXsXiXsXsXsXsXsXsXwXwX0XI.<X,X1X1XH.H.z.k.k.l.r.u.r.y.e.X.A m l a , : - : ",
"9 w , ; : < X   9 ..h.U.L.L.k.5XL.L.2X2X5X3XL.0X0X|.|.|.{.|.qXjXfXfXsXfXsXfXsXsXsXsXfXsXsXwXI.>X6X,Xz.H.H.J.z.z.l.k.l.l.t.u.u.y.e.X.) U < & : : ",
", 9 u 9 -   4 ' h.L.P.P.4XL.x.5X5XL.L.5X5X5X5X4X0XwXeXaXaX}.qXdXfXfXfXfXfXfXfXfXfXsXiXsXiX!.I.6X,X:X:X:X1XJ.J.l.l.k.l.l.l.t.r.u.u.u.e.X.J   o & ",
", 7 :   p #.h.L.P.P.J.L.3XP.z.5X2XL.L.2X5XuX5X3X5X0X}.jXdXdXaXfXfXbXfXfXfXfXsXsXsXiXqXqX!.I.<X,X,X;X-X:X1XH.H.H.z.l.r.r.t.t.t.u.u.u.u.u.w.X.J o ",
"+   e %.h.J.L.P.L.U.;X7X3Xz.K.7XL.3XL.2X5X5X5X5X7X0X0XwXeXdXbXdXbXgXbXfXfXfXgXsXsX}.~.|.I.I.4X,X,X3X-X:X-XH.H.H.z.z.t.l.l.z.l.t.u.u.u.r.u.u.e.w.",
"p ..h.P.I.L.P.P.P.k.2X5X2Xx.;XyX3XL.L.5X3X3X7XtXuXyX0XwXeXeXaXbXfXfXgXfXgXgXsXsX@XqXpXwX<X<X<X,X,X,X,X:X,X:X1X-X,Xz.1X1XJ.1X1Xt.r.r.r.r.r.r.r.r.",
"h.P.L.P.P.L.L.2XL.P.2X2X2XU.;X5X5X5X2XuX5XL.5X5XtXtX8XyXwXfXfXfXgXdXfXdXfXdXsXiX~.}.wX0X>X<X,X,X,X;X;X;X,X-X-X-X:X:X:Xz.l.1X1Xt.k.t.t.r.r.r.r.r.",
"H.L.P.>X2XL.L.2XP.L.uX7X3Xk.4X7X3X5X2X2X2X2X5XuXuXtX8XtXyXfXbXdXfXfXdXdXaXdXiXiXiXqX0XI.>X6X,X,X,X,X,X,X>X:X-X-X:X,X1X1Xl.J.J.t.r.l.l.r.t.t.t.t.",
"P.L.L.L.L.L.L.3Xz.2X7X6X2Xz.8XtX5X5X3X3X4X3X2X6X5X6XtX8X8XyXrXfXsXsXpXiXiXiXiXqXqX!.I.,X,X,X,X:X,X,X-X,X-X,X,X-X-XH.H.-XH.J.H.H.l.l.l.r.l.t.r.r.",
";XL.2XL.L.P.;X3Xx.6XtX3XL.P.tX7X3X5X5X3X4X4X2X2X3X6XtXtX8X7XtXwXsXpXqXiXiXiX}.qX'.I.<X6X,X,X6X,X,X,X<X,X<X,X-X-X-XH.-X-X1XH.H.J.l.l.l.1Xt.t.r.u.",
"L.L.2X;X2XL.>X2XJ.tX7X5XP.L.tXtX7X3X3X5X,X5X4X>X2X7XtX7XtXtX7X0XwXqX~.W.|.pXiX~.I.,X<X,X:X8X3X,X,X,X,X,X,X-X-X-XH.-X-X-X-XH.H.1Xl.H.1X1Xl.l.r.r.",
"L.L.2X2X4X;X3X2XP.tX7X3Xz.2X7X7X7X3X2X2X4X4X4X>X2X3X6X3X8X8X8X8X6X0X|.!.W.!.!.I.>X,X,X6X6X6X,X,X,X6X,X,X,X-X-XK.-X-X-XH.H.H.J.J.H.l.z.a.1X1Xl.l.",
";X;X2X7X5X;X3XL.z.yX7X3XH.>XtX7X3X4X>X>X5X2X7XtX,X6X6XtXtX6X8X6X6X6X!.!.!.^.I.<X4X,X,X6X,X,X,X,X,X,X,X,X>X,X-X-X-X-XH.-XK.H.H.-X1Xl.H.1X1XJ.a.z.",
"L.2X,X6X3X;X3Xz.L.7X6X;XP.3X7X7X3X4X4X7X8X3X6X4X4X6X<X8X8X,X8X,X6X6X6X<X0X-X,X,X,X>X,X>X-X,X,X,X,X,X,X,X>X-X1X-XH.H.H.-XH.H.H.H.1Xl.a.1XH.t.l.z."
};
