/* XPM */
static char *Free_Converter_com_save_40392410[] = {
/* columns rows colors chars-per-pixel */
"100 100 89 1 ",
"  c #010101",
". c #0B0000",
"X c #010B0B",
"o c #0B0B0B",
"O c #120000",
"+ c #1B0303",
"@ c #1D0905",
"# c #150C0B",
"$ c #190C08",
"% c #091309",
"& c #0C1A0D",
"* c #111309",
"= c #1C160C",
"- c #001313",
"; c #0B1313",
": c #0A1D13",
"> c #031C1B",
", c #081818",
"< c #131313",
"1 c #1B1616",
"2 c #131D13",
"3 c #101C1C",
"4 c #1B1B1B",
"5 c #290707",
"6 c #220C0A",
"7 c #280D0D",
"8 c #310D0D",
"9 c #25140B",
"0 c #2B120B",
"q c #221A0F",
"w c #2A1A0F",
"e c #231111",
"r c #311616",
"t c #341B11",
"y c #3A1E1E",
"u c #05211E",
"i c #0C251B",
"p c #172317",
"a c #1D2D1D",
"s c #3B261B",
"d c #072323",
"f c #0C2323",
"g c #0B2B24",
"h c #0A2F2C",
"j c #132B2B",
"k c #0C302C",
"l c #0F382C",
"z c #11312E",
"x c #0F3B31",
"c c #163434",
"v c #123939",
"b c #232323",
"n c #262C26",
"m c #2B2B2B",
"M c #253625",
"N c #2C332C",
"B c #333333",
"V c #313A31",
"C c #3B3B3B",
"Z c #422423",
"A c #5A3C3C",
"S c #124036",
"D c #194639",
"F c #314131",
"G c #3A443A",
"H c #3D4C3D",
"J c #325353",
"K c #3C5C5C",
"L c #3C6262",
"P c #444444",
"I c #414B41",
"U c #4B4B4B",
"Y c #415041",
"T c #535353",
"R c #5B5B5B",
"E c #725454",
"W c #795858",
"Q c #636363",
"! c #6B6B6B",
"~ c #737373",
"^ c #7B7B7B",
"/ c #618484",
"( c #838383",
") c #8B8B8B",
"_ c #949494",
"` c #9C9C9C",
"' c #A3A3A3",
"] c #ACACAC",
"[ c #B1B1B1",
/* pixels */
"    o  o o oo ooo<o<<11444bbbbmmmBmBCBCCCPPPPPUPUUPUUPPPPPPCCCCBBBmmmmmbb44441<<<<<oo<oooo o . o    ",
"  o   o o ooooooo<<<<134444bbmmmmBBCCCCPPPPPUUUUUUUUUUUUPUPPPPCCCBBBmmmbbb4b444<<<o<;ooo Xo  o o  o ",
" o  o  o  oooo<oo<<<<1444bbbbmmBBBCCCPPPUUUUUUTUTUTTTUUUUUUUPPPCCCBBBmmmmbbb4441<<<oooooooo o X  o  ",
"      o ooo oooo;<<<3444bbbmmmBBBCCCPPPPUUUUTTRTTRTRTRTTTTUUUPPPPCCBBBBmbmb44443<<<<<oooo.Xo o      ",
"     o oo  ooo<o<<<<3444bbmmmmmBCCPPPPUUUTTRRRRRRRRRRRRTTTTUUUUPPPCCCBBmmmbb44411<<<o<oooX o o  o   ",
"  o    o oooooo<;<<1444bbbmmBBBCCCPPUUUTTTRRRRRQQQQQQRQRRRRTTTUUPPPCCBBBmmmbbb444<<<<oooooo.o oX  o ",
"o   o o ooooo<o<<<11444bbmmmmBCCCPPUUUTRRRRQQQQQQ!!QQQQQQRRRTTTUUUPPCBBBmmmbb444<4<<o<<ooo.X.oo o o ",
"   o o o oooooo<<<1444bbbmmmBCCCPPUUTTTRRRQQQ!!!!!!!!!!!!QQQRRTTUUPPPCCBBmmmbbb44<1<<<ooooooo  o    ",
"o  oo  ooooooo<<<13444bbmmmBBCCPPUUTTTRRQQ!!!~!~~!~~~!!!!!QQQRRTTTUPPCCBBmmmbbb444<<<o<<oooX.X..o   ",
"      o  oooo<o<<<144bbbmmBBCCPPPUUTRRQQQ!!!!~^~^^~~^^~~!!!!QQRRTTUUUPPCCBmmmbbb444<<<ooooo.XoX   o ",
"  o o  oo ooo<<<<1444bbbmmBBCCPPUUTRRQQ!!!!~~^^^^^^^^^^~~~!!!QQRRTTUUPCCBBBmmbb444<4<<<<ooooo .X o  ",
"     ooooooooo<<1144bbbmmmBCCCPUTURRRQ!!!~^^^^(((((((((^^^~~!!!QRRTUUPPCCCBmmbbb444<<<ooooooo.X.  o ",
"o o  o  oooooo<<<3444bbmBBBCPPPUURRRQ!!~~^^^((((())()((((^^~!!!QQRRTUUPPCBBBmmb444<4<<<ooooo o.Xoo  ",
"  o o ooooo<<<<<1444bbmmmBCCCPUUURRQQ!!~^^(((()))))))))(((^^^~!!QRRTTUUPCCBBmmmb4b44<<<;ooooo X.  o ",
"     ooo ooo<o<<1344bbmmBBCCCUUTRRRQ!!~^^((())______)_)))((^^~~!!QRTTUUPPCBBmmmbb44<<<<o<ooooX.Xo   ",
"o  o o  ooooo<<<444bbbmmBBCCPUUTRRQ!!~^^(()))______``__))))(^^~~!QQRTTUPCCCBBmbbb444<<<<ooooX.o  o  ",
"   o o ooooo<<<<344bbmmmBBCPPUTTRR!!~~^^()))__`````````__)))(^~~!!QRRTUUPCCBBmmbbb43<<<o<oooooXo    ",
"    o  ooooo<o<1144bbbmBBCCPUUTTRQ!!~~((()___````''````___))((^~~!QRRTUUPCCCBmmbb44431<<oooo o . o o",
"o  o oooooooo<<<144bbmmBBCPPUUTRQQ!!~^(())_```'''''''''``_)))((^~!!QRTTUPCCBBmmmb4441<<oooooooX oo  ",
"  o o  ooooo<o<1344bbmmmBCCPPTTRQQ!~^^())__``''''']''''```__)(^^~~QQRRTUUPCCBmmbbb44<1<<o<oo oo     ",
"      ooooo<o<<<1444bbmBBCPPUTRRQQ!~^(()__```']']]]]''''```_))(^~~!QQRTUPPCCBmmmbb4411<ooooooo o   o",
"  oo o o ooo;<<<44bbmmmBBCCPUTTRQ!~~^(()_```'']]]][]]]]'```_))(^^~!QRRTUUPCCBBmbb4413<<;<ooo.Xo oo  ",
"o    oo ooo<o<<114bbbmmBCCPPUUTRQ!!^^())_```']]][[]][]]''``__))^^~!QQRTUUPCBBmmmbb44<<<o<oooooXo    ",
"  o   ooooooo<<1144bmmmBBCPPUTRRQ!~~^())_``'']][[[[[[]]'''`__)((^~!!RRTTPPPCBBmmbb4411<<oooo.o   o o",
"   o ooooooo<<<<344bbmmBBCPPUTTQQ!!^^())_``'']][[[[[[]]]''``_))(^~!QQRTUUPCCBBmbbb4411;<<ooo o o   o",
"o    o o oooo<<<144bbmmBBCCUUTTRQ!~~^()__`''']][[[[[[]]]''`_)))^^~!!QRTTPPCCBmmmb4431<<o;oooo o o   ",
"o  oo  oooo<o<<<144bbmmmCCPPUURRQ!!^^())_``']]][[[[[[]]'''``_)((^~!QRRTUUPCCBmmbbb44<<<oooooo o o   ",
"     o o oooo<<<134bbmmBBCCPUTTRQQ!^^())_``'']]][[[[[]]]''`__)(^^~!QRRTUPPCBBBmbb4411<<<oooo.o o   o",
"  o  oo ooooo;<<344bbbmmBCCUUUTRQ!!~^(()_```']][[[[][]]''``_))((^~!QRRTUPPCBBmmmb444<<;o;oo.oo o o  ",
"       o oooo<<<114bbbmBBBCPUUTRR!!~^(())```''']]]]]]]''```_))(^~~!QRTUUPPCBBmbbb4441<o<oooo  o     ",
"    oo ooooooo<<1144bbmmBBCCPUTRRQ!~~^())_```''']]]]''''```))(^^~!QQRTTUPCCBBmmb444<<<<oooooo o o  o",
" o o  o o.ooo<<<<344bbmmBBCPPUTTRQ!!~^(())_``'''']'''''```)))(^^~!QQRTUUPCBBmmbbb44<<<<ooo o o o    ",
"   o o oXoooo<<o<144bbbmmBCPPUUTRQQ!!~^()))_````'''''````_))((^~!!QRTTUPPCBBmmbb4431<<oooo  o   o   ",
"        . ooooo<<1344bbmBBBCPPUTRRQ!!^^(())__``````````__))((^^!!QQRTUUPCCBBmmbb414<<o<ooooo oo     ",
"    o  ooXoooo<<<1144bbmmmBCCPUUTRRQ!!~^^()))_```````___)))(^^~!!QRTTUPPCBBmmbbb411<<<oooooooo      ",
"o  o  o . .oooo<;<134bbbmBBBCPPUURRQ!!~~^(())))_______)))((^^~!!QRRTUUPCCBBmmb4444<<<o<ooo     oo   ",
"      oooo.o ooo<<1344bbbmmBCCPUUTRRQ!!~^^(((()))))))))(((^^~!!!QRTTUUCCCBmmbbb4431<oooooo o oo     ",
"   o o  X Xooo;<o<<144bbmmBBBCPPUUTRRQ!!!^~^(()()))(()((^^^~!!QQRTTUPPCCBmmmbb441<<<<oooo o         ",
"      .  o oooo<;<<1144bbbmmBCCPPUTTRQQQ!!~^^^^(^((((^(^^~!!!QQRRTUUPPCBBmmbbb441<<o<ooooo oo o     ",
"      o X o.oooooo<1344bbbmBBBCCPUUUTRRQQ!!~~~^^^^^^^^~~~!!!QQRTTUUUCCCBBmmbb4431<<<ooooo o o     o ",
"   o   o o ooo oo<<<1344bbbmBBCCPPPUURRRQQ!!!!~~~^~~~~~!!!QQQRTTUUPPCCBBmmbb4441<<;oooooo o   o     ",
"         oo o oooo<<<<444bbmmmBBCCPUUTTTRRQQQ!!!!!!!!!!!QQQRRTTUUPPCCCBmmbbb4413<<<oooo  oo o       ",
"       oo o   oooo<o<<144bbbmmBBCCPPPUTTTRRRQQQ!!QQ!Q!QQQRRTTTUUPPCCBBmmmbb4441<<<oooooooo       o  ",
"           oooooo<o<;<1444bbbmmBBCCCPPUUUTTRRRRRRQQRQRRRRTTTUUPPPCCBBmmmbb4443<<o<;ooo     o o      ",
"      o  o   o o.oo<<<<1444bbbmmmBCCCPPPUUUTTTTRRRRTRRTTTTUUUPPCCCBBBmmbbb4411<<<oooo  o o  o       ",
"           oo ooooooo<<<<444bbbmmBBCCCCPPUUUTUTTTTTTTTUTUUUPPPCCBBBmmbbb4441<<<o<ooooooo  o    o    ",
"        o  o o ooooo<;<<<4444bbbbmmBmBCCPPPPPUUUUUUUUUUPPPPCPCCBBBmmbbb4441<<<<;oooo o  oo          ",
"               o ooooo<o<<1444bbbmmmBBBCCCCPPPPPUPPPPPPPPPCCCBBBmmmmbbb4413<<<o<oo.oo o             ",
"            oo o oooooo<<<<<144bbbbbmmmBBBCCCGCPPCPCGCCCCCBBBBBmmbbbb44441<;<oooooooo  o o          ",
"                o o oooo<<<<1444bbbbmmmmBBBBCBCVNGIVVCCCBBBBBmmmmbbb4441<<<<oooooo   o              ",
"           o  o oo oooooo<<<<31444bbbbmmmmmBBBnaFYYHMamBBmmmmmbbb4444431<<<oooooo  oo o  o          ",
"              o   oooooo<oo<<<<1444bbbbbbmmmm2&&&%%%%&&nmmmmbbbbbb4441<<<<;oooooooo o               ",
"            o  o  o o  oooo<<<<<14444bbbbbbb2%%%%%%%%%%%bbbbbbb44431<<<<<ooooooo  o                 ",
"                o  o ooooooo<o<<<<131444bbb4%%%%%%%%%%%%%bbb4444411<<<<<oooooo.o oo o o             ",
"             o  o  oo oooooooo<<<<<1434444b%%%%%%%%%%%%%%4444441<<<<<o;o<ooo oooo                   ",
"                     o o oooooo<<o<<<<<1444%%%%%%%%%%%%%%<434<1<<<<<<ooooo oo     o  o              ",
"                     oo  Xooooooo<<<<<<<1<4%%%%%%%%%%%%%%&<11<<;<<ooooooooooooo  o o                ",
"                 oo     oo oo;,dhvjfo<<<<<<%%gx:%%%%%9t%%<<<<<<o#er85$+ooo     o                    ",
"                    o oo . o-ududcK/Lfo<<;<%%xDg%%%%*ws=%%<<<<#yWEZ7@+++O o      o                  ",
"                         oX>----->>zJJjoo#;%%ili%%%%%qw%%%<oo#ZAy@+++OOOOO o o                      ",
"                      o  X---------->fkhoooo%%:%%%%%%**%%ooo#07+OOOOOOOOOO.    o                    ",
"                   o     ------------->h;ooo%%%%%%%%%%%%;ooo6@+OOOOOOOOOOOO. X                      ",
"                        ---------------ugo o%%%%%%%%%%%ooo #9OOOOOOOOOOOOOOOo                       ",
"                        ----------------goooo o%%%%%%% oooo$$OOOOOOOOOOOOOOOO                       ",
"                       X--------------;,>Xoo ooo o%%oo oo o@O4OOOOOOOOOOOOOOO                       ",
"                       X--------------;4--  o  o...oX o  o O#1.OOOOOOOOOOOOOO                       ",
"                       X--------------o;-Xo  o oX.o  o  o  O###OOOOOOOOOOOOOO                       ",
"                       X---------------;-Xo  o  X X o  o  oOOOOOOOOOOOOOOOOOO                       ",
"                       X-----------------   o o  o o  o    .OOOOOOOOOOOOOOOOO                       ",
"                        -----------------               o  oOOOOOOOOOOOOOOOO.                       ",
"                         ---------------   o  o             .OOOOOOOOOOOOOOO                        ",
"                         --------------X             o       OOOOOOOOOO.O.O.                        ",
"                          -------------          o            OOOOOOOOOOOO.                         ",
"                           ----------X                         OOOOOOOOOO                           ",
"                            X------X                             .OOOOO.                            ",
"                                                                                                    ",
"                                                                                                    ",
"                                                                                                    ",
"                                                                                                    ",
"                                                                                                    ",
"                                                                                                    ",
"                                                                                                    ",
"                                                                                                    ",
"                                                                                                    ",
"                                                                                                    ",
"                                                                                                    ",
"                                                                                                    ",
"                                                                                                    ",
"                                                                                                    ",
"                                                                                                    ",
"                                                                                                    ",
"                                                                                                    ",
"                                                                                                    ",
"                                                                                                    ",
"                                                                                                    ",
"                                                                                                    ",
"                                                                                                    ",
"                                                                                                    ",
"                                                                                                    ",
"                                                                                                    "
};
