/* XPM */
static char *hjfav_cphyp[] = {
/* columns rows colors chars-per-pixel */
"72 72 2 1 ",
"  c black",
". c None",
/* pixels */
"........................................................................",
"........................................................................",
"...........                                                   ..........",
"........                                                        ........",
"......                                                            ......",
".....                                                              .....",
"....                                                                ....",
"....                                                                ....",
"...                                                                  ...",
"...                                                                  ...",
"...                             ......                                ..",
"..                         ...............                            ..",
"..                       ....................                         ..",
"..                      ......................                        ..",
"..                    ..........................                      ..",
"..                   ............................                     ..",
"..                  .............................                     ..",
"..                  ..............................                    ..",
"..                 .............      .............                   ..",
"..                 ...........          ...........                   ..",
"..                ...........            ...........                  ..",
"..                ..........             ...........                  ..",
"..                ..........              ..........                  ..",
"..                .........               ..........                  ..",
"..                .........               ..........                  ..",
"..                .........               ..........                  ..",
"..                                        ..........                  ..",
"..                                        ..........                  ..",
"..                                        ..........                  ..",
"..                                       ...........                  ..",
"..                                      ...........                   ..",
"..                                     ............                   ..",
"..                                    ............                    ..",
"..                                   ............                     ..",
"..                                 .............                      ..",
"..                                .............                       ..",
"..                               .............                        ..",
"..                              ............                          ..",
"..                              ...........                           ..",
"..                             ...........                            ..",
"..                             ..........                             ..",
"..                             ..........                             ..",
"..                             .........                              ..",
"..                             .........                              ..",
"..                             ........                               ..",
"..                             ........                               ..",
"..                             ........                               ..",
"..                                                                    ..",
"..                                                                    ..",
"..                                                                    ..",
"..                                                                    ..",
"..                                                                    ..",
"..                              ......                                ..",
"..                            ..........                              ..",
"..                            ..........                              ..",
"..                            ..........                              ..",
"..                            ..........                              ..",
"..                            ..........                              ..",
"..                            ..........                              ..",
"..                            ..........                              ..",
"..                            ..........                              ..",
"..                             ........                              ...",
"...                                                                  ...",
"...                                                                  ...",
"....                                                                ....",
"....                                                                ....",
".....                                                              .....",
"......                                                            ......",
"........                                                         .......",
"...........                                                   ..........",
"........................................................................",
"........................................................................"
};
